<svg width="156" height="49" viewBox="0 0 156 49" fill="none" xmlns="http://www.w3.org/2000/svg">
<path d="M145.534 0H10C4.47715 0 0 4.47715 0 10V38.45C0 43.9728 4.47715 48.45 10 48.45H145.534C151.057 48.45 155.534 43.9728 155.534 38.45V10C155.534 4.47715 151.057 0 145.534 0Z" fill="#094B4B"/>
<path d="M31.8652 18.732V22.584H33.6292C34.2772 22.584 34.7632 22.392 35.0872 22.008C35.4112 21.624 35.5732 21.156 35.5732 20.604C35.5732 19.956 35.3752 19.482 34.9792 19.182C34.5952 18.882 34.0792 18.732 33.4312 18.732H31.8652ZM31.8652 24.258V28.218H33.7012C34.0492 28.218 34.3732 28.176 34.6732 28.092C34.9852 28.008 35.2552 27.888 35.4832 27.732C35.7112 27.564 35.8912 27.354 36.0232 27.102C36.1552 26.85 36.2212 26.556 36.2212 26.22C36.2212 25.848 36.1432 25.542 35.9872 25.302C35.8312 25.05 35.6212 24.846 35.3572 24.69C35.1052 24.534 34.8112 24.426 34.4752 24.366C34.1512 24.294 33.8152 24.258 33.4672 24.258H31.8652ZM29.8852 30V16.95H33.3412C33.9772 16.95 34.5532 17.016 35.0692 17.148C35.5852 17.268 36.0232 17.466 36.3832 17.742C36.7432 18.006 37.0192 18.354 37.2112 18.786C37.4152 19.206 37.5172 19.722 37.5172 20.334C37.5172 20.67 37.4812 21 37.4092 21.324C37.3492 21.648 37.2412 21.948 37.0852 22.224C36.9412 22.488 36.7432 22.722 36.4912 22.926C36.2512 23.13 35.9512 23.286 35.5912 23.394C35.9032 23.454 36.2092 23.556 36.5092 23.7C36.8212 23.844 37.0972 24.042 37.3372 24.294C37.5772 24.534 37.7692 24.834 37.9132 25.194C38.0692 25.554 38.1472 25.98 38.1472 26.472C38.1472 27.096 38.0272 27.63 37.7872 28.074C37.5472 28.518 37.2292 28.884 36.8332 29.172C36.4372 29.46 35.9812 29.67 35.4652 29.802C34.9492 29.934 34.4152 30 33.8632 30H29.8852ZM40.489 19.596C40.489 19.308 40.591 19.068 40.795 18.876C41.011 18.684 41.239 18.588 41.479 18.588C41.719 18.588 41.941 18.684 42.145 18.876C42.349 19.068 42.451 19.308 42.451 19.596C42.451 19.884 42.349 20.124 42.145 20.316C41.941 20.496 41.719 20.586 41.479 20.586C41.239 20.586 41.011 20.496 40.795 20.316C40.591 20.124 40.489 19.884 40.489 19.596ZM42.217 30H40.687V22.476H42.217V30ZM53.3244 26.256C53.3244 26.82 53.2284 27.342 53.0364 27.822C52.8444 28.302 52.5744 28.716 52.2264 29.064C51.8784 29.412 51.4584 29.688 50.9664 29.892C50.4864 30.084 49.9584 30.18 49.3824 30.18C49.0824 30.18 48.7944 30.144 48.5184 30.072C48.2544 30.012 48.0084 29.928 47.7804 29.82C47.5524 29.7 47.3544 29.574 47.1864 29.442C47.0184 29.298 46.8924 29.154 46.8084 29.01C46.8084 29.07 46.8084 29.136 46.8084 29.208C46.8204 29.268 46.8264 29.328 46.8264 29.388V30H45.2784V16.014H46.8264V23.574C46.9224 23.43 47.0484 23.286 47.2044 23.142C47.3724 22.986 47.5644 22.848 47.7804 22.728C48.0084 22.596 48.2604 22.488 48.5364 22.404C48.8124 22.32 49.1184 22.278 49.4544 22.278C50.0304 22.278 50.5524 22.374 51.0204 22.566C51.5004 22.746 51.9084 23.01 52.2444 23.358C52.5924 23.694 52.8564 24.108 53.0364 24.6C53.2284 25.092 53.3244 25.644 53.3244 26.256ZM51.6504 26.22C51.6504 25.872 51.5964 25.554 51.4884 25.266C51.3804 24.966 51.2244 24.708 51.0204 24.492C50.8164 24.276 50.5704 24.108 50.2824 23.988C49.9944 23.856 49.6704 23.79 49.3104 23.79C48.9504 23.79 48.6144 23.856 48.3024 23.988C48.0024 24.108 47.7444 24.276 47.5284 24.492C47.3124 24.708 47.1384 24.966 47.0064 25.266C46.8864 25.554 46.8264 25.872 46.8264 26.22C46.8264 26.568 46.8864 26.892 47.0064 27.192C47.1384 27.492 47.3124 27.75 47.5284 27.966C47.7444 28.182 48.0024 28.356 48.3024 28.488C48.6144 28.608 48.9504 28.668 49.3104 28.668C49.6704 28.668 49.9944 28.608 50.2824 28.488C50.5704 28.356 50.8164 28.182 51.0204 27.966C51.2244 27.738 51.3804 27.48 51.4884 27.192C51.5964 26.892 51.6504 26.568 51.6504 26.22ZM55.7011 19.596C55.7011 19.308 55.8031 19.068 56.0071 18.876C56.2231 18.684 56.4511 18.588 56.6911 18.588C56.9311 18.588 57.1531 18.684 57.3571 18.876C57.5611 19.068 57.6631 19.308 57.6631 19.596C57.6631 19.884 57.5611 20.124 57.3571 20.316C57.1531 20.496 56.9311 20.586 56.6911 20.586C56.4511 20.586 56.2231 20.496 56.0071 20.316C55.8031 20.124 55.7011 19.884 55.7011 19.596ZM57.4291 30H55.8991V22.476H57.4291V30ZM59.9685 26.22C59.9685 25.68 60.0705 25.17 60.2745 24.69C60.4905 24.21 60.7785 23.796 61.1385 23.448C61.4985 23.088 61.9185 22.806 62.3985 22.602C62.8905 22.386 63.4185 22.278 63.9825 22.278C64.5465 22.278 65.0685 22.386 65.5485 22.602C66.0405 22.806 66.4605 23.088 66.8085 23.448C67.1685 23.796 67.4445 24.21 67.6365 24.69C67.8405 25.17 67.9425 25.68 67.9425 26.22C67.9425 26.76 67.8405 27.27 67.6365 27.75C67.4445 28.23 67.1685 28.65 66.8085 29.01C66.4605 29.37 66.0405 29.658 65.5485 29.874C65.0685 30.078 64.5405 30.18 63.9645 30.18C63.4125 30.18 62.8905 30.084 62.3985 29.892C61.9185 29.7 61.4985 29.43 61.1385 29.082C60.7785 28.734 60.4905 28.32 60.2745 27.84C60.0705 27.348 59.9685 26.808 59.9685 26.22ZM61.4985 26.238C61.4985 26.574 61.5585 26.892 61.6785 27.192C61.8105 27.48 61.9845 27.738 62.2005 27.966C62.4285 28.182 62.6865 28.356 62.9745 28.488C63.2745 28.608 63.5925 28.668 63.9285 28.668C64.2645 28.668 64.5825 28.608 64.8825 28.488C65.1825 28.356 65.4405 28.182 65.6565 27.966C65.8845 27.738 66.0645 27.48 66.1965 27.192C66.3285 26.892 66.3945 26.574 66.3945 26.238C66.3945 25.902 66.3285 25.584 66.1965 25.284C66.0645 24.984 65.8845 24.726 65.6565 24.51C65.4405 24.282 65.1825 24.108 64.8825 23.988C64.5825 23.856 64.2645 23.79 63.9285 23.79C63.5925 23.79 63.2745 23.856 62.9745 23.988C62.6865 24.108 62.4285 24.282 62.2005 24.51C61.9845 24.726 61.8105 24.984 61.6785 25.284C61.5585 25.584 61.4985 25.902 61.4985 26.238ZM69.9744 26.256C69.9744 25.692 70.0764 25.17 70.2804 24.69C70.4844 24.198 70.7604 23.778 71.1084 23.43C71.4564 23.07 71.8644 22.788 72.3324 22.584C72.8004 22.38 73.2984 22.278 73.8264 22.278C74.2344 22.278 74.5944 22.332 74.9064 22.44C75.2304 22.548 75.5004 22.674 75.7164 22.818C75.9324 22.962 76.1004 23.106 76.2204 23.25C76.3524 23.382 76.4364 23.478 76.4724 23.538C76.4724 23.37 76.4844 23.196 76.5084 23.016C76.5324 22.824 76.5444 22.644 76.5444 22.476H78.0204V29.658C78.0204 30.906 77.6544 31.878 76.9224 32.574C76.1904 33.27 75.2004 33.618 73.9524 33.618C73.5204 33.618 73.1304 33.57 72.7824 33.474C72.4464 33.39 72.1344 33.276 71.8464 33.132C71.5704 32.988 71.3124 32.82 71.0724 32.628C70.8444 32.436 70.6164 32.238 70.3884 32.034L71.3784 30.99C71.7504 31.338 72.1284 31.614 72.5124 31.818C72.9084 32.022 73.3764 32.124 73.9164 32.124C74.7204 32.124 75.3444 31.932 75.7884 31.548C76.2324 31.164 76.4604 30.63 76.4724 29.946V29.424C76.4724 29.328 76.4844 29.226 76.5084 29.118C76.5324 28.998 76.5444 28.908 76.5444 28.848C76.4364 28.992 76.2984 29.148 76.1304 29.316C75.9744 29.472 75.7884 29.616 75.5724 29.748C75.3564 29.868 75.1044 29.97 74.8164 30.054C74.5284 30.138 74.2044 30.18 73.8444 30.18C73.2804 30.18 72.7644 30.078 72.2964 29.874C71.8284 29.67 71.4204 29.394 71.0724 29.046C70.7244 28.686 70.4544 28.272 70.2624 27.804C70.0704 27.324 69.9744 26.808 69.9744 26.256ZM71.5224 26.22C71.5224 26.568 71.5824 26.892 71.7024 27.192C71.8344 27.492 72.0084 27.75 72.2244 27.966C72.4404 28.182 72.6984 28.356 72.9984 28.488C73.2984 28.608 73.6284 28.668 73.9884 28.668C74.3484 28.668 74.6784 28.608 74.9784 28.488C75.2904 28.356 75.5544 28.182 75.7704 27.966C75.9984 27.738 76.1724 27.48 76.2924 27.192C76.4124 26.892 76.4724 26.568 76.4724 26.22C76.4724 25.872 76.4124 25.554 76.2924 25.266C76.1724 24.966 75.9984 24.708 75.7704 24.492C75.5544 24.276 75.2904 24.108 74.9784 23.988C74.6784 23.856 74.3484 23.79 73.9884 23.79C73.6284 23.79 73.2984 23.856 72.9984 23.988C72.6984 24.108 72.4404 24.276 72.2244 24.492C72.0084 24.708 71.8344 24.966 71.7024 25.266C71.5824 25.554 71.5224 25.872 71.5224 26.22ZM85.2216 24.258C84.8856 24.258 84.5616 24.306 84.2496 24.402C83.9376 24.486 83.6556 24.618 83.4036 24.798C83.1636 24.978 82.9716 25.206 82.8276 25.482C82.6836 25.746 82.6116 26.052 82.6116 26.4V30H81.0816V22.476H82.4316C82.4556 22.848 82.4736 23.19 82.4856 23.502C82.5096 23.802 82.5336 24.102 82.5576 24.402C82.7136 24.078 82.9176 23.784 83.1696 23.52C83.4216 23.256 83.6916 23.034 83.9796 22.854C84.2676 22.674 84.5496 22.536 84.8256 22.44C85.1016 22.332 85.3476 22.278 85.5636 22.278L85.2216 24.258ZM86.9088 26.31C86.9088 25.758 87.0108 25.242 87.2148 24.762C87.4308 24.27 87.7188 23.844 88.0788 23.484C88.4388 23.112 88.8528 22.818 89.3208 22.602C89.8008 22.386 90.3108 22.278 90.8508 22.278C91.2108 22.278 91.5408 22.326 91.8408 22.422C92.1408 22.506 92.3988 22.614 92.6148 22.746C92.8308 22.878 93.0048 23.016 93.1368 23.16C93.2688 23.304 93.3588 23.43 93.4068 23.538L93.4788 22.476H94.9548V30H93.4068V29.046C93.3468 29.142 93.2508 29.256 93.1188 29.388C92.9868 29.52 92.8128 29.646 92.5968 29.766C92.3928 29.874 92.1468 29.97 91.8588 30.054C91.5708 30.138 91.2408 30.18 90.8688 30.18C90.2928 30.18 89.7588 30.078 89.2668 29.874C88.7868 29.658 88.3728 29.376 88.0248 29.028C87.6768 28.668 87.4008 28.254 87.1968 27.786C87.0048 27.318 86.9088 26.826 86.9088 26.31ZM88.4568 26.22C88.4568 26.568 88.5168 26.892 88.6368 27.192C88.7688 27.492 88.9428 27.75 89.1588 27.966C89.3748 28.182 89.6328 28.356 89.9328 28.488C90.2328 28.608 90.5628 28.668 90.9228 28.668C91.2828 28.668 91.6128 28.608 91.9128 28.488C92.2248 28.356 92.4888 28.182 92.7048 27.966C92.9328 27.738 93.1068 27.48 93.2268 27.192C93.3468 26.892 93.4068 26.568 93.4068 26.22C93.4068 25.872 93.3468 25.554 93.2268 25.266C93.1068 24.966 92.9328 24.708 92.7048 24.492C92.4888 24.276 92.2248 24.108 91.9128 23.988C91.6128 23.856 91.2828 23.79 90.9228 23.79C90.5628 23.79 90.2328 23.856 89.9328 23.988C89.6328 24.108 89.3748 24.276 89.1588 24.492C88.9428 24.708 88.7688 24.966 88.6368 25.266C88.5168 25.554 88.4568 25.872 88.4568 26.22ZM90.1848 21.252C90.4608 20.856 90.7368 20.454 91.0128 20.046C91.2888 19.638 91.5648 19.236 91.8408 18.84H93.4968L91.3548 21.252H90.1848ZM97.3683 23.988V22.476H98.6463V20.712C98.6463 19.14 99.0123 17.976 99.7443 17.22C100.488 16.452 101.538 16.05 102.894 16.014V17.49C101.958 17.538 101.274 17.838 100.842 18.39C100.41 18.942 100.194 19.728 100.194 20.748V22.476H106.026V30H104.478V23.988H100.194V30H98.6463V23.988H97.3683ZM108.572 26.31C108.572 25.758 108.674 25.242 108.878 24.762C109.094 24.27 109.382 23.844 109.742 23.484C110.102 23.112 110.516 22.818 110.984 22.602C111.464 22.386 111.974 22.278 112.514 22.278C112.874 22.278 113.204 22.326 113.504 22.422C113.804 22.506 114.062 22.614 114.278 22.746C114.494 22.878 114.668 23.016 114.8 23.16C114.932 23.304 115.022 23.43 115.07 23.538L115.142 22.476H116.618V30H115.07V29.046C115.01 29.142 114.914 29.256 114.782 29.388C114.65 29.52 114.476 29.646 114.26 29.766C114.056 29.874 113.81 29.97 113.522 30.054C113.234 30.138 112.904 30.18 112.532 30.18C111.956 30.18 111.422 30.078 110.93 29.874C110.45 29.658 110.036 29.376 109.688 29.028C109.34 28.668 109.064 28.254 108.86 27.786C108.668 27.318 108.572 26.826 108.572 26.31ZM110.12 26.22C110.12 26.568 110.18 26.892 110.3 27.192C110.432 27.492 110.606 27.75 110.822 27.966C111.038 28.182 111.296 28.356 111.596 28.488C111.896 28.608 112.226 28.668 112.586 28.668C112.946 28.668 113.276 28.608 113.576 28.488C113.888 28.356 114.152 28.182 114.368 27.966C114.596 27.738 114.77 27.48 114.89 27.192C115.01 26.892 115.07 26.568 115.07 26.22C115.07 25.872 115.01 25.554 114.89 25.266C114.77 24.966 114.596 24.708 114.368 24.492C114.152 24.276 113.888 24.108 113.576 23.988C113.276 23.856 112.946 23.79 112.586 23.79C112.226 23.79 111.896 23.856 111.596 23.988C111.296 24.108 111.038 24.276 110.822 24.492C110.606 24.708 110.432 24.966 110.3 25.266C110.18 25.554 110.12 25.872 110.12 26.22ZM123.874 23.142L123.064 24.222C123.052 24.21 123.01 24.18 122.938 24.132C122.866 24.084 122.77 24.036 122.65 23.988C122.542 23.94 122.41 23.898 122.254 23.862C122.11 23.814 121.96 23.79 121.804 23.79C121.6 23.79 121.396 23.838 121.192 23.934C121 24.03 120.904 24.21 120.904 24.474C120.904 24.702 120.982 24.888 121.138 25.032C121.306 25.176 121.51 25.308 121.75 25.428C121.99 25.536 122.248 25.65 122.524 25.77C122.812 25.89 123.076 26.04 123.316 26.22C123.556 26.388 123.754 26.604 123.91 26.868C124.078 27.12 124.162 27.444 124.162 27.84C124.162 28.512 123.928 29.07 123.46 29.514C123.004 29.946 122.374 30.162 121.57 30.162C121.102 30.162 120.64 30.084 120.184 29.928C119.74 29.76 119.38 29.52 119.104 29.208C119.188 29.124 119.278 29.016 119.374 28.884C119.482 28.752 119.584 28.626 119.68 28.506C119.788 28.386 119.872 28.29 119.932 28.218C120.004 28.134 120.046 28.092 120.058 28.092C120.058 28.104 120.1 28.14 120.184 28.2C120.28 28.26 120.4 28.326 120.544 28.398C120.688 28.458 120.85 28.518 121.03 28.578C121.21 28.626 121.39 28.65 121.57 28.65C121.858 28.65 122.104 28.578 122.308 28.434C122.512 28.29 122.614 28.098 122.614 27.858C122.614 27.642 122.53 27.474 122.362 27.354C122.206 27.222 122.008 27.102 121.768 26.994C121.528 26.886 121.264 26.778 120.976 26.67C120.688 26.55 120.424 26.4 120.184 26.22C119.944 26.04 119.74 25.818 119.572 25.554C119.416 25.278 119.338 24.924 119.338 24.492C119.338 24.084 119.41 23.742 119.554 23.466C119.71 23.19 119.902 22.968 120.13 22.8C120.37 22.62 120.634 22.494 120.922 22.422C121.21 22.338 121.486 22.296 121.75 22.296C122.098 22.296 122.47 22.368 122.866 22.512C123.262 22.656 123.598 22.866 123.874 23.142Z" fill="#FFFBFB"/>
</svg>
