<svg width="156" height="49" viewBox="0 0 156 49" fill="none" xmlns="http://www.w3.org/2000/svg">
<path d="M145.534 0H10C4.47715 0 0 4.47715 0 10V38.45C0 43.9728 4.47715 48.45 10 48.45H145.534C151.057 48.45 155.534 43.9728 155.534 38.45V10C155.534 4.47715 151.057 0 145.534 0Z" fill="#094B4B"/>
<path d="M50.9506 16.95H54.2266C55.5466 16.95 56.6626 17.148 57.5746 17.544C58.4866 17.94 59.2246 18.462 59.7886 19.11C60.3646 19.746 60.7786 20.466 61.0306 21.27C61.2946 22.062 61.4266 22.854 61.4266 23.646C61.4266 24.618 61.2526 25.5 60.9046 26.292C60.5566 27.072 60.0826 27.738 59.4826 28.29C58.8826 28.842 58.1866 29.268 57.3946 29.568C56.6026 29.856 55.7626 30 54.8746 30H50.9506V16.95ZM54.5866 28.128C55.2826 28.128 55.9246 28.026 56.5126 27.822C57.1126 27.618 57.6286 27.324 58.0606 26.94C58.5046 26.544 58.8466 26.064 59.0866 25.5C59.3386 24.924 59.4646 24.264 59.4646 23.52C59.4646 22.728 59.3266 22.038 59.0506 21.45C58.7746 20.862 58.4146 20.376 57.9706 19.992C57.5266 19.596 57.0226 19.308 56.4586 19.128C55.9066 18.936 55.3426 18.84 54.7666 18.84H52.9126V28.128H54.5866ZM68.0194 24.258C67.6834 24.258 67.3594 24.306 67.0474 24.402C66.7354 24.486 66.4534 24.618 66.2014 24.798C65.9614 24.978 65.7694 25.206 65.6254 25.482C65.4814 25.746 65.4094 26.052 65.4094 26.4V30H63.8794V22.476H65.2294C65.2534 22.848 65.2714 23.19 65.2834 23.502C65.3074 23.802 65.3314 24.102 65.3554 24.402C65.5114 24.078 65.7154 23.784 65.9674 23.52C66.2194 23.256 66.4894 23.034 66.7774 22.854C67.0654 22.674 67.3474 22.536 67.6234 22.44C67.8994 22.332 68.1454 22.278 68.3614 22.278L68.0194 24.258ZM69.7066 26.31C69.7066 25.758 69.8086 25.242 70.0126 24.762C70.2286 24.27 70.5166 23.844 70.8766 23.484C71.2366 23.112 71.6506 22.818 72.1186 22.602C72.5986 22.386 73.1086 22.278 73.6486 22.278C74.0086 22.278 74.3386 22.326 74.6386 22.422C74.9386 22.506 75.1966 22.614 75.4126 22.746C75.6286 22.878 75.8026 23.016 75.9346 23.16C76.0666 23.304 76.1566 23.43 76.2046 23.538L76.2766 22.476H77.7526V30H76.2046V29.046C76.1446 29.142 76.0486 29.256 75.9166 29.388C75.7846 29.52 75.6106 29.646 75.3946 29.766C75.1906 29.874 74.9446 29.97 74.6566 30.054C74.3686 30.138 74.0386 30.18 73.6666 30.18C73.0906 30.18 72.5566 30.078 72.0646 29.874C71.5846 29.658 71.1706 29.376 70.8226 29.028C70.4746 28.668 70.1986 28.254 69.9946 27.786C69.8026 27.318 69.7066 26.826 69.7066 26.31ZM71.2546 26.22C71.2546 26.568 71.3146 26.892 71.4346 27.192C71.5666 27.492 71.7406 27.75 71.9566 27.966C72.1726 28.182 72.4306 28.356 72.7306 28.488C73.0306 28.608 73.3606 28.668 73.7206 28.668C74.0806 28.668 74.4106 28.608 74.7106 28.488C75.0226 28.356 75.2866 28.182 75.5026 27.966C75.7306 27.738 75.9046 27.48 76.0246 27.192C76.1446 26.892 76.2046 26.568 76.2046 26.22C76.2046 25.872 76.1446 25.554 76.0246 25.266C75.9046 24.966 75.7306 24.708 75.5026 24.492C75.2866 24.276 75.0226 24.108 74.7106 23.988C74.4106 23.856 74.0806 23.79 73.7206 23.79C73.3606 23.79 73.0306 23.856 72.7306 23.988C72.4306 24.108 72.1726 24.276 71.9566 24.492C71.7406 24.708 71.5666 24.966 71.4346 25.266C71.3146 25.554 71.2546 25.872 71.2546 26.22ZM80.8142 22.476H82.1642C82.1882 22.848 82.2062 23.19 82.2182 23.502C82.2422 23.802 82.2662 24.102 82.2902 24.402C82.5662 23.754 82.9262 23.244 83.3702 22.872C83.8262 22.488 84.4322 22.29 85.1882 22.278C85.9202 22.278 86.5082 22.464 86.9522 22.836C87.3962 23.208 87.6542 23.694 87.7262 24.294C88.0262 23.682 88.3922 23.196 88.8242 22.836C89.2682 22.476 89.8622 22.29 90.6062 22.278C91.3862 22.278 91.9982 22.488 92.4422 22.908C92.8982 23.328 93.1382 23.868 93.1622 24.528V30H91.6142V25.23C91.5902 24.846 91.4582 24.522 91.2182 24.258C90.9902 23.982 90.6122 23.832 90.0842 23.808C89.3642 23.808 88.8002 24.042 88.3922 24.51C87.9842 24.966 87.7682 25.554 87.7442 26.274V30H86.2142V25.23C86.1902 24.846 86.0522 24.522 85.8002 24.258C85.5602 23.982 85.1882 23.832 84.6842 23.808C84.3242 23.808 84.0002 23.874 83.7122 24.006C83.4242 24.126 83.1782 24.294 82.9742 24.51C82.7702 24.726 82.6142 24.984 82.5062 25.284C82.3982 25.584 82.3442 25.914 82.3442 26.274V30H80.8142V22.476ZM95.6238 26.31C95.6238 25.758 95.7258 25.242 95.9298 24.762C96.1458 24.27 96.4338 23.844 96.7938 23.484C97.1538 23.112 97.5678 22.818 98.0358 22.602C98.5158 22.386 99.0258 22.278 99.5658 22.278C99.9258 22.278 100.256 22.326 100.556 22.422C100.856 22.506 101.114 22.614 101.33 22.746C101.546 22.878 101.72 23.016 101.852 23.16C101.984 23.304 102.074 23.43 102.122 23.538L102.194 22.476H103.67V30H102.122V29.046C102.062 29.142 101.966 29.256 101.834 29.388C101.702 29.52 101.528 29.646 101.312 29.766C101.108 29.874 100.862 29.97 100.574 30.054C100.286 30.138 99.9558 30.18 99.5838 30.18C99.0078 30.18 98.4738 30.078 97.9818 29.874C97.5018 29.658 97.0878 29.376 96.7398 29.028C96.3918 28.668 96.1158 28.254 95.9118 27.786C95.7198 27.318 95.6238 26.826 95.6238 26.31ZM97.1718 26.22C97.1718 26.568 97.2318 26.892 97.3518 27.192C97.4838 27.492 97.6578 27.75 97.8738 27.966C98.0898 28.182 98.3478 28.356 98.6478 28.488C98.9478 28.608 99.2778 28.668 99.6378 28.668C99.9978 28.668 100.328 28.608 100.628 28.488C100.94 28.356 101.204 28.182 101.42 27.966C101.648 27.738 101.822 27.48 101.942 27.192C102.062 26.892 102.122 26.568 102.122 26.22C102.122 25.872 102.062 25.554 101.942 25.266C101.822 24.966 101.648 24.708 101.42 24.492C101.204 24.276 100.94 24.108 100.628 23.988C100.328 23.856 99.9978 23.79 99.6378 23.79C99.2778 23.79 98.9478 23.856 98.6478 23.988C98.3478 24.108 98.0898 24.276 97.8738 24.492C97.6578 24.708 97.4838 24.966 97.3518 25.266C97.2318 25.554 97.1718 25.872 97.1718 26.22Z" fill="#FFFBFB"/>
</svg>
