<svg width="156" height="49" viewBox="0 0 156 49" fill="none" xmlns="http://www.w3.org/2000/svg">
<path d="M145.534 0H10C4.47715 0 0 4.47715 0 10V38.45C0 43.9728 4.47715 48.45 10 48.45H145.534C151.057 48.45 155.534 43.9728 155.534 38.45V10C155.534 4.47715 151.057 0 145.534 0Z" fill="#094B4B"/>
<path d="M54.0786 30V16.95H61.8906V18.768H56.0406V22.71H61.1526V24.546H56.0406V30H54.0786ZM63.8914 19.596C63.8914 19.308 63.9934 19.068 64.1974 18.876C64.4134 18.684 64.6414 18.588 64.8814 18.588C65.1214 18.588 65.3434 18.684 65.5474 18.876C65.7514 19.068 65.8534 19.308 65.8534 19.596C65.8534 19.884 65.7514 20.124 65.5474 20.316C65.3434 20.496 65.1214 20.586 64.8814 20.586C64.6414 20.586 64.4134 20.496 64.1974 20.316C63.9934 20.124 63.8914 19.884 63.8914 19.596ZM65.6194 30H64.0894V22.476H65.6194V30ZM73.7208 28.146C73.8888 28.35 74.0448 28.548 74.1888 28.74C74.3448 28.92 74.5008 29.112 74.6568 29.316C74.3208 29.58 73.9428 29.79 73.5228 29.946C73.1028 30.102 72.6468 30.18 72.1548 30.18C71.6028 30.18 71.0808 30.078 70.5888 29.874C70.1088 29.658 69.6888 29.37 69.3288 29.01C68.9688 28.65 68.6808 28.23 68.4648 27.75C68.2608 27.27 68.1588 26.76 68.1588 26.22C68.1588 25.68 68.2608 25.17 68.4648 24.69C68.6808 24.21 68.9688 23.796 69.3288 23.448C69.6888 23.088 70.1088 22.806 70.5888 22.602C71.0808 22.386 71.6028 22.278 72.1548 22.278C72.6588 22.278 73.1208 22.356 73.5408 22.512C73.9728 22.668 74.3628 22.878 74.7108 23.142L73.7208 24.312C73.5168 24.144 73.2828 24.018 73.0188 23.934C72.7548 23.838 72.4668 23.79 72.1548 23.79C71.7948 23.79 71.4648 23.856 71.1648 23.988C70.8648 24.108 70.6008 24.276 70.3728 24.492C70.1568 24.708 69.9888 24.966 69.8688 25.266C69.7488 25.554 69.6888 25.872 69.6888 26.22C69.6888 26.568 69.7488 26.892 69.8688 27.192C69.9888 27.48 70.1568 27.738 70.3728 27.966C70.6008 28.182 70.8648 28.356 71.1648 28.488C71.4648 28.608 71.7948 28.668 72.1548 28.668C72.4668 28.668 72.7548 28.626 73.0188 28.542C73.2828 28.446 73.5168 28.314 73.7208 28.146ZM81.8454 28.146C82.0134 28.35 82.1694 28.548 82.3134 28.74C82.4694 28.92 82.6254 29.112 82.7814 29.316C82.4574 29.58 82.0854 29.79 81.6654 29.946C81.2574 30.09 80.8194 30.168 80.3514 30.18C80.3514 30.348 80.3754 30.474 80.4234 30.558C80.4834 30.654 80.5494 30.732 80.6214 30.792C80.7054 30.864 80.7894 30.918 80.8734 30.954C80.9694 31.002 81.0534 31.056 81.1254 31.116C81.3774 31.308 81.5514 31.524 81.6474 31.764C81.7554 32.016 81.8094 32.304 81.8094 32.628C81.8094 32.88 81.7674 33.12 81.6834 33.348C81.5994 33.588 81.4734 33.804 81.3054 33.996C81.1494 34.188 80.9454 34.338 80.6934 34.446C80.4534 34.566 80.1714 34.626 79.8474 34.626C79.4274 34.626 79.0374 34.506 78.6774 34.266C78.3294 34.038 78.0714 33.684 77.9034 33.204C78.0594 33.132 78.2094 33.054 78.3534 32.97C78.5094 32.898 78.6594 32.82 78.8034 32.736C78.8634 32.928 78.9714 33.084 79.1274 33.204C79.2834 33.336 79.4754 33.402 79.7034 33.402C79.9914 33.402 80.2074 33.306 80.3514 33.114C80.5074 32.922 80.5854 32.688 80.5854 32.412C80.5854 32.172 80.5194 31.986 80.3874 31.854C80.2554 31.734 80.1114 31.614 79.9554 31.494C79.8114 31.386 79.6734 31.248 79.5414 31.08C79.4094 30.924 79.3434 30.696 79.3434 30.396V30.072C78.8994 29.964 78.4914 29.796 78.1194 29.568C77.7474 29.328 77.4234 29.04 77.1474 28.704C76.8834 28.356 76.6734 27.972 76.5174 27.552C76.3614 27.132 76.2834 26.688 76.2834 26.22C76.2834 25.68 76.3854 25.17 76.5894 24.69C76.8054 24.21 77.0934 23.796 77.4534 23.448C77.8134 23.088 78.2334 22.806 78.7134 22.602C79.2054 22.386 79.7274 22.278 80.2794 22.278C80.7834 22.278 81.2454 22.356 81.6654 22.512C82.0974 22.668 82.4874 22.878 82.8354 23.142L81.8454 24.312C81.6414 24.144 81.4074 24.018 81.1434 23.934C80.8794 23.838 80.5914 23.79 80.2794 23.79C79.9194 23.79 79.5894 23.856 79.2894 23.988C78.9894 24.108 78.7254 24.276 78.4974 24.492C78.2814 24.708 78.1134 24.966 77.9934 25.266C77.8734 25.554 77.8134 25.872 77.8134 26.22C77.8134 26.568 77.8734 26.892 77.9934 27.192C78.1134 27.48 78.2814 27.738 78.4974 27.966C78.7254 28.182 78.9894 28.356 79.2894 28.488C79.5894 28.608 79.9194 28.668 80.2794 28.668C80.5914 28.668 80.8794 28.626 81.1434 28.542C81.4074 28.446 81.6414 28.314 81.8454 28.146ZM84.408 26.31C84.408 25.758 84.51 25.242 84.714 24.762C84.93 24.27 85.218 23.844 85.578 23.484C85.938 23.112 86.352 22.818 86.82 22.602C87.3 22.386 87.81 22.278 88.35 22.278C88.71 22.278 89.04 22.326 89.34 22.422C89.64 22.506 89.898 22.614 90.114 22.746C90.33 22.878 90.504 23.016 90.636 23.16C90.768 23.304 90.858 23.43 90.906 23.538L90.978 22.476H92.454V30H90.906V29.046C90.846 29.142 90.75 29.256 90.618 29.388C90.486 29.52 90.312 29.646 90.096 29.766C89.892 29.874 89.646 29.97 89.358 30.054C89.07 30.138 88.74 30.18 88.368 30.18C87.792 30.18 87.258 30.078 86.766 29.874C86.286 29.658 85.872 29.376 85.524 29.028C85.176 28.668 84.9 28.254 84.696 27.786C84.504 27.318 84.408 26.826 84.408 26.31ZM85.956 26.22C85.956 26.568 86.016 26.892 86.136 27.192C86.268 27.492 86.442 27.75 86.658 27.966C86.874 28.182 87.132 28.356 87.432 28.488C87.732 28.608 88.062 28.668 88.422 28.668C88.782 28.668 89.112 28.608 89.412 28.488C89.724 28.356 89.988 28.182 90.204 27.966C90.432 27.738 90.606 27.48 90.726 27.192C90.846 26.892 90.906 26.568 90.906 26.22C90.906 25.872 90.846 25.554 90.726 25.266C90.606 24.966 90.432 24.708 90.204 24.492C89.988 24.276 89.724 24.108 89.412 23.988C89.112 23.856 88.782 23.79 88.422 23.79C88.062 23.79 87.732 23.856 87.432 23.988C87.132 24.108 86.874 24.276 86.658 24.492C86.442 24.708 86.268 24.966 86.136 25.266C86.016 25.554 85.956 25.872 85.956 26.22ZM88.332 21.252C88.14 21.072 87.978 20.952 87.846 20.892C87.714 20.82 87.564 20.784 87.396 20.784C87.228 20.784 87.036 20.838 86.82 20.946C86.604 21.054 86.478 21.276 86.442 21.612L85.56 21.558C85.572 21.306 85.632 21.078 85.74 20.874C85.848 20.67 85.98 20.496 86.136 20.352C86.304 20.208 86.484 20.1 86.676 20.028C86.868 19.944 87.06 19.902 87.252 19.902C87.54 19.902 87.798 19.956 88.026 20.064C88.254 20.172 88.464 20.322 88.656 20.514C88.848 20.694 89.01 20.814 89.142 20.874C89.286 20.934 89.442 20.964 89.61 20.964C89.694 20.964 89.784 20.952 89.88 20.928C89.988 20.904 90.084 20.862 90.168 20.802C90.264 20.742 90.348 20.658 90.42 20.55C90.492 20.442 90.54 20.304 90.564 20.136L91.428 20.19C91.416 20.442 91.356 20.67 91.248 20.874C91.14 21.066 91.002 21.234 90.834 21.378C90.678 21.522 90.504 21.636 90.312 21.72C90.12 21.792 89.934 21.828 89.754 21.828C89.478 21.828 89.22 21.78 88.98 21.684C88.752 21.576 88.536 21.432 88.332 21.252ZM94.9935 26.22C94.9935 25.68 95.0955 25.17 95.2995 24.69C95.5155 24.21 95.8035 23.796 96.1635 23.448C96.5235 23.088 96.9435 22.806 97.4235 22.602C97.9155 22.386 98.4435 22.278 99.0075 22.278C99.5715 22.278 100.094 22.386 100.574 22.602C101.066 22.806 101.486 23.088 101.834 23.448C102.194 23.796 102.47 24.21 102.662 24.69C102.866 25.17 102.968 25.68 102.968 26.22C102.968 26.76 102.866 27.27 102.662 27.75C102.47 28.23 102.194 28.65 101.834 29.01C101.486 29.37 101.066 29.658 100.574 29.874C100.094 30.078 99.5655 30.18 98.9895 30.18C98.4375 30.18 97.9155 30.084 97.4235 29.892C96.9435 29.7 96.5235 29.43 96.1635 29.082C95.8035 28.734 95.5155 28.32 95.2995 27.84C95.0955 27.348 94.9935 26.808 94.9935 26.22ZM96.5235 26.238C96.5235 26.574 96.5835 26.892 96.7035 27.192C96.8355 27.48 97.0095 27.738 97.2255 27.966C97.4535 28.182 97.7115 28.356 97.9995 28.488C98.2995 28.608 98.6175 28.668 98.9535 28.668C99.2895 28.668 99.6075 28.608 99.9075 28.488C100.208 28.356 100.466 28.182 100.682 27.966C100.91 27.738 101.09 27.48 101.222 27.192C101.354 26.892 101.42 26.574 101.42 26.238C101.42 25.902 101.354 25.584 101.222 25.284C101.09 24.984 100.91 24.726 100.682 24.51C100.466 24.282 100.208 24.108 99.9075 23.988C99.6075 23.856 99.2895 23.79 98.9535 23.79C98.6175 23.79 98.2995 23.856 97.9995 23.988C97.7115 24.108 97.4535 24.282 97.2255 24.51C97.0095 24.726 96.8355 24.984 96.7035 25.284C96.5835 25.584 96.5235 25.902 96.5235 26.238Z" fill="#FFFBFB"/>
</svg>
