<svg width="156" height="49" viewBox="0 0 156 49" fill="none" xmlns="http://www.w3.org/2000/svg">
<path d="M145.534 0H10C4.47715 0 0 4.47715 0 10V38.45C0 43.9728 4.47715 48.45 10 48.45H145.534C151.057 48.45 155.534 43.9728 155.534 38.45V10C155.534 4.47715 151.057 0 145.534 0Z" fill="#094B4B"/>
<path d="M31.7197 23.754V29.226C31.2157 29.514 30.6157 29.742 29.9197 29.91C29.2237 30.066 28.5157 30.144 27.7957 30.144C26.7637 30.144 25.8337 29.982 25.0057 29.658C24.1897 29.334 23.4877 28.89 22.8997 28.326C22.3117 27.75 21.8617 27.072 21.5497 26.292C21.2377 25.512 21.0817 24.66 21.0817 23.736C21.0817 22.716 21.2617 21.786 21.6217 20.946C21.9937 20.094 22.4917 19.362 23.1157 18.75C23.7517 18.138 24.4777 17.664 25.2937 17.328C26.1217 16.98 26.9977 16.806 27.9217 16.806C28.5457 16.806 29.1997 16.89 29.8837 17.058C30.5677 17.214 31.1617 17.442 31.6657 17.742L30.7117 19.344C30.5317 19.236 30.3217 19.14 30.0817 19.056C29.8537 18.972 29.6137 18.9 29.3617 18.84C29.1097 18.78 28.8577 18.738 28.6057 18.714C28.3537 18.678 28.1137 18.66 27.8857 18.66C27.2497 18.66 26.6377 18.786 26.0497 19.038C25.4617 19.29 24.9457 19.638 24.5017 20.082C24.0577 20.526 23.7037 21.048 23.4397 21.648C23.1757 22.248 23.0437 22.896 23.0437 23.592C23.0437 24.228 23.1577 24.828 23.3857 25.392C23.6257 25.956 23.9557 26.454 24.3757 26.886C24.7957 27.318 25.2997 27.66 25.8877 27.912C26.4757 28.164 27.1237 28.29 27.8317 28.29C28.1077 28.29 28.4317 28.266 28.8037 28.218C29.1877 28.158 29.5537 28.062 29.9017 27.93V25.446H27.3637V23.754H31.7197ZM34.2906 19.596C34.2906 19.308 34.3926 19.068 34.5966 18.876C34.8126 18.684 35.0406 18.588 35.2806 18.588C35.5206 18.588 35.7426 18.684 35.9466 18.876C36.1506 19.068 36.2526 19.308 36.2526 19.596C36.2526 19.884 36.1506 20.124 35.9466 20.316C35.7426 20.496 35.5206 20.586 35.2806 20.586C35.0406 20.586 34.8126 20.496 34.5966 20.316C34.3926 20.124 34.2906 19.884 34.2906 19.596ZM36.0186 30H34.4886V22.476H36.0186V30ZM47.126 26.256C47.126 26.82 47.03 27.342 46.838 27.822C46.646 28.302 46.376 28.716 46.028 29.064C45.68 29.412 45.26 29.688 44.768 29.892C44.288 30.084 43.76 30.18 43.184 30.18C42.884 30.18 42.596 30.144 42.32 30.072C42.056 30.012 41.81 29.928 41.582 29.82C41.354 29.7 41.156 29.574 40.988 29.442C40.82 29.298 40.694 29.154 40.61 29.01C40.61 29.07 40.61 29.136 40.61 29.208C40.622 29.268 40.628 29.328 40.628 29.388V30H39.08V16.014H40.628V23.574C40.724 23.43 40.85 23.286 41.006 23.142C41.174 22.986 41.366 22.848 41.582 22.728C41.81 22.596 42.062 22.488 42.338 22.404C42.614 22.32 42.92 22.278 43.256 22.278C43.832 22.278 44.354 22.374 44.822 22.566C45.302 22.746 45.71 23.01 46.046 23.358C46.394 23.694 46.658 24.108 46.838 24.6C47.03 25.092 47.126 25.644 47.126 26.256ZM45.452 26.22C45.452 25.872 45.398 25.554 45.29 25.266C45.182 24.966 45.026 24.708 44.822 24.492C44.618 24.276 44.372 24.108 44.084 23.988C43.796 23.856 43.472 23.79 43.112 23.79C42.752 23.79 42.416 23.856 42.104 23.988C41.804 24.108 41.546 24.276 41.33 24.492C41.114 24.708 40.94 24.966 40.808 25.266C40.688 25.554 40.628 25.872 40.628 26.22C40.628 26.568 40.688 26.892 40.808 27.192C40.94 27.492 41.114 27.75 41.33 27.966C41.546 28.182 41.804 28.356 42.104 28.488C42.416 28.608 42.752 28.668 43.112 28.668C43.472 28.668 43.796 28.608 44.084 28.488C44.372 28.356 44.618 28.182 44.822 27.966C45.026 27.738 45.182 27.48 45.29 27.192C45.398 26.892 45.452 26.568 45.452 26.22ZM49.5027 19.596C49.5027 19.308 49.6047 19.068 49.8087 18.876C50.0247 18.684 50.2527 18.588 50.4927 18.588C50.7327 18.588 50.9547 18.684 51.1587 18.876C51.3627 19.068 51.4647 19.308 51.4647 19.596C51.4647 19.884 51.3627 20.124 51.1587 20.316C50.9547 20.496 50.7327 20.586 50.4927 20.586C50.2527 20.586 50.0247 20.496 49.8087 20.316C49.6047 20.124 49.5027 19.884 49.5027 19.596ZM51.2307 30H49.7007V22.476H51.2307V30ZM65.7125 29.118C65.3525 29.442 64.9145 29.7 64.3985 29.892C63.8825 30.084 63.3545 30.18 62.8145 30.18C62.2625 30.18 61.7405 30.078 61.2485 29.874C60.7685 29.658 60.3485 29.376 59.9885 29.028C59.6285 28.668 59.3405 28.248 59.1245 27.768C58.9205 27.288 58.8185 26.778 58.8185 26.238C58.8185 25.698 58.9205 25.188 59.1245 24.708C59.3405 24.228 59.6285 23.808 59.9885 23.448C60.3485 23.088 60.7625 22.806 61.2305 22.602C61.7105 22.386 62.2205 22.278 62.7605 22.278C63.6125 22.278 64.3505 22.536 64.9745 23.052C65.6105 23.556 66.0665 24.222 66.3425 25.05C65.9705 25.182 65.5445 25.344 65.0645 25.536C64.5845 25.728 64.0865 25.932 63.5705 26.148C63.0545 26.352 62.5385 26.556 62.0225 26.76C61.5065 26.964 61.0265 27.15 60.5825 27.318C60.7865 27.726 61.0805 28.056 61.4645 28.308C61.8605 28.548 62.2985 28.668 62.7785 28.668C63.1025 28.668 63.4265 28.608 63.7505 28.488C64.0865 28.368 64.3565 28.206 64.5605 28.002L65.7125 29.118ZM64.4165 24.69C64.2725 24.39 64.0445 24.168 63.7325 24.024C63.4205 23.868 63.1025 23.79 62.7785 23.79C62.4305 23.79 62.1065 23.856 61.8065 23.988C61.5185 24.12 61.2665 24.3 61.0505 24.528C60.8345 24.744 60.6605 24.996 60.5285 25.284C60.4085 25.572 60.3485 25.866 60.3485 26.166C60.3485 26.226 60.3485 26.268 60.3485 26.292C60.3605 26.316 60.3665 26.334 60.3665 26.346C60.6785 26.226 61.0145 26.094 61.3745 25.95C61.7465 25.794 62.1125 25.644 62.4725 25.5C62.8325 25.344 63.1805 25.2 63.5165 25.068C63.8525 24.924 64.1525 24.798 64.4165 24.69ZM74.143 30V16.95H77.707C78.391 16.95 79.015 17.04 79.579 17.22C80.155 17.4 80.647 17.67 81.055 18.03C81.475 18.378 81.799 18.81 82.027 19.326C82.255 19.83 82.369 20.412 82.369 21.072C82.369 21.432 82.333 21.792 82.261 22.152C82.189 22.5 82.069 22.842 81.901 23.178C81.745 23.502 81.541 23.808 81.289 24.096C81.037 24.372 80.731 24.606 80.371 24.798C80.851 25.554 81.373 26.394 81.937 27.318C82.501 28.23 83.071 29.124 83.647 30H81.289C81.049 29.628 80.797 29.238 80.533 28.83C80.281 28.422 80.023 28.02 79.759 27.624C79.507 27.216 79.255 26.82 79.003 26.436C78.763 26.04 78.535 25.674 78.319 25.338H77.959H76.123V30H74.143ZM76.123 23.484H77.905C78.385 23.484 78.787 23.406 79.111 23.25C79.435 23.082 79.687 22.878 79.867 22.638C80.059 22.398 80.191 22.14 80.263 21.864C80.347 21.588 80.389 21.336 80.389 21.108C80.389 20.88 80.347 20.634 80.263 20.37C80.191 20.094 80.059 19.842 79.867 19.614C79.675 19.374 79.417 19.176 79.093 19.02C78.781 18.864 78.391 18.786 77.923 18.786H76.123V23.484ZM91.5102 29.118C91.1502 29.442 90.7122 29.7 90.1962 29.892C89.6802 30.084 89.1522 30.18 88.6122 30.18C88.0602 30.18 87.5382 30.078 87.0462 29.874C86.5662 29.658 86.1462 29.376 85.7862 29.028C85.4262 28.668 85.1382 28.248 84.9222 27.768C84.7182 27.288 84.6162 26.778 84.6162 26.238C84.6162 25.698 84.7182 25.188 84.9222 24.708C85.1382 24.228 85.4262 23.808 85.7862 23.448C86.1462 23.088 86.5602 22.806 87.0282 22.602C87.5082 22.386 88.0182 22.278 88.5582 22.278C89.4102 22.278 90.1482 22.536 90.7722 23.052C91.4082 23.556 91.8642 24.222 92.1402 25.05C91.7682 25.182 91.3422 25.344 90.8622 25.536C90.3822 25.728 89.8842 25.932 89.3682 26.148C88.8522 26.352 88.3362 26.556 87.8202 26.76C87.3042 26.964 86.8242 27.15 86.3802 27.318C86.5842 27.726 86.8782 28.056 87.2622 28.308C87.6582 28.548 88.0962 28.668 88.5762 28.668C88.9002 28.668 89.2242 28.608 89.5482 28.488C89.8842 28.368 90.1542 28.206 90.3582 28.002L91.5102 29.118ZM90.2142 24.69C90.0702 24.39 89.8422 24.168 89.5302 24.024C89.2182 23.868 88.9002 23.79 88.5762 23.79C88.2282 23.79 87.9042 23.856 87.6042 23.988C87.3162 24.12 87.0642 24.3 86.8482 24.528C86.6322 24.744 86.4582 24.996 86.3262 25.284C86.2062 25.572 86.1462 25.866 86.1462 26.166C86.1462 26.226 86.1462 26.268 86.1462 26.292C86.1582 26.316 86.1642 26.334 86.1642 26.346C86.4762 26.226 86.8122 26.094 87.1722 25.95C87.5442 25.794 87.9102 25.644 88.2702 25.5C88.6302 25.344 88.9782 25.2 89.3142 25.068C89.6502 24.924 89.9502 24.798 90.2142 24.69ZM97.1988 30.45C96.4908 29.106 95.8248 27.78 95.2008 26.472C94.5888 25.152 93.9408 23.82 93.2568 22.476H94.9308C95.3628 23.328 95.7048 24.024 95.9568 24.564C96.2208 25.104 96.4308 25.554 96.5868 25.914C96.7428 26.274 96.8628 26.58 96.9468 26.832C97.0308 27.072 97.1148 27.318 97.1988 27.57C97.2948 27.318 97.3848 27.072 97.4688 26.832C97.5648 26.58 97.6848 26.274 97.8288 25.914C97.9848 25.554 98.1888 25.104 98.4408 24.564C98.7048 24.024 99.0528 23.328 99.4848 22.476H101.159C100.475 23.82 99.8148 25.152 99.1788 26.472C98.5428 27.78 97.8828 29.106 97.1988 30.45ZM102.982 19.596C102.982 19.308 103.084 19.068 103.288 18.876C103.504 18.684 103.732 18.588 103.972 18.588C104.212 18.588 104.434 18.684 104.638 18.876C104.842 19.068 104.944 19.308 104.944 19.596C104.944 19.884 104.842 20.124 104.638 20.316C104.434 20.496 104.212 20.586 103.972 20.586C103.732 20.586 103.504 20.496 103.288 20.316C103.084 20.124 102.982 19.884 102.982 19.596ZM104.71 30H103.18V22.476H104.71V30ZM111.966 23.142L111.156 24.222C111.144 24.21 111.102 24.18 111.03 24.132C110.958 24.084 110.862 24.036 110.742 23.988C110.634 23.94 110.502 23.898 110.346 23.862C110.202 23.814 110.052 23.79 109.896 23.79C109.692 23.79 109.488 23.838 109.284 23.934C109.092 24.03 108.996 24.21 108.996 24.474C108.996 24.702 109.074 24.888 109.23 25.032C109.398 25.176 109.602 25.308 109.842 25.428C110.082 25.536 110.34 25.65 110.616 25.77C110.904 25.89 111.168 26.04 111.408 26.22C111.648 26.388 111.846 26.604 112.002 26.868C112.17 27.12 112.254 27.444 112.254 27.84C112.254 28.512 112.02 29.07 111.552 29.514C111.096 29.946 110.466 30.162 109.662 30.162C109.194 30.162 108.732 30.084 108.276 29.928C107.832 29.76 107.472 29.52 107.196 29.208C107.28 29.124 107.37 29.016 107.466 28.884C107.574 28.752 107.676 28.626 107.772 28.506C107.88 28.386 107.964 28.29 108.024 28.218C108.096 28.134 108.138 28.092 108.15 28.092C108.15 28.104 108.192 28.14 108.276 28.2C108.372 28.26 108.492 28.326 108.636 28.398C108.78 28.458 108.942 28.518 109.122 28.578C109.302 28.626 109.482 28.65 109.662 28.65C109.95 28.65 110.196 28.578 110.4 28.434C110.604 28.29 110.706 28.098 110.706 27.858C110.706 27.642 110.622 27.474 110.454 27.354C110.298 27.222 110.1 27.102 109.86 26.994C109.62 26.886 109.356 26.778 109.068 26.67C108.78 26.55 108.516 26.4 108.276 26.22C108.036 26.04 107.832 25.818 107.664 25.554C107.508 25.278 107.43 24.924 107.43 24.492C107.43 24.084 107.502 23.742 107.646 23.466C107.802 23.19 107.994 22.968 108.222 22.8C108.462 22.62 108.726 22.494 109.014 22.422C109.302 22.338 109.578 22.296 109.842 22.296C110.19 22.296 110.562 22.368 110.958 22.512C111.354 22.656 111.69 22.866 111.966 23.142ZM115.437 19.164H116.967V22.494H118.983V23.862H116.967V30H115.437V23.862H114.087V22.494H115.437V19.164ZM120.476 26.31C120.476 25.758 120.578 25.242 120.782 24.762C120.998 24.27 121.286 23.844 121.646 23.484C122.006 23.112 122.42 22.818 122.888 22.602C123.368 22.386 123.878 22.278 124.418 22.278C124.778 22.278 125.108 22.326 125.408 22.422C125.708 22.506 125.966 22.614 126.182 22.746C126.398 22.878 126.572 23.016 126.704 23.16C126.836 23.304 126.926 23.43 126.974 23.538L127.046 22.476H128.522V30H126.974V29.046C126.914 29.142 126.818 29.256 126.686 29.388C126.554 29.52 126.38 29.646 126.164 29.766C125.96 29.874 125.714 29.97 125.426 30.054C125.138 30.138 124.808 30.18 124.436 30.18C123.86 30.18 123.326 30.078 122.834 29.874C122.354 29.658 121.94 29.376 121.592 29.028C121.244 28.668 120.968 28.254 120.764 27.786C120.572 27.318 120.476 26.826 120.476 26.31ZM122.024 26.22C122.024 26.568 122.084 26.892 122.204 27.192C122.336 27.492 122.51 27.75 122.726 27.966C122.942 28.182 123.2 28.356 123.5 28.488C123.8 28.608 124.13 28.668 124.49 28.668C124.85 28.668 125.18 28.608 125.48 28.488C125.792 28.356 126.056 28.182 126.272 27.966C126.5 27.738 126.674 27.48 126.794 27.192C126.914 26.892 126.974 26.568 126.974 26.22C126.974 25.872 126.914 25.554 126.794 25.266C126.674 24.966 126.5 24.708 126.272 24.492C126.056 24.276 125.792 24.108 125.48 23.988C125.18 23.856 124.85 23.79 124.49 23.79C124.13 23.79 123.8 23.856 123.5 23.988C123.2 24.108 122.942 24.276 122.726 24.492C122.51 24.708 122.336 24.966 122.204 25.266C122.084 25.554 122.024 25.872 122.024 26.22ZM135.777 23.142L134.967 24.222C134.955 24.21 134.913 24.18 134.841 24.132C134.769 24.084 134.673 24.036 134.553 23.988C134.445 23.94 134.313 23.898 134.157 23.862C134.013 23.814 133.863 23.79 133.707 23.79C133.503 23.79 133.299 23.838 133.095 23.934C132.903 24.03 132.807 24.21 132.807 24.474C132.807 24.702 132.885 24.888 133.041 25.032C133.209 25.176 133.413 25.308 133.653 25.428C133.893 25.536 134.151 25.65 134.427 25.77C134.715 25.89 134.979 26.04 135.219 26.22C135.459 26.388 135.657 26.604 135.813 26.868C135.981 27.12 136.065 27.444 136.065 27.84C136.065 28.512 135.831 29.07 135.363 29.514C134.907 29.946 134.277 30.162 133.473 30.162C133.005 30.162 132.543 30.084 132.087 29.928C131.643 29.76 131.283 29.52 131.007 29.208C131.091 29.124 131.181 29.016 131.277 28.884C131.385 28.752 131.487 28.626 131.583 28.506C131.691 28.386 131.775 28.29 131.835 28.218C131.907 28.134 131.949 28.092 131.961 28.092C131.961 28.104 132.003 28.14 132.087 28.2C132.183 28.26 132.303 28.326 132.447 28.398C132.591 28.458 132.753 28.518 132.933 28.578C133.113 28.626 133.293 28.65 133.473 28.65C133.761 28.65 134.007 28.578 134.211 28.434C134.415 28.29 134.517 28.098 134.517 27.858C134.517 27.642 134.433 27.474 134.265 27.354C134.109 27.222 133.911 27.102 133.671 26.994C133.431 26.886 133.167 26.778 132.879 26.67C132.591 26.55 132.327 26.4 132.087 26.22C131.847 26.04 131.643 25.818 131.475 25.554C131.319 25.278 131.241 24.924 131.241 24.492C131.241 24.084 131.313 23.742 131.457 23.466C131.613 23.19 131.805 22.968 132.033 22.8C132.273 22.62 132.537 22.494 132.825 22.422C133.113 22.338 133.389 22.296 133.653 22.296C134.001 22.296 134.373 22.368 134.769 22.512C135.165 22.656 135.501 22.866 135.777 23.142Z" fill="#E5E5E5"/>
</svg>
