<svg width="156" height="49" viewBox="0 0 156 49" fill="none" xmlns="http://www.w3.org/2000/svg">
<path d="M145.534 0H10C4.47715 0 0 4.47715 0 10V38.45C0 43.9728 4.47715 48.45 10 48.45H145.534C151.057 48.45 155.534 43.9728 155.534 38.45V10C155.534 4.47715 151.057 0 145.534 0Z" fill="#094B4B"/>
<path d="M56.7335 8.4V10.064H53.8055V20H52.0615V10.064H49.1975V8.4H56.7335ZM62.9796 19.216C62.6596 19.504 62.2703 19.7333 61.8116 19.904C61.353 20.0747 60.8836 20.16 60.4036 20.16C59.913 20.16 59.449 20.0693 59.0116 19.888C58.585 19.696 58.2116 19.4453 57.8916 19.136C57.5716 18.816 57.3156 18.4427 57.1236 18.016C56.9423 17.5893 56.8516 17.136 56.8516 16.656C56.8516 16.176 56.9423 15.7227 57.1236 15.296C57.3156 14.8693 57.5716 14.496 57.8916 14.176C58.2116 13.856 58.5796 13.6053 58.9956 13.424C59.4223 13.232 59.8756 13.136 60.3556 13.136C61.113 13.136 61.769 13.3653 62.3236 13.824C62.889 14.272 63.2943 14.864 63.5396 15.6C63.209 15.7173 62.8303 15.8613 62.4036 16.032C61.977 16.2027 61.5343 16.384 61.0756 16.576C60.617 16.7573 60.1583 16.9387 59.6996 17.12C59.241 17.3013 58.8143 17.4667 58.4196 17.616C58.601 17.9787 58.8623 18.272 59.2036 18.496C59.5556 18.7093 59.945 18.816 60.3716 18.816C60.6596 18.816 60.9476 18.7627 61.2356 18.656C61.5343 18.5493 61.7743 18.4053 61.9556 18.224L62.9796 19.216ZM61.8276 15.28C61.6996 15.0133 61.497 14.816 61.2196 14.688C60.9423 14.5493 60.6596 14.48 60.3716 14.48C60.0623 14.48 59.7743 14.5387 59.5076 14.656C59.2516 14.7733 59.0276 14.9333 58.8356 15.136C58.6436 15.328 58.489 15.552 58.3716 15.808C58.265 16.064 58.2116 16.3253 58.2116 16.592C58.2116 16.6453 58.2116 16.6827 58.2116 16.704C58.2223 16.7253 58.2276 16.7413 58.2276 16.752C58.505 16.6453 58.8036 16.528 59.1236 16.4C59.4543 16.2613 59.7796 16.128 60.0996 16C60.4196 15.8613 60.729 15.7333 61.0276 15.616C61.3263 15.488 61.593 15.376 61.8276 15.28ZM69.1219 14.896C68.8232 14.896 68.5352 14.9387 68.2579 15.024C67.9805 15.0987 67.7299 15.216 67.5059 15.376C67.2925 15.536 67.1219 15.7387 66.9939 15.984C66.8659 16.2187 66.8019 16.4907 66.8019 16.8V20H65.4419V13.312H66.6419C66.6632 13.6427 66.6792 13.9467 66.6899 14.224C66.7112 14.4907 66.7325 14.7573 66.7539 15.024C66.8925 14.736 67.0739 14.4747 67.2979 14.24C67.5219 14.0053 67.7619 13.808 68.0179 13.648C68.2739 13.488 68.5245 13.3653 68.7699 13.28C69.0152 13.184 69.2339 13.136 69.4259 13.136L69.1219 14.896ZM74.8106 14.896C74.512 14.896 74.224 14.9387 73.9466 15.024C73.6693 15.0987 73.4186 15.216 73.1946 15.376C72.9813 15.536 72.8106 15.7387 72.6826 15.984C72.5546 16.2187 72.4906 16.4907 72.4906 16.8V20H71.1306V13.312H72.3306C72.352 13.6427 72.368 13.9467 72.3786 14.224C72.4 14.4907 72.4213 14.7573 72.4426 15.024C72.5813 14.736 72.7626 14.4747 72.9866 14.24C73.2106 14.0053 73.4506 13.808 73.7066 13.648C73.9626 13.488 74.2133 13.3653 74.4586 13.28C74.704 13.184 74.9226 13.136 75.1146 13.136L74.8106 14.896ZM76.2304 16.64C76.2304 16.16 76.321 15.7067 76.5024 15.28C76.6944 14.8533 76.9504 14.4853 77.2704 14.176C77.5904 13.856 77.9637 13.6053 78.3904 13.424C78.8277 13.232 79.297 13.136 79.7984 13.136C80.2997 13.136 80.7637 13.232 81.1904 13.424C81.6277 13.6053 82.001 13.856 82.3104 14.176C82.6304 14.4853 82.8757 14.8533 83.0464 15.28C83.2277 15.7067 83.3184 16.16 83.3184 16.64C83.3184 17.12 83.2277 17.5733 83.0464 18C82.8757 18.4267 82.6304 18.8 82.3104 19.12C82.001 19.44 81.6277 19.696 81.1904 19.888C80.7637 20.0693 80.2944 20.16 79.7824 20.16C79.2917 20.16 78.8277 20.0747 78.3904 19.904C77.9637 19.7333 77.5904 19.4933 77.2704 19.184C76.9504 18.8747 76.6944 18.5067 76.5024 18.08C76.321 17.6427 76.2304 17.1627 76.2304 16.64ZM77.5904 16.656C77.5904 16.9547 77.6437 17.2373 77.7504 17.504C77.8677 17.76 78.0224 17.9893 78.2144 18.192C78.417 18.384 78.6464 18.5387 78.9024 18.656C79.169 18.7627 79.4517 18.816 79.7504 18.816C80.049 18.816 80.3317 18.7627 80.5984 18.656C80.865 18.5387 81.0944 18.384 81.2864 18.192C81.489 17.9893 81.649 17.76 81.7664 17.504C81.8837 17.2373 81.9424 16.9547 81.9424 16.656C81.9424 16.3573 81.8837 16.0747 81.7664 15.808C81.649 15.5413 81.489 15.312 81.2864 15.12C81.0944 14.9173 80.865 14.7627 80.5984 14.656C80.3317 14.5387 80.049 14.48 79.7504 14.48C79.4517 14.48 79.169 14.5387 78.9024 14.656C78.6464 14.7627 78.417 14.9173 78.2144 15.12C78.0224 15.312 77.8677 15.5413 77.7504 15.808C77.6437 16.0747 77.5904 16.3573 77.5904 16.656ZM89.1725 14.896C88.8738 14.896 88.5858 14.9387 88.3085 15.024C88.0312 15.0987 87.7805 15.216 87.5565 15.376C87.3432 15.536 87.1725 15.7387 87.0445 15.984C86.9165 16.2187 86.8525 16.4907 86.8525 16.8V20H85.4925V13.312H86.6925C86.7138 13.6427 86.7298 13.9467 86.7405 14.224C86.7618 14.4907 86.7832 14.7573 86.8045 15.024C86.9432 14.736 87.1245 14.4747 87.3485 14.24C87.5725 14.0053 87.8125 13.808 88.0685 13.648C88.3245 13.488 88.5752 13.3653 88.8205 13.28C89.0658 13.184 89.2845 13.136 89.4765 13.136L89.1725 14.896ZM101.253 19.216C100.933 19.504 100.543 19.7333 100.085 19.904C99.6261 20.0747 99.1568 20.16 98.6768 20.16C98.1861 20.16 97.7221 20.0693 97.2847 19.888C96.8581 19.696 96.4847 19.4453 96.1647 19.136C95.8447 18.816 95.5887 18.4427 95.3967 18.016C95.2154 17.5893 95.1247 17.136 95.1247 16.656C95.1247 16.176 95.2154 15.7227 95.3967 15.296C95.5887 14.8693 95.8447 14.496 96.1647 14.176C96.4847 13.856 96.8527 13.6053 97.2687 13.424C97.6954 13.232 98.1487 13.136 98.6287 13.136C99.3861 13.136 100.042 13.3653 100.597 13.824C101.162 14.272 101.567 14.864 101.813 15.6C101.482 15.7173 101.103 15.8613 100.677 16.032C100.25 16.2027 99.8074 16.384 99.3488 16.576C98.8901 16.7573 98.4314 16.9387 97.9727 17.12C97.5141 17.3013 97.0874 17.4667 96.6927 17.616C96.8741 17.9787 97.1354 18.272 97.4767 18.496C97.8287 18.7093 98.2181 18.816 98.6448 18.816C98.9328 18.816 99.2208 18.7627 99.5087 18.656C99.8074 18.5493 100.047 18.4053 100.229 18.224L101.253 19.216ZM100.101 15.28C99.9728 15.0133 99.7701 14.816 99.4928 14.688C99.2154 14.5493 98.9328 14.48 98.6448 14.48C98.3354 14.48 98.0474 14.5387 97.7808 14.656C97.5247 14.7733 97.3007 14.9333 97.1087 15.136C96.9167 15.328 96.7621 15.552 96.6447 15.808C96.5381 16.064 96.4847 16.3253 96.4847 16.592C96.4847 16.6453 96.4847 16.6827 96.4847 16.704C96.4954 16.7253 96.5007 16.7413 96.5007 16.752C96.7781 16.6453 97.0767 16.528 97.3967 16.4C97.7274 16.2613 98.0528 16.128 98.3728 16C98.6927 15.8613 99.0021 15.7333 99.3008 15.616C99.5994 15.488 99.8661 15.376 100.101 15.28ZM53.2784 26.04L52.6544 27.464C52.217 27.304 51.7797 27.176 51.3424 27.08C50.9157 26.984 50.505 26.936 50.1104 26.936C49.4384 26.936 48.8997 27.0747 48.4944 27.352C48.0997 27.6293 47.9024 27.9813 47.9024 28.408C47.9024 28.7707 48.0464 29.064 48.3344 29.288C48.6224 29.5013 48.9797 29.6987 49.4064 29.88C49.833 30.0507 50.297 30.2267 50.7984 30.408C51.2997 30.5787 51.7637 30.8027 52.1904 31.08C52.617 31.3573 52.9744 31.7093 53.2624 32.136C53.5504 32.552 53.6944 33.0907 53.6944 33.752C53.6944 34.264 53.5984 34.728 53.4064 35.144C53.225 35.5493 52.9477 35.9013 52.5744 36.2C52.2117 36.4987 51.753 36.728 51.1984 36.888C50.6544 37.048 50.0144 37.128 49.2784 37.128C48.809 37.128 48.3824 37.096 47.9984 37.032C47.625 36.968 47.2837 36.888 46.9744 36.792C46.6757 36.6853 46.409 36.5733 46.1744 36.456C45.9504 36.3387 45.7584 36.232 45.5984 36.136L46.3664 34.616C46.793 34.8613 47.2677 35.0587 47.7904 35.208C48.313 35.3573 48.7877 35.432 49.2144 35.432C49.4277 35.432 49.689 35.4053 49.9984 35.352C50.3184 35.2987 50.6224 35.208 50.9104 35.08C51.1984 34.9413 51.4437 34.76 51.6464 34.536C51.8597 34.312 51.9664 34.0293 51.9664 33.688C51.9664 33.3787 51.881 33.1173 51.7104 32.904C51.5504 32.68 51.3317 32.488 51.0544 32.328C50.7877 32.1573 50.4784 32.008 50.1264 31.88C49.785 31.7413 49.433 31.6027 49.0704 31.464C48.7077 31.3147 48.3504 31.16 47.9984 31C47.657 30.84 47.3477 30.648 47.0704 30.424C46.8037 30.1893 46.585 29.9227 46.4144 29.624C46.2544 29.3147 46.1744 28.9467 46.1744 28.52C46.1744 28.1253 46.2544 27.736 46.4144 27.352C46.5744 26.968 46.8144 26.6267 47.1344 26.328C47.4544 26.0293 47.849 25.7893 48.3184 25.608C48.7984 25.4267 49.353 25.336 49.9824 25.336C50.3664 25.336 50.7397 25.368 51.1024 25.432C51.4757 25.496 51.8117 25.5707 52.1104 25.656C52.409 25.7307 52.6597 25.8053 52.8624 25.88C53.0757 25.9547 53.2144 26.008 53.2784 26.04ZM62.0403 37.144H60.8882L60.7283 35.288C60.4829 35.832 60.1363 36.28 59.6883 36.632C59.2509 36.984 58.6909 37.16 58.0082 37.16C57.3256 37.16 56.7816 36.9787 56.3762 36.616C55.9816 36.2427 55.7736 35.7573 55.7522 35.16V30.312H57.1122V34.552C57.1336 34.8827 57.2509 35.1653 57.4642 35.4C57.6882 35.6347 58.0296 35.768 58.4883 35.8C58.8082 35.8 59.1016 35.7467 59.3682 35.64C59.6349 35.5227 59.8643 35.368 60.0563 35.176C60.2483 34.984 60.3976 34.7547 60.5043 34.488C60.6109 34.2213 60.6642 33.928 60.6642 33.608V30.312H62.0403V37.144ZM68.4049 30.904L67.6849 31.864C67.6742 31.8533 67.6369 31.8267 67.5729 31.784C67.5089 31.7413 67.4235 31.6987 67.3169 31.656C67.2209 31.6133 67.1035 31.576 66.9649 31.544C66.8369 31.5013 66.7035 31.48 66.5649 31.48C66.3835 31.48 66.2022 31.5227 66.0209 31.608C65.8502 31.6933 65.7649 31.8533 65.7649 32.088C65.7649 32.2907 65.8342 32.456 65.9729 32.584C66.1222 32.712 66.3035 32.8293 66.5169 32.936C66.7302 33.032 66.9595 33.1333 67.2049 33.24C67.4609 33.3467 67.6955 33.48 67.9089 33.64C68.1222 33.7893 68.2982 33.9813 68.4369 34.216C68.5862 34.44 68.6609 34.728 68.6609 35.08C68.6609 35.6773 68.4529 36.1733 68.0369 36.568C67.6315 36.952 67.0715 37.144 66.3569 37.144C65.9409 37.144 65.5302 37.0747 65.1249 36.936C64.7302 36.7867 64.4102 36.5733 64.1649 36.296C64.2395 36.2213 64.3195 36.1253 64.4049 36.008C64.5009 35.8907 64.5915 35.7787 64.6769 35.672C64.7729 35.5653 64.8475 35.48 64.9009 35.416C64.9649 35.3413 65.0022 35.304 65.0129 35.304C65.0129 35.3147 65.0502 35.3467 65.1249 35.4C65.2102 35.4533 65.3169 35.512 65.4449 35.576C65.5729 35.6293 65.7169 35.6827 65.8769 35.736C66.0369 35.7787 66.1969 35.8 66.3569 35.8C66.6129 35.8 66.8315 35.736 67.0129 35.608C67.1942 35.48 67.2849 35.3093 67.2849 35.096C67.2849 34.904 67.2102 34.7547 67.0609 34.648C66.9222 34.5307 66.7462 34.424 66.5329 34.328C66.3195 34.232 66.0849 34.136 65.8289 34.04C65.5729 33.9333 65.3382 33.8 65.1249 33.64C64.9115 33.48 64.7302 33.2827 64.5809 33.048C64.4422 32.8027 64.3729 32.488 64.3729 32.104C64.3729 31.7413 64.4369 31.4373 64.5649 31.192C64.7035 30.9467 64.8742 30.7493 65.0769 30.6C65.2902 30.44 65.5249 30.328 65.7809 30.264C66.0369 30.1893 66.2822 30.152 66.5169 30.152C66.8262 30.152 67.1569 30.216 67.5089 30.344C67.8609 30.472 68.1595 30.6587 68.4049 30.904ZM76.4984 33.64C76.4984 33.3307 76.4504 33.048 76.3544 32.792C76.2584 32.5253 76.1197 32.296 75.9384 32.104C75.757 31.912 75.5384 31.7627 75.2824 31.656C75.0264 31.5387 74.7384 31.48 74.4184 31.48C74.0984 31.48 73.7997 31.5387 73.5224 31.656C73.2557 31.7627 73.0264 31.912 72.8344 32.104C72.6424 32.296 72.4877 32.5253 72.3704 32.792C72.2637 33.048 72.2104 33.3307 72.2104 33.64C72.2104 33.9493 72.2637 34.2373 72.3704 34.504C72.4877 34.7707 72.6424 35 72.8344 35.192C73.0264 35.384 73.2557 35.5387 73.5224 35.656C73.7997 35.7627 74.0984 35.816 74.4184 35.816C74.7384 35.816 75.0264 35.7627 75.2824 35.656C75.5384 35.5387 75.757 35.384 75.9384 35.192C76.1197 34.9893 76.2584 34.76 76.3544 34.504C76.4504 34.2373 76.4984 33.9493 76.4984 33.64ZM77.9864 33.672C77.9864 34.1733 77.901 34.6373 77.7304 35.064C77.5597 35.4907 77.3197 35.8587 77.0104 36.168C76.701 36.4773 76.3277 36.7227 75.8904 36.904C75.4637 37.0747 74.9944 37.16 74.4824 37.16C74.2157 37.16 73.9597 37.128 73.7144 37.064C73.4797 37.0107 73.261 36.936 73.0584 36.84C72.8557 36.7333 72.6797 36.6213 72.5304 36.504C72.381 36.376 72.269 36.248 72.1944 36.12C72.1944 36.1733 72.1944 36.232 72.1944 36.296C72.205 36.3493 72.2104 36.4027 72.2104 36.456V40.216H70.8344V30.312H72.1624C72.1624 30.44 72.1677 30.6 72.1784 30.792C72.1997 30.9733 72.2104 31.1387 72.2104 31.288C72.2957 31.16 72.4077 31.032 72.5464 30.904C72.6957 30.7653 72.8664 30.6427 73.0584 30.536C73.261 30.4187 73.485 30.3227 73.7304 30.248C73.9757 30.1733 74.2477 30.136 74.5464 30.136C75.0584 30.136 75.5224 30.2213 75.9384 30.392C76.365 30.552 76.7277 30.7867 77.0264 31.096C77.3357 31.3947 77.5704 31.7627 77.7304 32.2C77.901 32.6373 77.9864 33.128 77.9864 33.672ZM85.859 36.216C85.539 36.504 85.1497 36.7333 84.691 36.904C84.2323 37.0747 83.763 37.16 83.283 37.16C82.7923 37.16 82.3283 37.0693 81.891 36.888C81.4643 36.696 81.091 36.4453 80.771 36.136C80.451 35.816 80.195 35.4427 80.003 35.016C79.8217 34.5893 79.731 34.136 79.731 33.656C79.731 33.176 79.8217 32.7227 80.003 32.296C80.195 31.8693 80.451 31.496 80.771 31.176C81.091 30.856 81.459 30.6053 81.875 30.424C82.3017 30.232 82.755 30.136 83.235 30.136C83.9923 30.136 84.6483 30.3653 85.203 30.824C85.7683 31.272 86.1737 31.864 86.419 32.6C86.0883 32.7173 85.7097 32.8613 85.283 33.032C84.8563 33.2027 84.4137 33.384 83.955 33.576C83.4963 33.7573 83.0377 33.9387 82.579 34.12C82.1203 34.3013 81.6937 34.4667 81.299 34.616C81.4803 34.9787 81.7417 35.272 82.083 35.496C82.435 35.7093 82.8243 35.816 83.251 35.816C83.539 35.816 83.827 35.7627 84.115 35.656C84.4137 35.5493 84.6537 35.4053 84.835 35.224L85.859 36.216ZM84.707 32.28C84.579 32.0133 84.3763 31.816 84.099 31.688C83.8217 31.5493 83.539 31.48 83.251 31.48C82.9417 31.48 82.6537 31.5387 82.387 31.656C82.131 31.7733 81.907 31.9333 81.715 32.136C81.523 32.328 81.3683 32.552 81.251 32.808C81.1443 33.064 81.091 33.3253 81.091 33.592C81.091 33.6453 81.091 33.6827 81.091 33.704C81.1017 33.7253 81.107 33.7413 81.107 33.752C81.3843 33.6453 81.683 33.528 82.003 33.4C82.3337 33.2613 82.659 33.128 82.979 33C83.299 32.8613 83.6083 32.7333 83.907 32.616C84.2057 32.488 84.4723 32.376 84.707 32.28ZM88.3212 30.312H89.5212C89.5426 30.6427 89.5586 30.9467 89.5692 31.224C89.5906 31.4907 89.6119 31.7573 89.6332 32.024C89.8786 31.448 90.2252 30.9893 90.6732 30.648C91.1319 30.3067 91.6919 30.136 92.3532 30.136C93.0252 30.136 93.5639 30.3227 93.9692 30.696C94.3746 31.0693 94.5879 31.5493 94.6092 32.136V37H93.2332V32.76C93.2119 32.4187 93.0946 32.1307 92.8812 31.896C92.6679 31.6507 92.3319 31.5173 91.8732 31.496C91.5532 31.496 91.2599 31.5547 90.9932 31.672C90.7266 31.7787 90.4972 31.928 90.3052 32.12C90.1132 32.312 89.9586 32.5413 89.8412 32.808C89.7346 33.0747 89.6812 33.368 89.6812 33.688V37H88.3212V30.312ZM100.91 30.904L100.19 31.864C100.179 31.8533 100.142 31.8267 100.078 31.784C100.014 31.7413 99.9285 31.6987 99.8219 31.656C99.7259 31.6133 99.6085 31.576 99.4699 31.544C99.3419 31.5013 99.2085 31.48 99.0699 31.48C98.8885 31.48 98.7072 31.5227 98.5259 31.608C98.3552 31.6933 98.2699 31.8533 98.2699 32.088C98.2699 32.2907 98.3392 32.456 98.4779 32.584C98.6272 32.712 98.8085 32.8293 99.0219 32.936C99.2352 33.032 99.4645 33.1333 99.7099 33.24C99.9659 33.3467 100.201 33.48 100.414 33.64C100.627 33.7893 100.803 33.9813 100.942 34.216C101.091 34.44 101.166 34.728 101.166 35.08C101.166 35.6773 100.958 36.1733 100.542 36.568C100.137 36.952 99.5765 37.144 98.8619 37.144C98.4459 37.144 98.0352 37.0747 97.6299 36.936C97.2352 36.7867 96.9152 36.5733 96.6699 36.296C96.7445 36.2213 96.8245 36.1253 96.9099 36.008C97.0059 35.8907 97.0965 35.7787 97.1819 35.672C97.2779 35.5653 97.3525 35.48 97.4059 35.416C97.4699 35.3413 97.5072 35.304 97.5179 35.304C97.5179 35.3147 97.5552 35.3467 97.6299 35.4C97.7152 35.4533 97.8219 35.512 97.9499 35.576C98.0779 35.6293 98.2219 35.6827 98.3819 35.736C98.5419 35.7787 98.7019 35.8 98.8619 35.8C99.1179 35.8 99.3365 35.736 99.5179 35.608C99.6992 35.48 99.7899 35.3093 99.7899 35.096C99.7899 34.904 99.7152 34.7547 99.5659 34.648C99.4272 34.5307 99.2512 34.424 99.0379 34.328C98.8245 34.232 98.5899 34.136 98.3339 34.04C98.0779 33.9333 97.8432 33.8 97.6299 33.64C97.4165 33.48 97.2352 33.2827 97.0859 33.048C96.9472 32.8027 96.8779 32.488 96.8779 32.104C96.8779 31.7413 96.9419 31.4373 97.0699 31.192C97.2085 30.9467 97.3792 30.7493 97.5819 30.6C97.7952 30.44 98.0299 30.328 98.2859 30.264C98.5419 30.1893 98.7872 30.152 99.0219 30.152C99.3312 30.152 99.6619 30.216 100.014 30.344C100.366 30.472 100.665 30.6587 100.91 30.904ZM109.003 36.216C108.683 36.504 108.294 36.7333 107.835 36.904C107.377 37.0747 106.907 37.16 106.427 37.16C105.937 37.16 105.473 37.0693 105.035 36.888C104.609 36.696 104.235 36.4453 103.915 36.136C103.595 35.816 103.339 35.4427 103.147 35.016C102.966 34.5893 102.875 34.136 102.875 33.656C102.875 33.176 102.966 32.7227 103.147 32.296C103.339 31.8693 103.595 31.496 103.915 31.176C104.235 30.856 104.603 30.6053 105.019 30.424C105.446 30.232 105.899 30.136 106.379 30.136C107.137 30.136 107.793 30.3653 108.347 30.824C108.913 31.272 109.318 31.864 109.563 32.6C109.233 32.7173 108.854 32.8613 108.427 33.032C108.001 33.2027 107.558 33.384 107.099 33.576C106.641 33.7573 106.182 33.9387 105.723 34.12C105.265 34.3013 104.838 34.4667 104.443 34.616C104.625 34.9787 104.886 35.272 105.227 35.496C105.579 35.7093 105.969 35.816 106.395 35.816C106.683 35.816 106.971 35.7627 107.259 35.656C107.558 35.5493 107.798 35.4053 107.979 35.224L109.003 36.216ZM107.851 32.28C107.723 32.0133 107.521 31.816 107.243 31.688C106.966 31.5493 106.683 31.48 106.395 31.48C106.086 31.48 105.798 31.5387 105.531 31.656C105.275 31.7733 105.051 31.9333 104.859 32.136C104.667 32.328 104.513 32.552 104.395 32.808C104.289 33.064 104.235 33.3253 104.235 33.592C104.235 33.6453 104.235 33.6827 104.235 33.704C104.246 33.7253 104.251 33.7413 104.251 33.752C104.529 33.6453 104.827 33.528 105.147 33.4C105.478 33.2613 105.803 33.128 106.123 33C106.443 32.8613 106.753 32.7333 107.051 32.616C107.35 32.488 107.617 32.376 107.851 32.28Z" fill="#FFFBFB"/>
</svg>
