<svg width="176" height="45" viewBox="0 0 176 45" fill="none" xmlns="http://www.w3.org/2000/svg">
<path d="M156.096 0H20.5619C15.039 0 10.5619 4.47715 10.5619 10V34.46C10.5619 39.9828 15.039 44.46 20.5619 44.46H156.096C161.619 44.46 166.096 39.9828 166.096 34.46V10C166.096 4.47715 161.619 0 156.096 0Z" fill="#FFE81A"/>
<path d="M69.3558 15.1658C69.3558 15.5324 69.2859 15.8989 69.1463 16.2655C69.0067 16.6276 68.7863 16.9527 68.4852 17.2407C68.1841 17.5287 67.7914 17.7644 67.307 17.9476C66.827 18.1265 66.2488 18.216 65.5725 18.216C64.8918 18.216 64.259 18.1331 63.6743 17.9673C63.0896 17.8015 62.5987 17.616 62.2016 17.4109C62.1798 16.9571 62.1841 16.4815 62.2147 15.984C62.2496 15.4822 62.2998 15.0349 62.3652 14.6422H63.5892L63.8445 16.2851C63.8576 16.3767 63.8838 16.464 63.923 16.5469C63.9623 16.6255 64.0234 16.7018 64.1063 16.776C64.2503 16.9113 64.4598 17.04 64.7347 17.1622C65.0096 17.28 65.315 17.3389 65.651 17.3389C66.1485 17.3389 66.5325 17.208 66.803 16.9462C67.0779 16.68 67.2154 16.3265 67.2154 15.8858C67.2154 15.5978 67.1565 15.3447 67.0387 15.1265C66.9252 14.9084 66.7681 14.712 66.5674 14.5375C66.371 14.3629 66.1354 14.2015 65.8605 14.0531C65.5899 13.9004 65.2976 13.7455 64.9834 13.5884C64.6518 13.4182 64.3245 13.2436 64.0016 13.0647C63.6787 12.8815 63.3928 12.6742 63.1441 12.4429C62.8954 12.2073 62.6925 11.9324 62.5354 11.6182C62.3827 11.2996 62.3063 10.9244 62.3063 10.4924C62.3063 10.0778 62.3805 9.69164 62.5288 9.33382C62.6816 8.976 62.9063 8.66836 63.203 8.41091C63.5041 8.15345 63.8794 7.95273 64.3288 7.80873C64.7783 7.66036 65.3019 7.58618 65.8998 7.58618C66.4059 7.58618 66.9165 7.63636 67.4314 7.73673C67.9507 7.83709 68.3979 7.968 68.7732 8.12945C68.8038 8.56145 68.8059 9.00218 68.7798 9.45164C68.7579 9.90109 68.7143 10.3287 68.6488 10.7345H67.4576L67.1892 9.30109C67.1674 9.18764 67.1347 9.09164 67.091 9.01309C67.0518 8.93018 66.9907 8.856 66.9078 8.79055C66.7856 8.69455 66.6154 8.61382 66.3972 8.54836C66.1834 8.48291 65.963 8.45018 65.7361 8.45018C65.2867 8.45018 64.9376 8.568 64.6888 8.80364C64.4445 9.03927 64.3223 9.35782 64.3223 9.75927C64.3223 10.0255 64.3725 10.2567 64.4728 10.4531C64.5776 10.6495 64.7259 10.8284 64.9179 10.9898C65.1099 11.1513 65.3456 11.3084 65.6248 11.4611C65.9041 11.6138 66.2205 11.7775 66.5739 11.952C66.9405 12.1353 67.2918 12.3295 67.6278 12.5345C67.9681 12.7396 68.2648 12.9687 68.5179 13.2218C68.771 13.4749 68.9739 13.7607 69.1267 14.0793C69.2794 14.3978 69.3558 14.76 69.3558 15.1658ZM70.5592 14.3345C70.5592 13.6189 70.6552 13.008 70.8472 12.5018C71.0436 11.9913 71.3098 11.5789 71.6458 11.2647C71.9861 10.9505 72.3876 10.7215 72.8501 10.5775C73.3127 10.4291 73.8079 10.3549 74.3359 10.3549C75.4836 10.3549 76.365 10.6822 76.9803 11.3367C77.5956 11.9869 77.9032 12.9404 77.9032 14.1971C77.9032 14.9127 77.805 15.5236 77.6087 16.0298C77.4167 16.536 77.1505 16.9462 76.8101 17.2604C76.4741 17.5745 76.0748 17.8036 75.6123 17.9476C75.1498 18.0916 74.6523 18.1636 74.1199 18.1636C72.9723 18.1636 72.0908 17.8385 71.4756 17.1884C70.8647 16.5382 70.5592 15.5869 70.5592 14.3345ZM75.6843 14.3542C75.6843 13.2938 75.5774 12.5149 75.3636 12.0175C75.1541 11.5156 74.7636 11.2647 74.1919 11.2647C73.7163 11.2647 73.3607 11.4829 73.125 11.9193C72.8894 12.3556 72.7716 13.1062 72.7716 14.1709C72.7716 15.2269 72.8763 16.0058 73.0858 16.5076C73.2996 17.0095 73.6945 17.2604 74.2705 17.2604C74.7461 17.2604 75.0996 17.0422 75.3308 16.6058C75.5665 16.1651 75.6843 15.4145 75.6843 14.3542ZM82.4207 18.1505C82.1371 18.1505 81.8513 18.1331 81.5633 18.0982C81.2796 18.0676 81.0113 18.0284 80.7582 17.9804C80.5095 17.928 80.2804 17.8713 80.0709 17.8102C79.8615 17.7491 79.6913 17.6902 79.5604 17.6335V7.95927C79.5604 7.85018 79.532 7.76509 79.4753 7.704C79.4229 7.63855 79.3465 7.59709 79.2462 7.57964L78.356 7.44218V6.61745C78.5742 6.56073 78.8098 6.50836 79.0629 6.46036C79.3204 6.41236 79.58 6.37091 79.8418 6.336C80.1036 6.30109 80.3611 6.27491 80.6142 6.25746C80.8716 6.23564 81.1095 6.22473 81.3276 6.22473L81.6025 6.48V11.1927C81.86 10.9309 82.1655 10.7258 82.5189 10.5775C82.8724 10.4291 83.2629 10.3549 83.6905 10.3549C84.0876 10.3549 84.4585 10.4247 84.8033 10.5644C85.1524 10.6996 85.4513 10.9113 85.7 11.1993C85.9531 11.4873 86.1516 11.856 86.2956 12.3055C86.444 12.7549 86.5182 13.2873 86.5182 13.9025C86.5182 14.5658 86.4287 15.1615 86.2498 15.6895C86.0709 16.2175 85.8091 16.6625 85.4644 17.0247C85.124 17.3869 84.6964 17.6662 84.1815 17.8625C83.6709 18.0545 83.084 18.1505 82.4207 18.1505ZM82.5647 17.2931C83.1364 17.2931 83.5727 17.0575 83.8738 16.5862C84.1793 16.1105 84.3385 15.3535 84.3516 14.3149C84.3647 13.2895 84.2316 12.5804 83.9524 12.1876C83.6731 11.7949 83.2825 11.5985 82.7807 11.5985C82.5669 11.5985 82.3596 11.6291 82.1589 11.6902C81.9625 11.7513 81.7771 11.8385 81.6025 11.952V17.0575C81.7291 17.1273 81.8709 17.184 82.028 17.2276C82.1851 17.2713 82.364 17.2931 82.5647 17.2931ZM92.2973 17.1622V18H87.6762V17.1556L88.4158 17.0247C88.5206 17.0073 88.6013 16.968 88.658 16.9069C88.7147 16.8415 88.7431 16.7542 88.7431 16.6451V12.1615C88.7431 12.0524 88.7169 11.9629 88.6646 11.8931C88.6166 11.8189 88.538 11.7731 88.4289 11.7556L87.5976 11.5985V10.7476C87.9904 10.6298 88.4158 10.5404 88.874 10.4793C89.3322 10.4138 89.7555 10.3789 90.1438 10.3745L90.4646 10.6364L90.6806 11.9062C90.9686 11.4524 91.3155 11.0815 91.7213 10.7935C92.1271 10.5011 92.5482 10.3549 92.9846 10.3549C93.1242 10.3549 93.2966 10.3745 93.5016 10.4138C93.7067 10.4487 93.8638 10.4945 93.9729 10.5513C93.9947 10.7389 94.0056 10.9462 94.0056 11.1731C94.01 11.4 94.0035 11.6335 93.986 11.8735C93.9729 12.1135 93.9489 12.3578 93.914 12.6065C93.8835 12.8553 93.8442 13.0909 93.7962 13.3135H92.8733L92.6573 12.4625C92.6136 12.3098 92.5547 12.2073 92.4806 12.1549C92.4064 12.1025 92.2995 12.0764 92.1598 12.0764C91.9547 12.072 91.73 12.1135 91.4856 12.2007C91.2456 12.288 91.0122 12.432 90.7853 12.6327V16.6451C90.7853 16.7542 90.8136 16.8415 90.8704 16.9069C90.9271 16.9724 91.01 17.0116 91.1191 17.0247L92.2973 17.1622ZM98.2971 11.2516C97.9437 11.2516 97.6513 11.3913 97.4201 11.6705C97.1931 11.9498 97.047 12.4255 96.9815 13.0975H99.4622C99.4666 13.0538 99.4688 13.008 99.4688 12.96C99.4688 12.912 99.4688 12.8575 99.4688 12.7964C99.4688 12.3469 99.3706 11.9782 99.1742 11.6902C98.9822 11.3978 98.6899 11.2516 98.2971 11.2516ZM101.328 16.3702C101.153 16.9375 100.795 17.3782 100.254 17.6924C99.7131 18.0065 99.0564 18.1636 98.2841 18.1636C97.695 18.1636 97.1822 18.072 96.7459 17.8887C96.3139 17.7055 95.9561 17.448 95.6724 17.1164C95.3888 16.7847 95.1771 16.3833 95.0375 15.912C94.9022 15.4407 94.8346 14.9171 94.8346 14.3411C94.8346 13.0625 95.1553 12.0807 95.7968 11.3956C96.4426 10.7062 97.3328 10.3615 98.4673 10.3615C99.4317 10.3615 100.156 10.5949 100.64 11.0618C101.129 11.5287 101.374 12.144 101.374 12.9076C101.374 13.056 101.365 13.224 101.347 13.4116C101.33 13.5993 101.306 13.7673 101.275 13.9156H96.9422V13.9615C96.9422 15 97.0993 15.7462 97.4135 16.2C97.7277 16.6495 98.2208 16.8742 98.8928 16.8742C99.2724 16.8742 99.6346 16.8022 99.9793 16.6582C100.328 16.5142 100.612 16.3047 100.83 16.0298L101.328 16.3702ZM109.006 16.9724C109.242 16.9724 109.471 16.9353 109.694 16.8611C109.92 16.7825 110.121 16.6778 110.296 16.5469V14.8844L109.399 14.9498C108.945 14.9804 108.62 15.0982 108.424 15.3033C108.227 15.5084 108.129 15.7702 108.129 16.0887C108.129 16.3767 108.197 16.5971 108.332 16.7498C108.472 16.8982 108.696 16.9724 109.006 16.9724ZM111.86 18.1178C111.507 18.1178 111.206 18.0502 110.957 17.9149C110.712 17.7753 110.529 17.5462 110.407 17.2276C110.15 17.5156 109.827 17.7425 109.438 17.9084C109.054 18.0698 108.629 18.1505 108.162 18.1505C107.52 18.1505 107.001 17.9869 106.604 17.6596C106.211 17.328 106.015 16.8829 106.015 16.3244C106.015 15.9665 106.096 15.6567 106.257 15.3949C106.423 15.1287 106.641 14.9105 106.912 14.7404C107.182 14.5658 107.49 14.4327 107.835 14.3411C108.184 14.2451 108.542 14.1862 108.908 14.1644L110.296 14.0727V13.2938C110.296 12.7091 110.169 12.3033 109.916 12.0764C109.667 11.8495 109.299 11.736 108.81 11.736C108.404 11.736 108.027 11.8036 107.678 11.9389C107.328 12.0698 107.003 12.2684 106.702 12.5345L106.238 12.1156C106.438 11.5702 106.811 11.1447 107.357 10.8393C107.907 10.5295 108.59 10.3745 109.406 10.3745C110.4 10.3745 111.129 10.6124 111.592 11.088C112.054 11.5636 112.286 12.2684 112.286 13.2022V16.5927C112.286 16.7324 112.314 16.8327 112.371 16.8938C112.432 16.9505 112.519 16.9855 112.632 16.9985L113.313 17.0771V17.8691C113.165 17.9127 112.947 17.9651 112.659 18.0262C112.371 18.0873 112.104 18.1178 111.86 18.1178ZM56.8654 36.0785C56.6429 36.0785 56.4399 36.0742 56.2567 36.0655C56.0734 36.0567 55.8945 36.048 55.7199 36.0393C55.5498 36.0305 55.373 36.0218 55.1898 36.0131C55.0065 36.0044 54.8036 36 54.581 36H52.1723V35.1491L53.2392 34.9527C53.3221 34.9396 53.3876 34.9025 53.4356 34.8415C53.4879 34.776 53.5141 34.7018 53.5141 34.6189V27.2029C53.5141 27.12 53.4901 27.0502 53.4421 26.9935C53.3941 26.9324 53.3287 26.8931 53.2458 26.8756L52.1723 26.6596V25.776H54.5745C54.989 25.776 55.3752 25.7629 55.733 25.7367C56.0909 25.7062 56.4858 25.6909 56.9178 25.6909C57.5985 25.6909 58.1679 25.7433 58.6261 25.848C59.0887 25.9484 59.4552 26.0989 59.7258 26.2996C60.0007 26.5004 60.1949 26.7513 60.3083 27.0524C60.4218 27.3535 60.4785 27.7004 60.4785 28.0931C60.4785 28.7476 60.3149 29.2844 59.9876 29.7033C59.6603 30.1222 59.2152 30.4058 58.6523 30.5542C59.0189 30.5716 59.357 30.6393 59.6669 30.7571C59.981 30.8705 60.2472 31.0298 60.4654 31.2349C60.6879 31.4356 60.8603 31.6844 60.9825 31.9811C61.109 32.2735 61.1723 32.6073 61.1723 32.9825C61.1723 33.4189 61.1025 33.8269 60.9629 34.2065C60.8232 34.5862 60.5876 34.9156 60.2559 35.1949C59.9287 35.4698 59.4858 35.6858 58.9272 35.8429C58.373 36 57.6858 36.0785 56.8654 36.0785ZM56.7999 30.2531C57.3323 30.2531 57.725 30.0873 57.9781 29.7556C58.2356 29.4196 58.3643 28.9331 58.3643 28.296C58.3643 27.6807 58.2269 27.2335 57.9519 26.9542C57.6814 26.6705 57.2429 26.5287 56.6363 26.5287C56.5709 26.5287 56.4901 26.5309 56.3941 26.5353C56.3025 26.5396 56.2087 26.5462 56.1127 26.5549C56.0167 26.5636 55.925 26.5724 55.8378 26.5811C55.7549 26.5898 55.6916 26.5964 55.6479 26.6007V30.2335C55.8705 30.2422 56.0843 30.2487 56.2894 30.2531C56.4989 30.2531 56.669 30.2531 56.7999 30.2531ZM56.7672 35.2015C57.5003 35.2015 58.0261 35.0182 58.3447 34.6516C58.6632 34.2851 58.8225 33.7615 58.8225 33.0807C58.8225 32.3956 58.6654 31.9135 58.3512 31.6342C58.0414 31.3549 57.5745 31.2153 56.9505 31.2153C56.7847 31.2153 56.5839 31.2175 56.3483 31.2218C56.117 31.2262 55.8836 31.2327 55.6479 31.2415V35.1098C55.7832 35.1316 55.9556 35.1535 56.165 35.1753C56.3789 35.1927 56.5796 35.2015 56.7672 35.2015ZM65.4288 28.6429V34.6451C65.4288 34.7498 65.455 34.8349 65.5074 34.9004C65.5641 34.9658 65.6448 35.0073 65.7496 35.0247L66.4892 35.1556V36H62.3197V35.1556L63.0594 35.0247C63.1641 35.0073 63.2448 34.9658 63.3016 34.9004C63.3583 34.8349 63.3867 34.7498 63.3867 34.6451V30.1418C63.3867 30.0371 63.3605 29.952 63.3081 29.8865C63.2557 29.8167 63.1794 29.7731 63.079 29.7556L62.2412 29.5985V28.7476C62.6776 28.6255 63.1619 28.5338 63.6943 28.4727C64.2267 28.4116 64.711 28.3811 65.1474 28.3811L65.4288 28.6429ZM65.455 26.3324C65.455 26.664 65.3481 26.9324 65.1343 27.1375C64.9205 27.3382 64.6368 27.4385 64.2834 27.4385C63.9256 27.4385 63.6376 27.3382 63.4194 27.1375C63.2056 26.9324 63.0987 26.664 63.0987 26.3324C63.0987 26.0051 63.2056 25.7411 63.4194 25.5404C63.6376 25.3396 63.9256 25.2393 64.2834 25.2393C64.6368 25.2393 64.9205 25.3396 65.1343 25.5404C65.3481 25.7411 65.455 26.0051 65.455 26.3324ZM70.7752 36.1505C70.4916 36.1505 70.2058 36.1331 69.9178 36.0982C69.6341 36.0676 69.3658 36.0284 69.1127 35.9804C68.8639 35.928 68.6349 35.8713 68.4254 35.8102C68.2159 35.7491 68.0458 35.6902 67.9149 35.6335V25.9593C67.9149 25.8502 67.8865 25.7651 67.8298 25.704C67.7774 25.6385 67.701 25.5971 67.6007 25.5796L66.7105 25.4422V24.6175C66.9287 24.5607 67.1643 24.5084 67.4174 24.4604C67.6749 24.4124 67.9345 24.3709 68.1963 24.336C68.4581 24.3011 68.7156 24.2749 68.9687 24.2575C69.2261 24.2356 69.4639 24.2247 69.6821 24.2247L69.957 24.48V29.1927C70.2145 28.9309 70.5199 28.7258 70.8734 28.5775C71.2269 28.4291 71.6174 28.3549 72.045 28.3549C72.4421 28.3549 72.813 28.4247 73.1578 28.5644C73.5069 28.6996 73.8058 28.9113 74.0545 29.1993C74.3076 29.4873 74.5061 29.856 74.6501 30.3055C74.7985 30.7549 74.8727 31.2873 74.8727 31.9025C74.8727 32.5658 74.7832 33.1615 74.6043 33.6895C74.4254 34.2175 74.1636 34.6625 73.8189 35.0247C73.4785 35.3869 73.0509 35.6662 72.5359 35.8625C72.0254 36.0545 71.4385 36.1505 70.7752 36.1505ZM70.9192 35.2931C71.4909 35.2931 71.9272 35.0575 72.2283 34.5862C72.5338 34.1105 72.693 33.3535 72.7061 32.3149C72.7192 31.2895 72.5861 30.5804 72.3069 30.1876C72.0276 29.7949 71.637 29.5985 71.1352 29.5985C70.9214 29.5985 70.7141 29.6291 70.5134 29.6902C70.317 29.7513 70.1316 29.8385 69.957 29.952V35.0575C70.0836 35.1273 70.2254 35.184 70.3825 35.2276C70.5396 35.2713 70.7185 35.2931 70.9192 35.2931ZM78.9541 24.4865V34.6451C78.9541 34.7542 78.9803 34.8415 79.0326 34.9069C79.0893 34.968 79.1701 35.0073 79.2748 35.0247L80.1126 35.1622V36H75.7403V35.1556L76.5846 35.0247C76.6893 35.0073 76.7701 34.968 76.8268 34.9069C76.8835 34.8458 76.9119 34.7607 76.9119 34.6516V25.9527C76.9119 25.8436 76.8835 25.7585 76.8268 25.6975C76.7701 25.632 76.6915 25.5905 76.5912 25.5731L75.6879 25.4422V24.624C75.9061 24.5673 76.1439 24.5149 76.4013 24.4669C76.6588 24.4145 76.9184 24.3709 77.1803 24.336C77.4421 24.3011 77.7017 24.2749 77.9592 24.2575C78.2166 24.2356 78.4544 24.2247 78.6726 24.2247L78.9541 24.4865ZM84.0968 28.6429V34.6451C84.0968 34.7498 84.123 34.8349 84.1754 34.9004C84.2321 34.9658 84.3128 35.0073 84.4175 35.0247L85.1572 35.1556V36H80.9877V35.1556L81.7274 35.0247C81.8321 35.0073 81.9128 34.9658 81.9695 34.9004C82.0263 34.8349 82.0546 34.7498 82.0546 34.6451V30.1418C82.0546 30.0371 82.0284 29.952 81.9761 29.8865C81.9237 29.8167 81.8474 29.7731 81.747 29.7556L80.9092 29.5985V28.7476C81.3455 28.6255 81.8299 28.5338 82.3623 28.4727C82.8946 28.4116 83.379 28.3811 83.8153 28.3811L84.0968 28.6429ZM84.123 26.3324C84.123 26.664 84.0161 26.9324 83.8023 27.1375C83.5884 27.3382 83.3048 27.4385 82.9514 27.4385C82.5935 27.4385 82.3055 27.3382 82.0874 27.1375C81.8735 26.9324 81.7666 26.664 81.7666 26.3324C81.7666 26.0051 81.8735 25.7411 82.0874 25.5404C82.3055 25.3396 82.5935 25.2393 82.9514 25.2393C83.3048 25.2393 83.5884 25.3396 83.8023 25.5404C84.0161 25.7411 84.123 26.0051 84.123 26.3324ZM86.1246 32.3345C86.1246 31.6189 86.2206 31.008 86.4126 30.5018C86.609 29.9913 86.8752 29.5789 87.2112 29.2647C87.5516 28.9505 87.953 28.7215 88.4156 28.5775C88.8781 28.4291 89.3734 28.3549 89.9014 28.3549C91.049 28.3549 91.9305 28.6822 92.5457 29.3367C93.161 29.9869 93.4686 30.9404 93.4686 32.1971C93.4686 32.9127 93.3705 33.5236 93.1741 34.0298C92.9821 34.536 92.7159 34.9462 92.3756 35.2604C92.0396 35.5745 91.6403 35.8036 91.1777 35.9476C90.7152 36.0916 90.2177 36.1636 89.6854 36.1636C88.5377 36.1636 87.6563 35.8385 87.041 35.1884C86.4301 34.5382 86.1246 33.5869 86.1246 32.3345ZM91.2497 32.3542C91.2497 31.2938 91.1428 30.5149 90.929 30.0175C90.7196 29.5156 90.329 29.2647 89.7574 29.2647C89.2817 29.2647 88.9261 29.4829 88.6905 29.9193C88.4548 30.3556 88.337 31.1062 88.337 32.1709C88.337 33.2269 88.4417 34.0058 88.6512 34.5076C88.865 35.0095 89.2599 35.2604 89.8359 35.2604C90.3116 35.2604 90.665 35.0422 90.8963 34.6058C91.1319 34.1651 91.2497 33.4145 91.2497 32.3542ZM95.4596 33.9185V29.6967L94.4058 29.5265V28.7476L95.2305 28.5971C95.3483 28.5796 95.4378 28.5425 95.4989 28.4858C95.56 28.4247 95.608 28.3396 95.6429 28.2305L96.2778 26.208H97.4232L97.4887 28.5513H99.6683V29.6575H97.5083V33.4145C97.5083 33.9338 97.5891 34.2895 97.7505 34.4815C97.9163 34.6691 98.152 34.7629 98.4574 34.7629C98.6625 34.7629 98.8698 34.7258 99.0792 34.6516C99.2931 34.5731 99.4851 34.4531 99.6552 34.2916L100.1 34.7629C99.8865 35.2167 99.5549 35.5571 99.1054 35.784C98.656 36.0109 98.1476 36.1244 97.5803 36.1244C96.9563 36.1244 96.4458 35.9716 96.0487 35.6662C95.656 35.3564 95.4596 34.7738 95.4596 33.9185ZM104.265 29.2516C103.911 29.2516 103.619 29.3913 103.388 29.6705C103.161 29.9498 103.015 30.4255 102.949 31.0975H105.43C105.434 31.0538 105.437 31.008 105.437 30.96C105.437 30.912 105.437 30.8575 105.437 30.7964C105.437 30.3469 105.338 29.9782 105.142 29.6902C104.95 29.3978 104.658 29.2516 104.265 29.2516ZM107.295 34.3702C107.121 34.9375 106.763 35.3782 106.222 35.6924C105.681 36.0065 105.024 36.1636 104.252 36.1636C103.663 36.1636 103.15 36.072 102.714 35.8887C102.282 35.7055 101.924 35.448 101.64 35.1164C101.357 34.7847 101.145 34.3833 101.005 33.912C100.87 33.4407 100.802 32.9171 100.802 32.3411C100.802 31.0625 101.123 30.0807 101.765 29.3956C102.41 28.7062 103.301 28.3615 104.435 28.3615C105.399 28.3615 106.124 28.5949 106.608 29.0618C107.097 29.5287 107.341 30.144 107.341 30.9076C107.341 31.056 107.333 31.224 107.315 31.4116C107.298 31.5993 107.274 31.7673 107.243 31.9156H102.91V31.9615C102.91 33 103.067 33.7462 103.381 34.2C103.695 34.6495 104.189 34.8742 104.861 34.8742C105.24 34.8742 105.602 34.8022 105.947 34.6582C106.296 34.5142 106.58 34.3047 106.798 34.0298L107.295 34.3702ZM108.524 32.3607C108.524 31.7324 108.613 31.1695 108.792 30.672C108.971 30.1745 109.224 29.7556 109.551 29.4153C109.879 29.0705 110.273 28.8087 110.736 28.6298C111.203 28.4465 111.718 28.3549 112.281 28.3549C112.726 28.3549 113.171 28.4073 113.616 28.512C114.065 28.6124 114.434 28.7411 114.722 28.8982C114.753 29.304 114.753 29.7185 114.722 30.1418C114.692 30.5607 114.641 30.96 114.572 31.3396H113.57L113.23 30.1025C113.191 29.9585 113.151 29.8451 113.112 29.7622C113.073 29.6793 113.02 29.6073 112.955 29.5462C112.872 29.4764 112.763 29.4175 112.628 29.3695C112.497 29.3171 112.351 29.2909 112.189 29.2909C111.757 29.2909 111.406 29.5091 111.135 29.9455C110.869 30.3818 110.736 31.0844 110.736 32.0531C110.736 32.9869 110.884 33.6916 111.181 34.1673C111.482 34.6385 111.956 34.8742 112.601 34.8742C112.994 34.8742 113.339 34.8022 113.636 34.6582C113.932 34.5142 114.168 34.3593 114.343 34.1935L114.814 34.5796C114.639 35.0378 114.303 35.4175 113.806 35.7185C113.308 36.0153 112.689 36.1636 111.947 36.1636C111.362 36.1636 110.854 36.0676 110.422 35.8756C109.99 35.6793 109.634 35.4131 109.355 35.0771C109.076 34.7367 108.866 34.3331 108.727 33.8662C108.591 33.3993 108.524 32.8975 108.524 32.3607ZM118.859 34.9724C119.094 34.9724 119.324 34.9353 119.546 34.8611C119.773 34.7825 119.974 34.6778 120.148 34.5469V32.8844L119.252 32.9498C118.798 32.9804 118.473 33.0982 118.276 33.3033C118.08 33.5084 117.982 33.7702 117.982 34.0887C117.982 34.3767 118.049 34.5971 118.185 34.7498C118.324 34.8982 118.549 34.9724 118.859 34.9724ZM121.713 36.1178C121.359 36.1178 121.058 36.0502 120.809 35.9149C120.565 35.7753 120.382 35.5462 120.26 35.2276C120.002 35.5156 119.679 35.7425 119.291 35.9084C118.907 36.0698 118.481 36.1505 118.014 36.1505C117.373 36.1505 116.854 35.9869 116.457 35.6596C116.064 35.328 115.868 34.8829 115.868 34.3244C115.868 33.9665 115.948 33.6567 116.11 33.3949C116.276 33.1287 116.494 32.9105 116.764 32.7404C117.035 32.5658 117.342 32.4327 117.687 32.3411C118.036 32.2451 118.394 32.1862 118.761 32.1644L120.148 32.0727V31.2938C120.148 30.7091 120.022 30.3033 119.769 30.0764C119.52 29.8495 119.151 29.736 118.662 29.736C118.257 29.736 117.879 29.8036 117.53 29.9389C117.181 30.0698 116.856 30.2684 116.555 30.5345L116.09 30.1156C116.291 29.5702 116.664 29.1447 117.209 28.8393C117.759 28.5295 118.442 28.3745 119.258 28.3745C120.253 28.3745 120.982 28.6124 121.444 29.088C121.907 29.5636 122.138 30.2684 122.138 31.2022V34.5927C122.138 34.7324 122.166 34.8327 122.223 34.8938C122.284 34.9505 122.372 34.9855 122.485 34.9985L123.166 35.0771V35.8691C123.017 35.9127 122.799 35.9651 122.511 36.0262C122.223 36.0873 121.957 36.1178 121.713 36.1178Z" fill="black"/>
</svg>
