<svg width="176" height="26" viewBox="0 0 176 26" fill="none" xmlns="http://www.w3.org/2000/svg">
<path d="M108 0H67C63.6863 0 61 2.68629 61 6V20C61 23.3137 63.6863 26 67 26H108C111.314 26 114 23.3137 114 20V6C114 2.68629 111.314 0 108 0Z" fill="#074545"/>
<path d="M71.9865 12.4044L70.6775 8.35491L69.4149 12.4044H71.9865ZM69.7116 15.2436V16H66.436V15.2436L67.204 15.0575C67.2855 15.0381 67.3514 15.0051 67.4018 14.9585C67.4522 14.912 67.491 14.8499 67.5182 14.7724L70.212 6.88291H72.004L74.7444 14.7724C74.7715 14.8538 74.8122 14.9159 74.8665 14.9585C74.9208 15.0012 74.9868 15.0342 75.0644 15.0575L75.7742 15.2436V16H71.7131V15.2436L72.8418 15.0516L72.2775 13.3004H69.1356L68.5887 15.0516L69.7116 15.2436ZM76.1018 12.7651C76.1018 12.2065 76.1813 11.7062 76.3403 11.264C76.4993 10.8218 76.7243 10.4495 77.0152 10.1469C77.3061 9.84049 77.6572 9.60776 78.0683 9.44873C78.4833 9.28582 78.941 9.20436 79.4414 9.20436C79.837 9.20436 80.2327 9.25091 80.6283 9.344C81.0278 9.43321 81.3556 9.54764 81.6116 9.68727C81.6387 10.048 81.6387 10.4165 81.6116 10.7927C81.5844 11.1651 81.5398 11.52 81.4778 11.8575H80.5876L80.285 10.7578C80.2501 10.6298 80.2152 10.529 80.1803 10.4553C80.1454 10.3816 80.0989 10.3176 80.0407 10.2633C79.967 10.2012 79.87 10.1488 79.7498 10.1062C79.6334 10.0596 79.5035 10.0364 79.3599 10.0364C78.9759 10.0364 78.6637 10.2303 78.4232 10.6182C78.1866 11.0061 78.0683 11.6305 78.0683 12.4916C78.0683 13.3217 78.2002 13.9481 78.4639 14.3709C78.7316 14.7898 79.1524 14.9993 79.7265 14.9993C80.0756 14.9993 80.382 14.9353 80.6458 14.8073C80.9095 14.6793 81.119 14.5416 81.2741 14.3942L81.693 14.7375C81.5379 15.1447 81.2392 15.4822 80.797 15.7498C80.3549 16.0136 79.8041 16.1455 79.1447 16.1455C78.6249 16.1455 78.173 16.0601 77.789 15.8895C77.405 15.7149 77.0889 15.4783 76.8407 15.1796C76.5924 14.8771 76.4062 14.5183 76.2821 14.1033C76.1619 13.6882 76.1018 13.2422 76.1018 12.7651ZM85.8006 10.0015C85.4864 10.0015 85.2265 10.1256 85.021 10.3738C84.8193 10.6221 84.6893 11.0448 84.6311 11.6422H86.8362C86.8401 11.6034 86.842 11.5627 86.842 11.52C86.842 11.4773 86.842 11.4288 86.842 11.3745C86.842 10.975 86.7548 10.6473 86.5802 10.3913C86.4096 10.1314 86.1497 10.0015 85.8006 10.0015ZM88.4944 14.5513C88.3393 15.0555 88.0212 15.4473 87.5402 15.7265C87.0593 16.0058 86.4755 16.1455 85.789 16.1455C85.2653 16.1455 84.8096 16.064 84.4217 15.9011C84.0377 15.7382 83.7196 15.5093 83.4675 15.2145C83.2154 14.9198 83.0273 14.5629 82.9031 14.144C82.7829 13.7251 82.7228 13.2596 82.7228 12.7476C82.7228 11.6112 83.0079 10.7384 83.578 10.1295C84.1521 9.51661 84.9434 9.21018 85.9519 9.21018C86.8091 9.21018 87.453 9.4177 87.8835 9.83273C88.3179 10.2478 88.5351 10.7947 88.5351 11.4735C88.5351 11.6053 88.5274 11.7547 88.5119 11.9215C88.4963 12.0882 88.475 12.2376 88.4479 12.3695H84.5962V12.4102C84.5962 13.3333 84.7359 13.9966 85.0151 14.4C85.2944 14.7995 85.7327 14.9993 86.33 14.9993C86.6675 14.9993 86.9894 14.9353 87.2959 14.8073C87.6062 14.6793 87.8583 14.4931 88.0522 14.2487L88.4944 14.5513ZM89.7316 15.6684C89.6928 15.3581 89.6773 15.0419 89.685 14.72C89.6967 14.3942 89.7238 14.0878 89.7665 13.8007H90.6858L90.9243 14.6676C90.9592 14.7918 90.9941 14.8887 91.029 14.9585C91.0678 15.0245 91.1241 15.0846 91.1978 15.1389C91.287 15.1971 91.4189 15.2592 91.5934 15.3251C91.768 15.391 91.9658 15.424 92.1869 15.424C92.5166 15.424 92.7687 15.3425 92.9432 15.1796C93.1178 15.0128 93.205 14.8131 93.205 14.5804C93.205 14.4136 93.1604 14.2701 93.0712 14.1498C92.982 14.0296 92.8579 13.919 92.6989 13.8182C92.5437 13.7173 92.3556 13.6184 92.1345 13.5215C91.9173 13.4245 91.6768 13.3159 91.413 13.1956C90.9166 12.9668 90.5132 12.7088 90.2029 12.4218C89.8926 12.1309 89.7374 11.7275 89.7374 11.2116C89.7374 10.6065 89.9643 10.1217 90.4181 9.75709C90.8758 9.39249 91.541 9.21018 92.4138 9.21018C92.7823 9.21018 93.1682 9.24703 93.5716 9.32073C93.975 9.39442 94.3163 9.48752 94.5956 9.6C94.615 9.87927 94.6169 10.1741 94.6014 10.4844C94.5859 10.7947 94.551 11.0933 94.4967 11.3804L93.6414 11.3745L93.4029 10.5716C93.368 10.463 93.3292 10.3758 93.2865 10.3098C93.2438 10.2439 93.1798 10.1857 93.0945 10.1353C93.0014 10.0732 92.8947 10.0267 92.7745 9.99564C92.6543 9.96461 92.5224 9.94715 92.3789 9.94327C92.0996 9.93939 91.8688 10.0073 91.6865 10.1469C91.5081 10.2827 91.4189 10.4785 91.4189 10.7345C91.4189 10.9013 91.4596 11.0448 91.541 11.1651C91.6225 11.2815 91.7292 11.3842 91.861 11.4735C91.9968 11.5627 92.152 11.6461 92.3265 11.7236C92.501 11.7973 92.6833 11.873 92.8734 11.9505C93.1488 12.0669 93.4145 12.1891 93.6705 12.3171C93.9304 12.4451 94.1573 12.5925 94.3512 12.7593C94.5452 12.9261 94.7003 13.1219 94.8167 13.3469C94.933 13.5719 94.9912 13.8395 94.9912 14.1498C94.9912 14.4834 94.9214 14.7782 94.7818 15.0342C94.6421 15.2863 94.4482 15.4977 94.2 15.6684C93.9517 15.8352 93.655 15.9612 93.3098 16.0465C92.9646 16.1319 92.5903 16.1745 92.1869 16.1745C91.702 16.1745 91.2463 16.1202 90.8196 16.0116C90.3968 15.9069 90.0341 15.7925 89.7316 15.6684ZM96.1535 15.6684C96.1147 15.3581 96.0992 15.0419 96.1069 14.72C96.1186 14.3942 96.1457 14.0878 96.1884 13.8007H97.1076L97.3462 14.6676C97.3811 14.7918 97.416 14.8887 97.4509 14.9585C97.4897 15.0245 97.546 15.0846 97.6196 15.1389C97.7089 15.1971 97.8407 15.2592 98.0153 15.3251C98.1898 15.391 98.3876 15.424 98.6087 15.424C98.9384 15.424 99.1906 15.3425 99.3651 15.1796C99.5396 15.0128 99.6269 14.8131 99.6269 14.5804C99.6269 14.4136 99.5823 14.2701 99.4931 14.1498C99.4039 14.0296 99.2798 13.919 99.1207 13.8182C98.9656 13.7173 98.7775 13.6184 98.5564 13.5215C98.3392 13.4245 98.0987 13.3159 97.8349 13.1956C97.3384 12.9668 96.935 12.7088 96.6247 12.4218C96.3144 12.1309 96.1593 11.7275 96.1593 11.2116C96.1593 10.6065 96.3862 10.1217 96.84 9.75709C97.2977 9.39249 97.9629 9.21018 98.8356 9.21018C99.2041 9.21018 99.5901 9.24703 99.9935 9.32073C100.397 9.39442 100.738 9.48752 101.017 9.6C101.037 9.87927 101.039 10.1741 101.023 10.4844C101.008 10.7947 100.973 11.0933 100.919 11.3804L100.063 11.3745L99.8247 10.5716C99.7898 10.463 99.751 10.3758 99.7084 10.3098C99.6657 10.2439 99.6017 10.1857 99.5164 10.1353C99.4233 10.0732 99.3166 10.0267 99.1964 9.99564C99.0761 9.96461 98.9443 9.94715 98.8007 9.94327C98.5215 9.93939 98.2907 10.0073 98.1084 10.1469C97.93 10.2827 97.8407 10.4785 97.8407 10.7345C97.8407 10.9013 97.8815 11.0448 97.9629 11.1651C98.0444 11.2815 98.151 11.3842 98.2829 11.4735C98.4187 11.5627 98.5738 11.6461 98.7484 11.7236C98.9229 11.7973 99.1052 11.873 99.2953 11.9505C99.5707 12.0669 99.8364 12.1891 100.092 12.3171C100.352 12.4451 100.579 12.5925 100.773 12.7593C100.967 12.9261 101.122 13.1219 101.239 13.3469C101.355 13.5719 101.413 13.8395 101.413 14.1498C101.413 14.4834 101.343 14.7782 101.204 15.0342C101.064 15.2863 100.87 15.4977 100.622 15.6684C100.374 15.8352 100.077 15.9612 99.7316 16.0465C99.3864 16.1319 99.0121 16.1745 98.6087 16.1745C98.1239 16.1745 97.6681 16.1202 97.2415 16.0116C96.8187 15.9069 96.456 15.7925 96.1535 15.6684ZM102.442 12.7418C102.442 12.1057 102.527 11.5627 102.698 11.1127C102.872 10.6589 103.109 10.2924 103.407 10.0131C103.71 9.73382 104.067 9.53018 104.478 9.40218C104.889 9.2703 105.329 9.20436 105.799 9.20436C106.819 9.20436 107.602 9.49527 108.149 10.0771C108.696 10.655 108.97 11.5025 108.97 12.6196C108.97 13.2558 108.882 13.7988 108.708 14.2487C108.537 14.6987 108.3 15.0633 107.998 15.3425C107.699 15.6218 107.344 15.8255 106.933 15.9535C106.522 16.0815 106.08 16.1455 105.607 16.1455C104.586 16.1455 103.803 15.8565 103.256 15.2785C102.713 14.7006 102.442 13.855 102.442 12.7418ZM106.997 12.7593C106.997 11.8167 106.902 11.1244 106.712 10.6822C106.526 10.2361 106.179 10.0131 105.671 10.0131C105.248 10.0131 104.932 10.207 104.722 10.5949C104.513 10.9828 104.408 11.6499 104.408 12.5964C104.408 13.535 104.501 14.2274 104.687 14.6735C104.877 15.1195 105.228 15.3425 105.74 15.3425C106.163 15.3425 106.477 15.1486 106.683 14.7607C106.892 14.369 106.997 13.7018 106.997 12.7593Z" fill="white"/>
</svg>
