<svg width="176" height="49" viewBox="0 0 176 49" fill="none" xmlns="http://www.w3.org/2000/svg">
<path d="M156.113 0H20.5792C15.0563 0 10.5792 4.47715 10.5792 10V38.45C10.5792 43.9728 15.0563 48.45 20.5792 48.45H156.113C161.636 48.45 166.113 43.9728 166.113 38.45V10C166.113 4.47715 161.636 0 156.113 0Z" fill="#FFE81A"/>
<path d="M64.8928 11.4793H63.8783L63.5379 10.2553C63.5074 10.1462 63.4594 10.0611 63.3939 10C63.3328 9.93455 63.2543 9.88218 63.1583 9.84291C63.0361 9.79927 62.8681 9.76436 62.6543 9.73818C62.4404 9.712 62.2157 9.69891 61.9801 9.69891H60.6972V13.2727L63.6361 13.1615V14.392L60.6972 14.32V18.0247H62.2877C62.5234 18.0247 62.7634 18.0116 63.0077 17.9855C63.2521 17.9593 63.4354 17.9222 63.5575 17.8742C63.6535 17.8349 63.7255 17.7847 63.7735 17.7236C63.8259 17.6582 63.8717 17.5709 63.911 17.4618L64.4543 15.904L65.4623 16.0611C65.4623 16.5542 65.4404 17.0407 65.3968 17.5207C65.3575 18.0007 65.2964 18.4938 65.2135 19H57.2084V18.1491L58.2361 17.9593C58.3408 17.9418 58.4194 17.9004 58.4717 17.8349C58.5241 17.7695 58.5503 17.6844 58.5503 17.5796V10.2487C58.5503 10.144 58.5241 10.0589 58.4717 9.99345C58.4194 9.928 58.3408 9.88436 58.2361 9.86255L57.2084 9.65964V8.776H64.8732C64.9255 9.21673 64.9517 9.66182 64.9517 10.1113C64.9517 10.5564 64.9321 11.0124 64.8928 11.4793ZM66.7371 18.6269C66.6935 18.2778 66.676 17.9222 66.6847 17.56C66.6978 17.1935 66.7284 16.8487 66.7764 16.5258H67.8106L68.0789 17.5011C68.1182 17.6407 68.1575 17.7498 68.1967 17.8284C68.2404 17.9025 68.3036 17.9702 68.3866 18.0313C68.4869 18.0967 68.6353 18.1665 68.8316 18.2407C69.028 18.3149 69.2506 18.352 69.4993 18.352C69.8702 18.352 70.1538 18.2604 70.3502 18.0771C70.5466 17.8895 70.6447 17.6647 70.6447 17.4029C70.6447 17.2153 70.5946 17.0538 70.4942 16.9185C70.3938 16.7833 70.2542 16.6589 70.0753 16.5455C69.9007 16.432 69.6891 16.3207 69.4404 16.2116C69.196 16.1025 68.9255 15.9804 68.6287 15.8451C68.0702 15.5876 67.6164 15.2975 67.2673 14.9745C66.9182 14.6473 66.7436 14.1935 66.7436 13.6131C66.7436 12.9324 66.9989 12.3869 67.5095 11.9767C68.0244 11.5665 68.7727 11.3615 69.7546 11.3615C70.1691 11.3615 70.6033 11.4029 71.0571 11.4858C71.5109 11.5687 71.8949 11.6735 72.2091 11.8C72.2309 12.1142 72.2331 12.4458 72.2156 12.7949C72.1982 13.144 72.1589 13.48 72.0978 13.8029L71.1356 13.7964L70.8673 12.8931C70.828 12.7709 70.7844 12.6727 70.7364 12.5985C70.6884 12.5244 70.6164 12.4589 70.5204 12.4022C70.4156 12.3324 70.2956 12.28 70.1604 12.2451C70.0251 12.2102 69.8767 12.1905 69.7153 12.1862C69.4011 12.1818 69.1415 12.2582 68.9364 12.4153C68.7356 12.568 68.6353 12.7884 68.6353 13.0764C68.6353 13.264 68.6811 13.4255 68.7727 13.5607C68.8644 13.6916 68.9844 13.8073 69.1327 13.9076C69.2855 14.008 69.46 14.1018 69.6564 14.1891C69.8527 14.272 70.0578 14.3571 70.2716 14.4444C70.5815 14.5753 70.8804 14.7127 71.1684 14.8567C71.4607 15.0007 71.716 15.1665 71.9342 15.3542C72.1524 15.5418 72.3269 15.7622 72.4578 16.0153C72.5887 16.2684 72.6542 16.5695 72.6542 16.9185C72.6542 17.2938 72.5756 17.6255 72.4186 17.9135C72.2615 18.1971 72.0433 18.4349 71.764 18.6269C71.4847 18.8145 71.1509 18.9564 70.7626 19.0524C70.3742 19.1484 69.9531 19.1964 69.4993 19.1964C68.9538 19.1964 68.4411 19.1353 67.9611 19.0131C67.4855 18.8953 67.0775 18.7665 66.7371 18.6269ZM73.7981 15.3607C73.7981 14.7324 73.8875 14.1695 74.0664 13.672C74.2453 13.1745 74.4984 12.7556 74.8257 12.4153C75.153 12.0705 75.5479 11.8087 76.0104 11.6298C76.4773 11.4465 76.9923 11.3549 77.5552 11.3549C78.0003 11.3549 78.4453 11.4073 78.8904 11.512C79.3399 11.6124 79.7086 11.7411 79.9966 11.8982C80.0272 12.304 80.0272 12.7185 79.9966 13.1418C79.9661 13.5607 79.9159 13.96 79.8461 14.3396H78.8446L78.5043 13.1025C78.465 12.9585 78.4257 12.8451 78.3864 12.7622C78.3472 12.6793 78.2948 12.6073 78.2293 12.5462C78.1464 12.4764 78.0373 12.4175 77.9021 12.3695C77.7712 12.3171 77.625 12.2909 77.4635 12.2909C77.0315 12.2909 76.6803 12.5091 76.4097 12.9455C76.1435 13.3818 76.0104 14.0844 76.0104 15.0531C76.0104 15.9869 76.1588 16.6916 76.4555 17.1673C76.7566 17.6385 77.2301 17.8742 77.8759 17.8742C78.2686 17.8742 78.6133 17.8022 78.9101 17.6582C79.2068 17.5142 79.4424 17.3593 79.617 17.1935L80.0883 17.5796C79.9137 18.0378 79.5777 18.4175 79.0803 18.7185C78.5828 19.0153 77.9632 19.1636 77.2213 19.1636C76.6366 19.1636 76.1283 19.0676 75.6963 18.8756C75.2643 18.6793 74.9086 18.4131 74.6293 18.0771C74.3501 17.7367 74.1406 17.3331 74.001 16.8662C73.8657 16.3993 73.7981 15.8975 73.7981 15.3607ZM81.2467 15.3345C81.2467 14.6189 81.3427 14.008 81.5347 13.5018C81.7311 12.9913 81.9973 12.5789 82.3333 12.2647C82.6736 11.9505 83.0751 11.7215 83.5376 11.5775C84.0002 11.4291 84.4954 11.3549 85.0234 11.3549C86.1711 11.3549 87.0525 11.6822 87.6678 12.3367C88.2831 12.9869 88.5907 13.9404 88.5907 15.1971C88.5907 15.9127 88.4925 16.5236 88.2962 17.0298C88.1042 17.536 87.838 17.9462 87.4976 18.2604C87.1616 18.5745 86.7623 18.8036 86.2998 18.9476C85.8373 19.0916 85.3398 19.1636 84.8074 19.1636C83.6598 19.1636 82.7783 18.8385 82.1631 18.1884C81.5522 17.5382 81.2467 16.5869 81.2467 15.3345ZM86.3718 15.3542C86.3718 14.2938 86.2649 13.5149 86.0511 13.0175C85.8416 12.5156 85.4511 12.2647 84.8794 12.2647C84.4038 12.2647 84.0482 12.4829 83.8125 12.9193C83.5769 13.3556 83.4591 14.1062 83.4591 15.1709C83.4591 16.2269 83.5638 17.0058 83.7733 17.5076C83.9871 18.0095 84.382 18.2604 84.958 18.2604C85.4336 18.2604 85.7871 18.0422 86.0183 17.6058C86.254 17.1651 86.3718 16.4145 86.3718 15.3542ZM92.709 7.48655V17.6451C92.709 17.7542 92.7351 17.8415 92.7875 17.9069C92.8442 17.968 92.925 18.0073 93.0297 18.0247L93.8675 18.1622V19H89.4951V18.1556L90.3395 18.0247C90.4442 18.0073 90.525 17.968 90.5817 17.9069C90.6384 17.8458 90.6668 17.7607 90.6668 17.6516V8.95273C90.6668 8.84364 90.6384 8.75855 90.5817 8.69745C90.525 8.632 90.4464 8.59055 90.346 8.57309L89.4428 8.44218V7.624C89.661 7.56727 89.8988 7.51491 90.1562 7.46691C90.4137 7.41455 90.6733 7.37091 90.9351 7.336C91.197 7.30109 91.4566 7.27491 91.714 7.25746C91.9715 7.23564 92.2093 7.22473 92.4275 7.22473L92.709 7.48655ZM98.4997 18.1556V19H94.5528V18.1556L95.2924 18.0247C95.3928 18.0073 95.4713 17.968 95.5281 17.9069C95.5848 17.8415 95.6131 17.7542 95.6131 17.6451V8.90036C95.6131 8.79564 95.5848 8.71273 95.5281 8.65164C95.4757 8.58618 95.3971 8.54473 95.2924 8.52727L94.4088 8.38982V7.57818C94.627 7.51709 94.8626 7.46473 95.1157 7.42109C95.3731 7.37746 95.6306 7.34255 95.8881 7.31636C96.1499 7.28582 96.4073 7.264 96.6604 7.25091C96.9179 7.23346 97.1557 7.22473 97.3739 7.22473L97.6553 7.49964V12.304C97.9739 11.9855 98.3382 11.7542 98.7484 11.6102C99.1586 11.4618 99.595 11.3876 100.058 11.3876C100.93 11.3876 101.526 11.6364 101.844 12.1338C102.167 12.6269 102.329 13.3229 102.329 14.2218V17.6451C102.329 17.7542 102.355 17.8415 102.407 17.9069C102.464 17.968 102.545 18.0073 102.65 18.0247L103.389 18.1556V19H99.4422V18.1556L99.9724 18.0313C100.068 18.0007 100.145 17.9571 100.202 17.9004C100.258 17.8393 100.287 17.7542 100.287 17.6451V14.4836C100.287 13.8335 100.193 13.3644 100.005 13.0764C99.8219 12.7884 99.5077 12.6444 99.0626 12.6444C98.827 12.6444 98.587 12.6793 98.3426 12.7491C98.1026 12.8189 97.8735 12.9258 97.6553 13.0698V17.6451C97.6553 17.7542 97.6815 17.8393 97.7339 17.9004C97.7862 17.9571 97.8626 18.0007 97.963 18.0313L98.4997 18.1556ZM107.754 12.2516C107.401 12.2516 107.108 12.3913 106.877 12.6705C106.65 12.9498 106.504 13.4255 106.439 14.0975H108.919C108.924 14.0538 108.926 14.008 108.926 13.96C108.926 13.912 108.926 13.8575 108.926 13.7964C108.926 13.3469 108.828 12.9782 108.631 12.6902C108.439 12.3978 108.147 12.2516 107.754 12.2516ZM110.785 17.3702C110.61 17.9375 110.252 18.3782 109.711 18.6924C109.17 19.0065 108.513 19.1636 107.741 19.1636C107.152 19.1636 106.639 19.072 106.203 18.8887C105.771 18.7055 105.413 18.448 105.129 18.1164C104.846 17.7847 104.634 17.3833 104.495 16.912C104.359 16.4407 104.292 15.9171 104.292 15.3411C104.292 14.0625 104.612 13.0807 105.254 12.3956C105.9 11.7062 106.79 11.3615 107.924 11.3615C108.889 11.3615 109.613 11.5949 110.097 12.0618C110.586 12.5287 110.831 13.144 110.831 13.9076C110.831 14.056 110.822 14.224 110.804 14.4116C110.787 14.5993 110.763 14.7673 110.732 14.9156H106.399V14.9615C106.399 16 106.556 16.7462 106.871 17.2C107.185 17.6495 107.678 17.8742 108.35 17.8742C108.729 17.8742 109.092 17.8022 109.436 17.6582C109.785 17.5142 110.069 17.3047 110.287 17.0298L110.785 17.3702ZM116.608 18.1622V19H111.987V18.1556L112.726 18.0247C112.831 18.0073 112.912 17.968 112.969 17.9069C113.025 17.8415 113.054 17.7542 113.054 17.6451V13.1615C113.054 13.0524 113.027 12.9629 112.975 12.8931C112.927 12.8189 112.849 12.7731 112.739 12.7556L111.908 12.5985V11.7476C112.301 11.6298 112.726 11.5404 113.185 11.4793C113.643 11.4138 114.066 11.3789 114.454 11.3745L114.775 11.6364L114.991 12.9062C115.279 12.4524 115.626 12.0815 116.032 11.7935C116.438 11.5011 116.859 11.3549 117.295 11.3549C117.435 11.3549 117.607 11.3745 117.812 11.4138C118.017 11.4487 118.174 11.4945 118.283 11.5513C118.305 11.7389 118.316 11.9462 118.316 12.1731C118.321 12.4 118.314 12.6335 118.297 12.8735C118.283 13.1135 118.259 13.3578 118.225 13.6065C118.194 13.8553 118.155 14.0909 118.107 14.3135H117.184L116.968 13.4625C116.924 13.3098 116.865 13.2073 116.791 13.1549C116.717 13.1025 116.61 13.0764 116.47 13.0764C116.265 13.072 116.041 13.1135 115.796 13.2007C115.556 13.288 115.323 13.432 115.096 13.6327V17.6451C115.096 17.7542 115.124 17.8415 115.181 17.9069C115.238 17.9724 115.321 18.0116 115.43 18.0247L116.608 18.1622ZM58.3812 37.216C56.806 37.216 55.6321 36.7709 54.8598 35.8807C54.0874 34.9862 53.7012 33.7251 53.7012 32.0975C53.7012 31.168 53.8212 30.3564 54.0612 29.6625C54.3012 28.9687 54.6372 28.3971 55.0692 27.9476C55.5056 27.4938 56.0336 27.1556 56.6532 26.9331C57.2772 26.7062 57.9667 26.5927 58.7216 26.5927C59.2103 26.5927 59.7296 26.6385 60.2794 26.7302C60.8336 26.8175 61.342 26.9484 61.8045 27.1229C61.8351 27.5375 61.8372 27.9825 61.8111 28.4582C61.7892 28.9338 61.7391 29.4247 61.6605 29.9309H60.4038L60.0438 28.2945C60.0263 28.2073 59.9914 28.12 59.9391 28.0327C59.8911 27.9455 59.8125 27.8669 59.7034 27.7971C59.5769 27.7142 59.4023 27.6444 59.1798 27.5876C58.9572 27.5265 58.7238 27.496 58.4794 27.496C57.742 27.496 57.1616 27.8342 56.7383 28.5105C56.3194 29.1869 56.11 30.2975 56.11 31.8422C56.11 33.2473 56.302 34.3404 56.686 35.1215C57.07 35.9025 57.6831 36.2931 58.5252 36.2931C58.7652 36.2931 59.0009 36.2604 59.2321 36.1949C59.4634 36.1251 59.6554 36.0269 59.8081 35.9004C59.8736 35.848 59.9303 35.7847 59.9783 35.7105C60.0263 35.6364 60.0721 35.536 60.1158 35.4095L60.574 33.9498L61.8111 34.0545C61.8285 34.4429 61.8285 34.8618 61.8111 35.3113C61.7936 35.7564 61.7521 36.208 61.6867 36.6662C61.4685 36.7447 61.2241 36.8189 60.9536 36.8887C60.6874 36.9542 60.4103 37.0109 60.1223 37.0589C59.8343 37.1069 59.542 37.144 59.2452 37.1702C58.9485 37.2007 58.6605 37.216 58.3812 37.216ZM66.019 35.9724C66.2546 35.9724 66.4837 35.9353 66.7063 35.8611C66.9332 35.7825 67.1339 35.6778 67.3085 35.5469V33.8844L66.4117 33.9498C65.9579 33.9804 65.6328 34.0982 65.4365 34.3033C65.2401 34.5084 65.1419 34.7702 65.1419 35.0887C65.1419 35.3767 65.2095 35.5971 65.3448 35.7498C65.4845 35.8982 65.7092 35.9724 66.019 35.9724ZM68.8728 37.1178C68.5194 37.1178 68.2183 37.0502 67.9695 36.9149C67.7252 36.7753 67.5419 36.5462 67.4197 36.2276C67.1623 36.5156 66.8394 36.7425 66.451 36.9084C66.067 37.0698 65.6415 37.1505 65.1746 37.1505C64.5332 37.1505 64.0139 36.9869 63.6168 36.6596C63.2241 36.328 63.0277 35.8829 63.0277 35.3244C63.0277 34.9665 63.1085 34.6567 63.2699 34.3949C63.4357 34.1287 63.6539 33.9105 63.9245 33.7404C64.195 33.5658 64.5026 33.4327 64.8474 33.3411C65.1965 33.2451 65.5543 33.1862 65.9208 33.1644L67.3085 33.0727V32.2938C67.3085 31.7091 67.1819 31.3033 66.9288 31.0764C66.6801 30.8495 66.3114 30.736 65.8226 30.736C65.4168 30.736 65.0394 30.8036 64.6903 30.9389C64.3412 31.0698 64.0161 31.2684 63.715 31.5345L63.2503 31.1156C63.451 30.5702 63.8241 30.1447 64.3695 29.8393C64.9194 29.5295 65.6023 29.3745 66.4183 29.3745C67.4132 29.3745 68.1419 29.6124 68.6045 30.088C69.067 30.5636 69.2983 31.2684 69.2983 32.2022V35.5927C69.2983 35.7324 69.3266 35.8327 69.3834 35.8938C69.4445 35.9505 69.5317 35.9855 69.6452 35.9985L70.3259 36.0771V36.8691C70.1775 36.9127 69.9594 36.9651 69.6714 37.0262C69.3834 37.0873 69.1172 37.1178 68.8728 37.1178ZM72.0104 34.9185V30.6967L70.9566 30.5265V29.7476L71.7813 29.5971C71.8991 29.5796 71.9886 29.5425 72.0497 29.4858C72.1108 29.4247 72.1588 29.3396 72.1937 29.2305L72.8286 27.208H73.974L74.0395 29.5513H76.2191V30.6575H74.0591V34.4145C74.0591 34.9338 74.1398 35.2895 74.3013 35.4815C74.4671 35.6691 74.7028 35.7629 75.0082 35.7629C75.2133 35.7629 75.4206 35.7258 75.63 35.6516C75.8438 35.5731 76.0358 35.4531 76.206 35.2916L76.6511 35.7629C76.4373 36.2167 76.1057 36.5571 75.6562 36.784C75.2068 37.0109 74.6984 37.1244 74.1311 37.1244C73.5071 37.1244 72.9966 36.9716 72.5995 36.6662C72.2068 36.3564 72.0104 35.7738 72.0104 34.9185ZM80.8157 30.2516C80.4622 30.2516 80.1699 30.3913 79.9386 30.6705C79.7117 30.9498 79.5655 31.4255 79.5001 32.0975H81.9808C81.9852 32.0538 81.9873 32.008 81.9873 31.96C81.9873 31.912 81.9873 31.8575 81.9873 31.7964C81.9873 31.3469 81.8892 30.9782 81.6928 30.6902C81.5008 30.3978 81.2084 30.2516 80.8157 30.2516ZM83.8462 35.3702C83.6717 35.9375 83.3139 36.3782 82.7728 36.6924C82.2317 37.0065 81.575 37.1636 80.8026 37.1636C80.2135 37.1636 79.7008 37.072 79.2644 36.8887C78.8324 36.7055 78.4746 36.448 78.191 36.1164C77.9073 35.7847 77.6957 35.3833 77.5561 34.912C77.4208 34.4407 77.3532 33.9171 77.3532 33.3411C77.3532 32.0625 77.6739 31.0807 78.3153 30.3956C78.9612 29.7062 79.8513 29.3615 80.9859 29.3615C81.9502 29.3615 82.6746 29.5949 83.159 30.0618C83.6477 30.5287 83.8921 31.144 83.8921 31.9076C83.8921 32.056 83.8833 32.224 83.8659 32.4116C83.8484 32.5993 83.8244 32.7673 83.7939 32.9156H79.4608V32.9615C79.4608 34 79.6179 34.7462 79.9321 35.2C80.2462 35.6495 80.7393 35.8742 81.4113 35.8742C81.791 35.8742 82.1532 35.8022 82.4979 35.6582C82.847 35.5142 83.1306 35.3047 83.3488 35.0298L83.8462 35.3702ZM87.2606 31.9142C87.2606 32.5207 87.361 32.968 87.5617 33.256C87.7624 33.544 88.0723 33.688 88.4912 33.688C88.897 33.688 89.1894 33.544 89.3683 33.256C89.5515 32.9636 89.6432 32.5251 89.6432 31.9404C89.6432 31.3164 89.5472 30.8713 89.3552 30.6051C89.1675 30.3345 88.8686 30.1993 88.4584 30.1993C88.0919 30.1993 87.7995 30.328 87.5814 30.5855C87.3675 30.8429 87.2606 31.2858 87.2606 31.9142ZM92.6083 37.6742C92.6083 38.1236 92.5035 38.5295 92.2941 38.8916C92.0846 39.2582 91.7901 39.568 91.4104 39.8211C91.0308 40.0742 90.5704 40.2684 90.0294 40.4036C89.4926 40.5433 88.897 40.6131 88.2424 40.6131C87.1079 40.6131 86.2766 40.4189 85.7486 40.0305C85.225 39.6465 84.9632 39.1578 84.9632 38.5644C84.9632 38.1236 85.0919 37.7658 85.3494 37.4909C85.6068 37.216 85.9494 36.9956 86.377 36.8298C86.1108 36.7076 85.9144 36.544 85.7879 36.3389C85.6657 36.1338 85.6046 35.9004 85.6046 35.6385C85.6046 35.2982 85.6941 35.0145 85.873 34.7876C86.0563 34.5607 86.2919 34.3796 86.5799 34.2444C86.1043 34.0436 85.7552 33.7513 85.5326 33.3673C85.3144 32.9833 85.2054 32.5447 85.2054 32.0516C85.2054 31.1833 85.5064 30.5178 86.1086 30.0553C86.7108 29.5884 87.5355 29.3549 88.5828 29.3549C89.089 29.3549 89.5406 29.4138 89.9377 29.5316C90.3348 29.6495 90.6643 29.8218 90.9261 30.0487C91.105 29.8262 91.3014 29.6516 91.5152 29.5251C91.7334 29.3985 91.9537 29.3353 92.1763 29.3353C92.2897 29.3353 92.4097 29.3484 92.5363 29.3745C92.6628 29.4007 92.7719 29.4291 92.8635 29.4596V30.88H91.489C91.5457 31.024 91.5872 31.1789 91.6134 31.3447C91.6395 31.5062 91.6526 31.6785 91.6526 31.8618C91.6526 32.2589 91.585 32.6255 91.4497 32.9615C91.3144 33.2931 91.1094 33.5767 90.8344 33.8124C90.5639 34.0436 90.2192 34.2247 89.8003 34.3556C89.3814 34.4865 88.8926 34.552 88.3341 34.552C88.1464 34.552 87.9654 34.5455 87.7908 34.5324C87.6206 34.5149 87.4592 34.4931 87.3064 34.4669C87.2279 34.5542 87.169 34.648 87.1297 34.7484C87.0948 34.8444 87.0774 34.9447 87.0774 35.0495C87.0774 35.2938 87.1864 35.464 87.4046 35.56C87.6272 35.656 87.9981 35.704 88.5174 35.704H89.9312C90.7995 35.704 91.4628 35.8698 91.921 36.2015C92.3792 36.5287 92.6083 37.0196 92.6083 37.6742ZM88.5828 39.6509C89.1806 39.6509 89.6541 39.5156 90.0032 39.2451C90.3523 38.9789 90.5268 38.5862 90.5268 38.0669C90.5268 37.7265 90.4374 37.4778 90.2584 37.3207C90.0795 37.1636 89.7566 37.0851 89.2897 37.0851H87.8301C87.7341 37.0851 87.6381 37.0829 87.5421 37.0785C87.4504 37.0742 87.3632 37.0676 87.2803 37.0589C87.1712 37.1985 87.0817 37.3644 87.0119 37.5564C86.9464 37.7527 86.9137 37.9709 86.9137 38.2109C86.9137 38.6255 87.0359 38.968 87.2803 39.2385C87.529 39.5135 87.9632 39.6509 88.5828 39.6509ZM93.5953 33.3345C93.5953 32.6189 93.6913 32.008 93.8833 31.5018C94.0797 30.9913 94.3459 30.5789 94.6819 30.2647C95.0223 29.9505 95.4237 29.7215 95.8863 29.5775C96.3488 29.4291 96.8441 29.3549 97.3721 29.3549C98.5197 29.3549 99.4012 29.6822 100.016 30.3367C100.632 30.9869 100.939 31.9404 100.939 33.1971C100.939 33.9127 100.841 34.5236 100.645 35.0298C100.453 35.536 100.187 35.9462 99.8463 36.2604C99.5103 36.5745 99.111 36.8036 98.6484 36.9476C98.1859 37.0916 97.6884 37.1636 97.1561 37.1636C96.0084 37.1636 95.127 36.8385 94.5117 36.1884C93.9008 35.5382 93.5953 34.5869 93.5953 33.3345ZM98.7204 33.3542C98.7204 32.2938 98.6135 31.5149 98.3997 31.0175C98.1903 30.5156 97.7997 30.2647 97.2281 30.2647C96.7524 30.2647 96.3968 30.4829 96.1612 30.9193C95.9255 31.3556 95.8077 32.1062 95.8077 33.1709C95.8077 34.2269 95.9124 35.0058 96.1219 35.5076C96.3357 36.0095 96.7306 36.2604 97.3066 36.2604C97.7823 36.2604 98.1357 36.0422 98.367 35.6058C98.6026 35.1651 98.7204 34.4145 98.7204 33.3542ZM106.72 36.1622V37H102.099V36.1556L102.839 36.0247C102.943 36.0073 103.024 35.968 103.081 35.9069C103.138 35.8415 103.166 35.7542 103.166 35.6451V31.1615C103.166 31.0524 103.14 30.9629 103.087 30.8931C103.039 30.8189 102.961 30.7731 102.852 30.7556L102.02 30.5985V29.7476C102.413 29.6298 102.839 29.5404 103.297 29.4793C103.755 29.4138 104.178 29.3789 104.567 29.3745L104.887 29.6364L105.103 30.9062C105.391 30.4524 105.738 30.0815 106.144 29.7935C106.55 29.5011 106.971 29.3549 107.407 29.3549C107.547 29.3549 107.719 29.3745 107.924 29.4138C108.13 29.4487 108.287 29.4945 108.396 29.5513C108.418 29.7389 108.428 29.9462 108.428 30.1731C108.433 30.4 108.426 30.6335 108.409 30.8735C108.396 31.1135 108.372 31.3578 108.337 31.6065C108.306 31.8553 108.267 32.0909 108.219 32.3135H107.296L107.08 31.4625C107.036 31.3098 106.978 31.2073 106.903 31.1549C106.829 31.1025 106.722 31.0764 106.583 31.0764C106.378 31.072 106.153 31.1135 105.908 31.2007C105.668 31.288 105.435 31.432 105.208 31.6327V35.6451C105.208 35.7542 105.236 35.8415 105.293 35.9069C105.35 35.9724 105.433 36.0116 105.542 36.0247L106.72 36.1622ZM112.468 29.6429V35.6451C112.468 35.7498 112.494 35.8349 112.546 35.9004C112.603 35.9658 112.684 36.0073 112.789 36.0247L113.528 36.1556V37H109.359V36.1556L110.098 36.0247C110.203 36.0073 110.284 35.9658 110.341 35.9004C110.397 35.8349 110.426 35.7498 110.426 35.6451V31.1418C110.426 31.0371 110.4 30.952 110.347 30.8865C110.295 30.8167 110.218 30.7731 110.118 30.7556L109.28 30.5985V29.7476C109.717 29.6255 110.201 29.5338 110.733 29.4727C111.266 29.4116 111.75 29.3811 112.186 29.3811L112.468 29.6429ZM112.494 27.3324C112.494 27.664 112.387 27.9324 112.173 28.1375C111.96 28.3382 111.676 28.4385 111.322 28.4385C110.965 28.4385 110.677 28.3382 110.458 28.1375C110.245 27.9324 110.138 27.664 110.138 27.3324C110.138 27.0051 110.245 26.7411 110.458 26.5404C110.677 26.3396 110.965 26.2393 111.322 26.2393C111.676 26.2393 111.96 26.3396 112.173 26.5404C112.387 26.7411 112.494 27.0051 112.494 27.3324ZM117.382 35.9724C117.618 35.9724 117.847 35.9353 118.07 35.8611C118.296 35.7825 118.497 35.6778 118.672 35.5469V33.8844L117.775 33.9498C117.321 33.9804 116.996 34.0982 116.8 34.3033C116.603 34.5084 116.505 34.7702 116.505 35.0887C116.505 35.3767 116.573 35.5971 116.708 35.7498C116.848 35.8982 117.072 35.9724 117.382 35.9724ZM120.236 37.1178C119.883 37.1178 119.582 37.0502 119.333 36.9149C119.088 36.7753 118.905 36.5462 118.783 36.2276C118.526 36.5156 118.203 36.7425 117.814 36.9084C117.43 37.0698 117.005 37.1505 116.538 37.1505C115.896 37.1505 115.377 36.9869 114.98 36.6596C114.587 36.328 114.391 35.8829 114.391 35.3244C114.391 34.9665 114.472 34.6567 114.633 34.3949C114.799 34.1287 115.017 33.9105 115.288 33.7404C115.558 33.5658 115.866 33.4327 116.211 33.3411C116.56 33.2451 116.918 33.1862 117.284 33.1644L118.672 33.0727V32.2938C118.672 31.7091 118.545 31.3033 118.292 31.0764C118.043 30.8495 117.675 30.736 117.186 30.736C116.78 30.736 116.403 30.8036 116.054 30.9389C115.704 31.0698 115.379 31.2684 115.078 31.5345L114.614 31.1156C114.814 30.5702 115.187 30.1447 115.733 29.8393C116.283 29.5295 116.966 29.3745 117.782 29.3745C118.776 29.3745 119.505 29.6124 119.968 30.088C120.43 30.5636 120.662 31.2684 120.662 32.2022V35.5927C120.662 35.7324 120.69 35.8327 120.747 35.8938C120.808 35.9505 120.895 35.9855 121.008 35.9985L121.689 36.0771V36.8691C121.541 36.9127 121.323 36.9651 121.035 37.0262C120.747 37.0873 120.48 37.1178 120.236 37.1178Z" fill="black"/>
</svg>
