<svg width="156" height="49" viewBox="0 0 156 49" fill="none" xmlns="http://www.w3.org/2000/svg">
<path d="M145.534 0H10C4.47715 0 0 4.47715 0 10V38.45C0 43.9728 4.47715 48.45 10 48.45H145.534C151.057 48.45 155.534 43.9728 155.534 38.45V10C155.534 4.47715 151.057 0 145.534 0Z" fill="#094B4B"/>
<path d="M53.563 27.064C53.419 27.172 53.215 27.292 52.951 27.424C52.699 27.544 52.399 27.658 52.051 27.766C51.703 27.874 51.313 27.964 50.881 28.036C50.461 28.108 50.011 28.144 49.531 28.144C48.511 28.144 47.593 27.97 46.777 27.622C45.973 27.262 45.289 26.782 44.725 26.182C44.161 25.582 43.729 24.886 43.429 24.094C43.129 23.302 42.979 22.462 42.979 21.574C42.979 20.59 43.153 19.684 43.501 18.856C43.861 18.028 44.347 17.314 44.959 16.714C45.571 16.114 46.285 15.646 47.101 15.31C47.929 14.974 48.805 14.806 49.729 14.806C50.077 14.806 50.431 14.83 50.791 14.878C51.151 14.926 51.487 14.992 51.799 15.076C52.123 15.16 52.405 15.262 52.645 15.382C52.897 15.49 53.089 15.604 53.221 15.724C53.125 15.868 53.047 15.988 52.987 16.084C52.939 16.18 52.885 16.282 52.825 16.39C52.765 16.486 52.699 16.6 52.627 16.732C52.555 16.864 52.459 17.038 52.339 17.254C52.183 17.146 51.997 17.056 51.781 16.984C51.577 16.912 51.361 16.852 51.133 16.804C50.905 16.756 50.671 16.72 50.431 16.696C50.203 16.672 49.993 16.66 49.801 16.66C49.105 16.66 48.457 16.792 47.857 17.056C47.269 17.308 46.759 17.656 46.327 18.1C45.895 18.532 45.553 19.036 45.301 19.612C45.061 20.188 44.941 20.788 44.941 21.412C44.941 22.024 45.055 22.612 45.283 23.176C45.523 23.74 45.847 24.244 46.255 24.688C46.675 25.132 47.173 25.486 47.749 25.75C48.337 26.014 48.979 26.146 49.675 26.146C50.047 26.146 50.407 26.11 50.755 26.038C51.103 25.966 51.415 25.882 51.691 25.786C51.979 25.69 52.213 25.594 52.393 25.498C52.585 25.402 52.699 25.33 52.735 25.282L53.563 27.064ZM57.2835 28H55.7535V14.014H57.2835V28ZM59.84 24.31C59.84 23.758 59.942 23.242 60.146 22.762C60.362 22.27 60.65 21.844 61.01 21.484C61.37 21.112 61.784 20.818 62.252 20.602C62.732 20.386 63.242 20.278 63.782 20.278C64.142 20.278 64.472 20.326 64.772 20.422C65.072 20.506 65.33 20.614 65.546 20.746C65.762 20.878 65.936 21.016 66.068 21.16C66.2 21.304 66.29 21.43 66.338 21.538L66.41 20.476H67.886V28H66.338V27.046C66.278 27.142 66.182 27.256 66.05 27.388C65.918 27.52 65.744 27.646 65.528 27.766C65.324 27.874 65.078 27.97 64.79 28.054C64.502 28.138 64.172 28.18 63.8 28.18C63.224 28.18 62.69 28.078 62.198 27.874C61.718 27.658 61.304 27.376 60.956 27.028C60.608 26.668 60.332 26.254 60.128 25.786C59.936 25.318 59.84 24.826 59.84 24.31ZM61.388 24.22C61.388 24.568 61.448 24.892 61.568 25.192C61.7 25.492 61.874 25.75 62.09 25.966C62.306 26.182 62.564 26.356 62.864 26.488C63.164 26.608 63.494 26.668 63.854 26.668C64.214 26.668 64.544 26.608 64.844 26.488C65.156 26.356 65.42 26.182 65.636 25.966C65.864 25.738 66.038 25.48 66.158 25.192C66.278 24.892 66.338 24.568 66.338 24.22C66.338 23.872 66.278 23.554 66.158 23.266C66.038 22.966 65.864 22.708 65.636 22.492C65.42 22.276 65.156 22.108 64.844 21.988C64.544 21.856 64.214 21.79 63.854 21.79C63.494 21.79 63.164 21.856 62.864 21.988C62.564 22.108 62.306 22.276 62.09 22.492C61.874 22.708 61.7 22.966 61.568 23.266C61.448 23.554 61.388 23.872 61.388 24.22ZM63.116 19.252C63.392 18.856 63.668 18.454 63.944 18.046C64.22 17.638 64.496 17.236 64.772 16.84H66.428L64.286 19.252H63.116ZM75.1416 21.142L74.3316 22.222C74.3196 22.21 74.2776 22.18 74.2056 22.132C74.1336 22.084 74.0376 22.036 73.9176 21.988C73.8096 21.94 73.6776 21.898 73.5216 21.862C73.3776 21.814 73.2276 21.79 73.0716 21.79C72.8676 21.79 72.6636 21.838 72.4596 21.934C72.2676 22.03 72.1716 22.21 72.1716 22.474C72.1716 22.702 72.2496 22.888 72.4056 23.032C72.5736 23.176 72.7776 23.308 73.0176 23.428C73.2576 23.536 73.5156 23.65 73.7916 23.77C74.0796 23.89 74.3436 24.04 74.5836 24.22C74.8236 24.388 75.0216 24.604 75.1776 24.868C75.3456 25.12 75.4296 25.444 75.4296 25.84C75.4296 26.512 75.1956 27.07 74.7276 27.514C74.2716 27.946 73.6416 28.162 72.8376 28.162C72.3696 28.162 71.9076 28.084 71.4516 27.928C71.0076 27.76 70.6476 27.52 70.3716 27.208C70.4556 27.124 70.5456 27.016 70.6416 26.884C70.7496 26.752 70.8516 26.626 70.9476 26.506C71.0556 26.386 71.1396 26.29 71.1996 26.218C71.2716 26.134 71.3136 26.092 71.3256 26.092C71.3256 26.104 71.3676 26.14 71.4516 26.2C71.5476 26.26 71.6676 26.326 71.8116 26.398C71.9556 26.458 72.1176 26.518 72.2976 26.578C72.4776 26.626 72.6576 26.65 72.8376 26.65C73.1256 26.65 73.3716 26.578 73.5756 26.434C73.7796 26.29 73.8816 26.098 73.8816 25.858C73.8816 25.642 73.7976 25.474 73.6296 25.354C73.4736 25.222 73.2756 25.102 73.0356 24.994C72.7956 24.886 72.5316 24.778 72.2436 24.67C71.9556 24.55 71.6916 24.4 71.4516 24.22C71.2116 24.04 71.0076 23.818 70.8396 23.554C70.6836 23.278 70.6056 22.924 70.6056 22.492C70.6056 22.084 70.6776 21.742 70.8216 21.466C70.9776 21.19 71.1696 20.968 71.3976 20.8C71.6376 20.62 71.9016 20.494 72.1896 20.422C72.4776 20.338 72.7536 20.296 73.0176 20.296C73.3656 20.296 73.7376 20.368 74.1336 20.512C74.5296 20.656 74.8656 20.866 75.1416 21.142ZM82.1588 21.142L81.3488 22.222C81.3368 22.21 81.2948 22.18 81.2228 22.132C81.1508 22.084 81.0548 22.036 80.9348 21.988C80.8268 21.94 80.6948 21.898 80.5388 21.862C80.3948 21.814 80.2448 21.79 80.0888 21.79C79.8848 21.79 79.6808 21.838 79.4768 21.934C79.2848 22.03 79.1888 22.21 79.1888 22.474C79.1888 22.702 79.2668 22.888 79.4228 23.032C79.5908 23.176 79.7948 23.308 80.0348 23.428C80.2748 23.536 80.5328 23.65 80.8088 23.77C81.0968 23.89 81.3608 24.04 81.6008 24.22C81.8408 24.388 82.0388 24.604 82.1948 24.868C82.3628 25.12 82.4468 25.444 82.4468 25.84C82.4468 26.512 82.2128 27.07 81.7448 27.514C81.2888 27.946 80.6588 28.162 79.8548 28.162C79.3868 28.162 78.9248 28.084 78.4688 27.928C78.0248 27.76 77.6648 27.52 77.3888 27.208C77.4728 27.124 77.5628 27.016 77.6588 26.884C77.7668 26.752 77.8688 26.626 77.9648 26.506C78.0728 26.386 78.1568 26.29 78.2168 26.218C78.2888 26.134 78.3308 26.092 78.3428 26.092C78.3428 26.104 78.3848 26.14 78.4688 26.2C78.5648 26.26 78.6848 26.326 78.8288 26.398C78.9728 26.458 79.1348 26.518 79.3148 26.578C79.4948 26.626 79.6748 26.65 79.8548 26.65C80.1428 26.65 80.3888 26.578 80.5928 26.434C80.7968 26.29 80.8988 26.098 80.8988 25.858C80.8988 25.642 80.8148 25.474 80.6468 25.354C80.4908 25.222 80.2928 25.102 80.0528 24.994C79.8128 24.886 79.5488 24.778 79.2608 24.67C78.9728 24.55 78.7088 24.4 78.4688 24.22C78.2288 24.04 78.0248 23.818 77.8568 23.554C77.7008 23.278 77.6228 22.924 77.6228 22.492C77.6228 22.084 77.6948 21.742 77.8388 21.466C77.9948 21.19 78.1868 20.968 78.4148 20.8C78.6548 20.62 78.9188 20.494 79.2068 20.422C79.4948 20.338 79.7708 20.296 80.0348 20.296C80.3828 20.296 80.7548 20.368 81.1508 20.512C81.5468 20.656 81.8828 20.866 82.1588 21.142ZM84.784 17.596C84.784 17.308 84.886 17.068 85.09 16.876C85.306 16.684 85.534 16.588 85.774 16.588C86.014 16.588 86.236 16.684 86.44 16.876C86.644 17.068 86.746 17.308 86.746 17.596C86.746 17.884 86.644 18.124 86.44 18.316C86.236 18.496 86.014 18.586 85.774 18.586C85.534 18.586 85.306 18.496 85.09 18.316C84.886 18.124 84.784 17.884 84.784 17.596ZM86.512 28H84.982V20.476H86.512V28ZM94.6134 26.146C94.7814 26.35 94.9374 26.548 95.0814 26.74C95.2374 26.92 95.3934 27.112 95.5494 27.316C95.2134 27.58 94.8354 27.79 94.4154 27.946C93.9954 28.102 93.5394 28.18 93.0474 28.18C92.4954 28.18 91.9734 28.078 91.4814 27.874C91.0014 27.658 90.5814 27.37 90.2214 27.01C89.8614 26.65 89.5734 26.23 89.3574 25.75C89.1534 25.27 89.0514 24.76 89.0514 24.22C89.0514 23.68 89.1534 23.17 89.3574 22.69C89.5734 22.21 89.8614 21.796 90.2214 21.448C90.5814 21.088 91.0014 20.806 91.4814 20.602C91.9734 20.386 92.4954 20.278 93.0474 20.278C93.5514 20.278 94.0134 20.356 94.4334 20.512C94.8654 20.668 95.2554 20.878 95.6034 21.142L94.6134 22.312C94.4094 22.144 94.1754 22.018 93.9114 21.934C93.6474 21.838 93.3594 21.79 93.0474 21.79C92.6874 21.79 92.3574 21.856 92.0574 21.988C91.7574 22.108 91.4934 22.276 91.2654 22.492C91.0494 22.708 90.8814 22.966 90.7614 23.266C90.6414 23.554 90.5814 23.872 90.5814 24.22C90.5814 24.568 90.6414 24.892 90.7614 25.192C90.8814 25.48 91.0494 25.738 91.2654 25.966C91.4934 26.182 91.7574 26.356 92.0574 26.488C92.3574 26.608 92.6874 26.668 93.0474 26.668C93.3594 26.668 93.6474 26.626 93.9114 26.542C94.1754 26.446 94.4094 26.314 94.6134 26.146ZM97.176 24.22C97.176 23.68 97.278 23.17 97.482 22.69C97.698 22.21 97.986 21.796 98.346 21.448C98.706 21.088 99.126 20.806 99.606 20.602C100.098 20.386 100.626 20.278 101.19 20.278C101.754 20.278 102.276 20.386 102.756 20.602C103.248 20.806 103.668 21.088 104.016 21.448C104.376 21.796 104.652 22.21 104.844 22.69C105.048 23.17 105.15 23.68 105.15 24.22C105.15 24.76 105.048 25.27 104.844 25.75C104.652 26.23 104.376 26.65 104.016 27.01C103.668 27.37 103.248 27.658 102.756 27.874C102.276 28.078 101.748 28.18 101.172 28.18C100.62 28.18 100.098 28.084 99.606 27.892C99.126 27.7 98.706 27.43 98.346 27.082C97.986 26.734 97.698 26.32 97.482 25.84C97.278 25.348 97.176 24.808 97.176 24.22ZM98.706 24.238C98.706 24.574 98.766 24.892 98.886 25.192C99.018 25.48 99.192 25.738 99.408 25.966C99.636 26.182 99.894 26.356 100.182 26.488C100.482 26.608 100.8 26.668 101.136 26.668C101.472 26.668 101.79 26.608 102.09 26.488C102.39 26.356 102.648 26.182 102.864 25.966C103.092 25.738 103.272 25.48 103.404 25.192C103.536 24.892 103.602 24.574 103.602 24.238C103.602 23.902 103.536 23.584 103.404 23.284C103.272 22.984 103.092 22.726 102.864 22.51C102.648 22.282 102.39 22.108 102.09 21.988C101.79 21.856 101.472 21.79 101.136 21.79C100.8 21.79 100.482 21.856 100.182 21.988C99.894 22.108 99.636 22.282 99.408 22.51C99.192 22.726 99.018 22.984 98.886 23.284C98.766 23.584 98.706 23.902 98.706 24.238ZM111.88 21.142L111.07 22.222C111.058 22.21 111.016 22.18 110.944 22.132C110.872 22.084 110.776 22.036 110.656 21.988C110.548 21.94 110.416 21.898 110.26 21.862C110.116 21.814 109.966 21.79 109.81 21.79C109.606 21.79 109.402 21.838 109.198 21.934C109.006 22.03 108.91 22.21 108.91 22.474C108.91 22.702 108.988 22.888 109.144 23.032C109.312 23.176 109.516 23.308 109.756 23.428C109.996 23.536 110.254 23.65 110.53 23.77C110.818 23.89 111.082 24.04 111.322 24.22C111.562 24.388 111.76 24.604 111.916 24.868C112.084 25.12 112.168 25.444 112.168 25.84C112.168 26.512 111.934 27.07 111.466 27.514C111.01 27.946 110.38 28.162 109.576 28.162C109.108 28.162 108.646 28.084 108.19 27.928C107.746 27.76 107.386 27.52 107.11 27.208C107.194 27.124 107.284 27.016 107.38 26.884C107.488 26.752 107.59 26.626 107.686 26.506C107.794 26.386 107.878 26.29 107.938 26.218C108.01 26.134 108.052 26.092 108.064 26.092C108.064 26.104 108.106 26.14 108.19 26.2C108.286 26.26 108.406 26.326 108.55 26.398C108.694 26.458 108.856 26.518 109.036 26.578C109.216 26.626 109.396 26.65 109.576 26.65C109.864 26.65 110.11 26.578 110.314 26.434C110.518 26.29 110.62 26.098 110.62 25.858C110.62 25.642 110.536 25.474 110.368 25.354C110.212 25.222 110.014 25.102 109.774 24.994C109.534 24.886 109.27 24.778 108.982 24.67C108.694 24.55 108.43 24.4 108.19 24.22C107.95 24.04 107.746 23.818 107.578 23.554C107.422 23.278 107.344 22.924 107.344 22.492C107.344 22.084 107.416 21.742 107.56 21.466C107.716 21.19 107.908 20.968 108.136 20.8C108.376 20.62 108.64 20.494 108.928 20.422C109.216 20.338 109.492 20.296 109.756 20.296C110.104 20.296 110.476 20.368 110.872 20.512C111.268 20.656 111.604 20.866 111.88 21.142Z" fill="#E5E5E5"/>
</svg>
