<svg width="156" height="49" viewBox="0 0 156 49" fill="none" xmlns="http://www.w3.org/2000/svg">
<path d="M145.534 0H10C4.47715 0 0 4.47715 0 10V38.45C0 43.9728 4.47715 48.45 10 48.45H145.534C151.057 48.45 155.534 43.9728 155.534 38.45V10C155.534 4.47715 151.057 0 145.534 0Z" fill="#094B4B"/>
<path d="M20.6786 29.064C20.5346 29.172 20.3306 29.292 20.0666 29.424C19.8146 29.544 19.5146 29.658 19.1666 29.766C18.8186 29.874 18.4286 29.964 17.9966 30.036C17.5766 30.108 17.1266 30.144 16.6466 30.144C15.6266 30.144 14.7086 29.97 13.8926 29.622C13.0886 29.262 12.4046 28.782 11.8406 28.182C11.2766 27.582 10.8446 26.886 10.5446 26.094C10.2446 25.302 10.0946 24.462 10.0946 23.574C10.0946 22.59 10.2686 21.684 10.6166 20.856C10.9766 20.028 11.4626 19.314 12.0746 18.714C12.6866 18.114 13.4006 17.646 14.2166 17.31C15.0446 16.974 15.9206 16.806 16.8446 16.806C17.1926 16.806 17.5466 16.83 17.9066 16.878C18.2666 16.926 18.6026 16.992 18.9146 17.076C19.2386 17.16 19.5206 17.262 19.7606 17.382C20.0126 17.49 20.2046 17.604 20.3366 17.724C20.2406 17.868 20.1626 17.988 20.1026 18.084C20.0546 18.18 20.0006 18.282 19.9406 18.39C19.8806 18.486 19.8146 18.6 19.7426 18.732C19.6706 18.864 19.5746 19.038 19.4546 19.254C19.2986 19.146 19.1126 19.056 18.8966 18.984C18.6926 18.912 18.4766 18.852 18.2486 18.804C18.0206 18.756 17.7866 18.72 17.5466 18.696C17.3186 18.672 17.1086 18.66 16.9166 18.66C16.2206 18.66 15.5726 18.792 14.9726 19.056C14.3846 19.308 13.8746 19.656 13.4426 20.1C13.0106 20.532 12.6686 21.036 12.4166 21.612C12.1766 22.188 12.0566 22.788 12.0566 23.412C12.0566 24.024 12.1706 24.612 12.3986 25.176C12.6386 25.74 12.9626 26.244 13.3706 26.688C13.7906 27.132 14.2886 27.486 14.8646 27.75C15.4526 28.014 16.0946 28.146 16.7906 28.146C17.1626 28.146 17.5226 28.11 17.8706 28.038C18.2186 27.966 18.5306 27.882 18.8066 27.786C19.0946 27.69 19.3286 27.594 19.5086 27.498C19.7006 27.402 19.8146 27.33 19.8506 27.282L20.6786 29.064ZM22.1357 26.22C22.1357 25.68 22.2377 25.17 22.4417 24.69C22.6577 24.21 22.9457 23.796 23.3057 23.448C23.6657 23.088 24.0857 22.806 24.5657 22.602C25.0577 22.386 25.5857 22.278 26.1497 22.278C26.7137 22.278 27.2357 22.386 27.7157 22.602C28.2077 22.806 28.6277 23.088 28.9757 23.448C29.3357 23.796 29.6117 24.21 29.8037 24.69C30.0077 25.17 30.1097 25.68 30.1097 26.22C30.1097 26.76 30.0077 27.27 29.8037 27.75C29.6117 28.23 29.3357 28.65 28.9757 29.01C28.6277 29.37 28.2077 29.658 27.7157 29.874C27.2357 30.078 26.7077 30.18 26.1317 30.18C25.5797 30.18 25.0577 30.084 24.5657 29.892C24.0857 29.7 23.6657 29.43 23.3057 29.082C22.9457 28.734 22.6577 28.32 22.4417 27.84C22.2377 27.348 22.1357 26.808 22.1357 26.22ZM23.6657 26.238C23.6657 26.574 23.7257 26.892 23.8457 27.192C23.9777 27.48 24.1517 27.738 24.3677 27.966C24.5957 28.182 24.8537 28.356 25.1417 28.488C25.4417 28.608 25.7597 28.668 26.0957 28.668C26.4317 28.668 26.7497 28.608 27.0497 28.488C27.3497 28.356 27.6077 28.182 27.8237 27.966C28.0517 27.738 28.2317 27.48 28.3637 27.192C28.4957 26.892 28.5617 26.574 28.5617 26.238C28.5617 25.902 28.4957 25.584 28.3637 25.284C28.2317 24.984 28.0517 24.726 27.8237 24.51C27.6077 24.282 27.3497 24.108 27.0497 23.988C26.7497 23.856 26.4317 23.79 26.0957 23.79C25.7597 23.79 25.4417 23.856 25.1417 23.988C24.8537 24.108 24.5957 24.282 24.3677 24.51C24.1517 24.726 23.9777 24.984 23.8457 25.284C23.7257 25.584 23.6657 25.902 23.6657 26.238ZM32.6456 22.476H33.9956C34.0196 22.848 34.0376 23.19 34.0496 23.502C34.0736 23.802 34.0976 24.102 34.1216 24.402C34.3976 23.754 34.7876 23.238 35.2916 22.854C35.8076 22.47 36.4376 22.278 37.1816 22.278C37.9376 22.278 38.5436 22.488 38.9996 22.908C39.4556 23.328 39.6956 23.868 39.7196 24.528V30H38.1716V25.23C38.1476 24.846 38.0156 24.522 37.7756 24.258C37.5356 23.982 37.1576 23.832 36.6416 23.808C36.2816 23.808 35.9516 23.874 35.6516 24.006C35.3516 24.126 35.0936 24.294 34.8776 24.51C34.6616 24.726 34.4876 24.984 34.3556 25.284C34.2356 25.584 34.1756 25.914 34.1756 26.274V30H32.6456V22.476ZM47.7438 28.146C47.9118 28.35 48.0678 28.548 48.2118 28.74C48.3678 28.92 48.5238 29.112 48.6798 29.316C48.3438 29.58 47.9658 29.79 47.5458 29.946C47.1258 30.102 46.6698 30.18 46.1778 30.18C45.6258 30.18 45.1038 30.078 44.6118 29.874C44.1318 29.658 43.7118 29.37 43.3518 29.01C42.9918 28.65 42.7038 28.23 42.4878 27.75C42.2838 27.27 42.1818 26.76 42.1818 26.22C42.1818 25.68 42.2838 25.17 42.4878 24.69C42.7038 24.21 42.9918 23.796 43.3518 23.448C43.7118 23.088 44.1318 22.806 44.6118 22.602C45.1038 22.386 45.6258 22.278 46.1778 22.278C46.6818 22.278 47.1438 22.356 47.5638 22.512C47.9958 22.668 48.3858 22.878 48.7338 23.142L47.7438 24.312C47.5398 24.144 47.3058 24.018 47.0418 23.934C46.7778 23.838 46.4898 23.79 46.1778 23.79C45.8178 23.79 45.4878 23.856 45.1878 23.988C44.8878 24.108 44.6238 24.276 44.3958 24.492C44.1798 24.708 44.0118 24.966 43.8918 25.266C43.7718 25.554 43.7118 25.872 43.7118 26.22C43.7118 26.568 43.7718 26.892 43.8918 27.192C44.0118 27.48 44.1798 27.738 44.3958 27.966C44.6238 28.182 44.8878 28.356 45.1878 28.488C45.4878 28.608 45.8178 28.668 46.1778 28.668C46.4898 28.668 46.7778 28.626 47.0418 28.542C47.3058 28.446 47.5398 28.314 47.7438 28.146ZM58.0941 30.162H56.7981L56.6181 28.074C56.3421 28.686 55.9521 29.19 55.4481 29.586C54.9561 29.982 54.3261 30.18 53.5581 30.18C52.7901 30.18 52.1781 29.976 51.7221 29.568C51.2781 29.148 51.0441 28.602 51.0201 27.93V22.476H52.5501V27.246C52.5741 27.618 52.7061 27.936 52.9461 28.2C53.1981 28.464 53.5821 28.614 54.0981 28.65C54.4581 28.65 54.7881 28.59 55.0881 28.47C55.3881 28.338 55.6461 28.164 55.8621 27.948C56.0781 27.732 56.2461 27.474 56.3661 27.174C56.4861 26.874 56.5461 26.544 56.5461 26.184V22.476H58.0941V30.162ZM65.2903 24.258C64.9543 24.258 64.6303 24.306 64.3183 24.402C64.0063 24.486 63.7243 24.618 63.4723 24.798C63.2323 24.978 63.0403 25.206 62.8963 25.482C62.7523 25.746 62.6803 26.052 62.6803 26.4V30H61.1503V22.476H62.5003C62.5243 22.848 62.5423 23.19 62.5543 23.502C62.5783 23.802 62.6023 24.102 62.6263 24.402C62.7823 24.078 62.9863 23.784 63.2383 23.52C63.4903 23.256 63.7603 23.034 64.0483 22.854C64.3363 22.674 64.6183 22.536 64.8943 22.44C65.1703 22.332 65.4163 22.278 65.6323 22.278L65.2903 24.258ZM71.8342 23.142L71.0242 24.222C71.0122 24.21 70.9702 24.18 70.8982 24.132C70.8262 24.084 70.7302 24.036 70.6102 23.988C70.5022 23.94 70.3702 23.898 70.2142 23.862C70.0702 23.814 69.9202 23.79 69.7642 23.79C69.5602 23.79 69.3562 23.838 69.1522 23.934C68.9602 24.03 68.8642 24.21 68.8642 24.474C68.8642 24.702 68.9422 24.888 69.0982 25.032C69.2662 25.176 69.4702 25.308 69.7102 25.428C69.9502 25.536 70.2082 25.65 70.4842 25.77C70.7722 25.89 71.0362 26.04 71.2762 26.22C71.5162 26.388 71.7142 26.604 71.8702 26.868C72.0382 27.12 72.1222 27.444 72.1222 27.84C72.1222 28.512 71.8882 29.07 71.4202 29.514C70.9642 29.946 70.3342 30.162 69.5302 30.162C69.0622 30.162 68.6002 30.084 68.1442 29.928C67.7002 29.76 67.3402 29.52 67.0642 29.208C67.1482 29.124 67.2382 29.016 67.3342 28.884C67.4422 28.752 67.5442 28.626 67.6402 28.506C67.7482 28.386 67.8322 28.29 67.8922 28.218C67.9642 28.134 68.0062 28.092 68.0182 28.092C68.0182 28.104 68.0602 28.14 68.1442 28.2C68.2402 28.26 68.3602 28.326 68.5042 28.398C68.6482 28.458 68.8102 28.518 68.9902 28.578C69.1702 28.626 69.3502 28.65 69.5302 28.65C69.8182 28.65 70.0642 28.578 70.2682 28.434C70.4722 28.29 70.5742 28.098 70.5742 27.858C70.5742 27.642 70.4902 27.474 70.3222 27.354C70.1662 27.222 69.9682 27.102 69.7282 26.994C69.4882 26.886 69.2242 26.778 68.9362 26.67C68.6482 26.55 68.3842 26.4 68.1442 26.22C67.9042 26.04 67.7002 25.818 67.5322 25.554C67.3762 25.278 67.2982 24.924 67.2982 24.492C67.2982 24.084 67.3702 23.742 67.5142 23.466C67.6702 23.19 67.8622 22.968 68.0902 22.8C68.3302 22.62 68.5942 22.494 68.8822 22.422C69.1702 22.338 69.4462 22.296 69.7102 22.296C70.0582 22.296 70.4302 22.368 70.8262 22.512C71.2222 22.656 71.5582 22.866 71.8342 23.142ZM74.1353 26.22C74.1353 25.68 74.2373 25.17 74.4413 24.69C74.6573 24.21 74.9453 23.796 75.3053 23.448C75.6653 23.088 76.0853 22.806 76.5653 22.602C77.0573 22.386 77.5853 22.278 78.1493 22.278C78.7133 22.278 79.2353 22.386 79.7153 22.602C80.2073 22.806 80.6273 23.088 80.9753 23.448C81.3353 23.796 81.6113 24.21 81.8033 24.69C82.0073 25.17 82.1093 25.68 82.1093 26.22C82.1093 26.76 82.0073 27.27 81.8033 27.75C81.6113 28.23 81.3353 28.65 80.9753 29.01C80.6273 29.37 80.2073 29.658 79.7153 29.874C79.2353 30.078 78.7073 30.18 78.1313 30.18C77.5793 30.18 77.0573 30.084 76.5653 29.892C76.0853 29.7 75.6653 29.43 75.3053 29.082C74.9453 28.734 74.6573 28.32 74.4413 27.84C74.2373 27.348 74.1353 26.808 74.1353 26.22ZM75.6653 26.238C75.6653 26.574 75.7253 26.892 75.8453 27.192C75.9773 27.48 76.1513 27.738 76.3673 27.966C76.5953 28.182 76.8533 28.356 77.1413 28.488C77.4413 28.608 77.7593 28.668 78.0953 28.668C78.4313 28.668 78.7493 28.608 79.0493 28.488C79.3493 28.356 79.6073 28.182 79.8233 27.966C80.0513 27.738 80.2313 27.48 80.3633 27.192C80.4953 26.892 80.5613 26.574 80.5613 26.238C80.5613 25.902 80.4953 25.584 80.3633 25.284C80.2313 24.984 80.0513 24.726 79.8233 24.51C79.6073 24.282 79.3493 24.108 79.0493 23.988C78.7493 23.856 78.4313 23.79 78.0953 23.79C77.7593 23.79 77.4413 23.856 77.1413 23.988C76.8533 24.108 76.5953 24.282 76.3673 24.51C76.1513 24.726 75.9773 24.984 75.8453 25.284C75.7253 25.584 75.6653 25.902 75.6653 26.238ZM92.1957 23.484H93.9777C94.4577 23.484 94.8597 23.4 95.1837 23.232C95.5077 23.064 95.7597 22.86 95.9397 22.62C96.1317 22.38 96.2637 22.122 96.3357 21.846C96.4197 21.57 96.4617 21.324 96.4617 21.108C96.4617 20.88 96.4197 20.634 96.3357 20.37C96.2637 20.094 96.1317 19.842 95.9397 19.614C95.7477 19.374 95.4897 19.176 95.1657 19.02C94.8537 18.864 94.4637 18.786 93.9957 18.786H92.1957V23.484ZM90.2157 30V16.95H93.7797C94.4637 16.95 95.0877 17.04 95.6517 17.22C96.2277 17.4 96.7197 17.67 97.1277 18.03C97.5477 18.378 97.8717 18.81 98.0997 19.326C98.3277 19.83 98.4417 20.412 98.4417 21.072C98.4417 21.588 98.3637 22.104 98.2077 22.62C98.0517 23.124 97.7997 23.58 97.4517 23.988C97.1037 24.384 96.6477 24.708 96.0837 24.96C95.5197 25.212 94.8357 25.338 94.0317 25.338H92.1957V30H90.2157ZM107.598 30.162H106.302L106.122 28.074C105.846 28.686 105.456 29.19 104.952 29.586C104.46 29.982 103.83 30.18 103.062 30.18C102.294 30.18 101.682 29.976 101.226 29.568C100.782 29.148 100.548 28.602 100.524 27.93V22.476H102.054V27.246C102.078 27.618 102.21 27.936 102.45 28.2C102.702 28.464 103.086 28.614 103.602 28.65C103.962 28.65 104.292 28.59 104.592 28.47C104.892 28.338 105.15 28.164 105.366 27.948C105.582 27.732 105.75 27.474 105.87 27.174C105.99 26.874 106.05 26.544 106.05 26.184V22.476H107.598V30.162ZM103.134 21.252C103.41 20.856 103.686 20.454 103.962 20.046C104.238 19.638 104.514 19.236 104.79 18.84H106.446L104.304 21.252H103.134ZM118.682 26.256C118.682 26.82 118.586 27.342 118.394 27.822C118.202 28.302 117.932 28.716 117.584 29.064C117.236 29.412 116.816 29.688 116.324 29.892C115.844 30.084 115.316 30.18 114.74 30.18C114.44 30.18 114.152 30.144 113.876 30.072C113.612 30.012 113.366 29.928 113.138 29.82C112.91 29.7 112.712 29.574 112.544 29.442C112.376 29.298 112.25 29.154 112.166 29.01C112.166 29.07 112.166 29.136 112.166 29.208C112.178 29.268 112.184 29.328 112.184 29.388V30H110.636V16.014H112.184V23.574C112.28 23.43 112.406 23.286 112.562 23.142C112.73 22.986 112.922 22.848 113.138 22.728C113.366 22.596 113.618 22.488 113.894 22.404C114.17 22.32 114.476 22.278 114.812 22.278C115.388 22.278 115.91 22.374 116.378 22.566C116.858 22.746 117.266 23.01 117.602 23.358C117.95 23.694 118.214 24.108 118.394 24.6C118.586 25.092 118.682 25.644 118.682 26.256ZM117.008 26.22C117.008 25.872 116.954 25.554 116.846 25.266C116.738 24.966 116.582 24.708 116.378 24.492C116.174 24.276 115.928 24.108 115.64 23.988C115.352 23.856 115.028 23.79 114.668 23.79C114.308 23.79 113.972 23.856 113.66 23.988C113.36 24.108 113.102 24.276 112.886 24.492C112.67 24.708 112.496 24.966 112.364 25.266C112.244 25.554 112.184 25.872 112.184 26.22C112.184 26.568 112.244 26.892 112.364 27.192C112.496 27.492 112.67 27.75 112.886 27.966C113.102 28.182 113.36 28.356 113.66 28.488C113.972 28.608 114.308 28.668 114.668 28.668C115.028 28.668 115.352 28.608 115.64 28.488C115.928 28.356 116.174 28.182 116.378 27.966C116.582 27.738 116.738 27.48 116.846 27.192C116.954 26.892 117.008 26.568 117.008 26.22ZM122.805 30H121.275V16.014H122.805V30ZM125.686 19.596C125.686 19.308 125.788 19.068 125.992 18.876C126.208 18.684 126.436 18.588 126.676 18.588C126.916 18.588 127.138 18.684 127.342 18.876C127.546 19.068 127.648 19.308 127.648 19.596C127.648 19.884 127.546 20.124 127.342 20.316C127.138 20.496 126.916 20.586 126.676 20.586C126.436 20.586 126.208 20.496 125.992 20.316C125.788 20.124 125.686 19.884 125.686 19.596ZM127.414 30H125.884V22.476H127.414V30ZM135.515 28.146C135.683 28.35 135.839 28.548 135.983 28.74C136.139 28.92 136.295 29.112 136.451 29.316C136.115 29.58 135.737 29.79 135.317 29.946C134.897 30.102 134.441 30.18 133.949 30.18C133.397 30.18 132.875 30.078 132.383 29.874C131.903 29.658 131.483 29.37 131.123 29.01C130.763 28.65 130.475 28.23 130.259 27.75C130.055 27.27 129.953 26.76 129.953 26.22C129.953 25.68 130.055 25.17 130.259 24.69C130.475 24.21 130.763 23.796 131.123 23.448C131.483 23.088 131.903 22.806 132.383 22.602C132.875 22.386 133.397 22.278 133.949 22.278C134.453 22.278 134.915 22.356 135.335 22.512C135.767 22.668 136.157 22.878 136.505 23.142L135.515 24.312C135.311 24.144 135.077 24.018 134.813 23.934C134.549 23.838 134.261 23.79 133.949 23.79C133.589 23.79 133.259 23.856 132.959 23.988C132.659 24.108 132.395 24.276 132.167 24.492C131.951 24.708 131.783 24.966 131.663 25.266C131.543 25.554 131.483 25.872 131.483 26.22C131.483 26.568 131.543 26.892 131.663 27.192C131.783 27.48 131.951 27.738 132.167 27.966C132.395 28.182 132.659 28.356 132.959 28.488C133.259 28.608 133.589 28.668 133.949 28.668C134.261 28.668 134.549 28.626 134.813 28.542C135.077 28.446 135.311 28.314 135.515 28.146ZM138.078 26.22C138.078 25.68 138.18 25.17 138.384 24.69C138.6 24.21 138.888 23.796 139.248 23.448C139.608 23.088 140.028 22.806 140.508 22.602C141 22.386 141.528 22.278 142.092 22.278C142.656 22.278 143.178 22.386 143.658 22.602C144.15 22.806 144.57 23.088 144.918 23.448C145.278 23.796 145.554 24.21 145.746 24.69C145.95 25.17 146.052 25.68 146.052 26.22C146.052 26.76 145.95 27.27 145.746 27.75C145.554 28.23 145.278 28.65 144.918 29.01C144.57 29.37 144.15 29.658 143.658 29.874C143.178 30.078 142.65 30.18 142.074 30.18C141.522 30.18 141 30.084 140.508 29.892C140.028 29.7 139.608 29.43 139.248 29.082C138.888 28.734 138.6 28.32 138.384 27.84C138.18 27.348 138.078 26.808 138.078 26.22ZM139.608 26.238C139.608 26.574 139.668 26.892 139.788 27.192C139.92 27.48 140.094 27.738 140.31 27.966C140.538 28.182 140.796 28.356 141.084 28.488C141.384 28.608 141.702 28.668 142.038 28.668C142.374 28.668 142.692 28.608 142.992 28.488C143.292 28.356 143.55 28.182 143.766 27.966C143.994 27.738 144.174 27.48 144.306 27.192C144.438 26.892 144.504 26.574 144.504 26.238C144.504 25.902 144.438 25.584 144.306 25.284C144.174 24.984 143.994 24.726 143.766 24.51C143.55 24.282 143.292 24.108 142.992 23.988C142.692 23.856 142.374 23.79 142.038 23.79C141.702 23.79 141.384 23.856 141.084 23.988C140.796 24.108 140.538 24.282 140.31 24.51C140.094 24.726 139.92 24.984 139.788 25.284C139.668 25.584 139.608 25.902 139.608 26.238Z" fill="#FFFBFB"/>
</svg>
