<svg width="157" height="49" viewBox="0 0 157 49" fill="none" xmlns="http://www.w3.org/2000/svg">
<path d="M146.113 0H10.5792C5.05635 0 0.579193 4.47715 0.579193 10V38.45C0.579193 43.9728 5.05635 48.45 10.5792 48.45H146.113C151.636 48.45 156.113 43.9728 156.113 38.45V10C156.113 4.47715 151.636 0 146.113 0Z" fill="#094B4B"/>
<path d="M22.058 18.95H24.02V32H22.058V18.95ZM27.3733 24.476H28.7233C28.7473 24.848 28.7653 25.19 28.7773 25.502C28.8013 25.802 28.8253 26.102 28.8493 26.402C29.1253 25.754 29.5153 25.238 30.0193 24.854C30.5353 24.47 31.1653 24.278 31.9093 24.278C32.6653 24.278 33.2713 24.488 33.7273 24.908C34.1833 25.328 34.4233 25.868 34.4473 26.528V32H32.8993V27.23C32.8753 26.846 32.7433 26.522 32.5033 26.258C32.2633 25.982 31.8853 25.832 31.3693 25.808C31.0093 25.808 30.6793 25.874 30.3793 26.006C30.0793 26.126 29.8213 26.294 29.6053 26.51C29.3893 26.726 29.2153 26.984 29.0833 27.284C28.9633 27.584 28.9033 27.914 28.9033 28.274V32H27.3733V24.476ZM36.6935 25.97V24.458H37.9715V22.712C37.9715 21.14 38.3375 19.976 39.0695 19.22C39.8135 18.452 40.8635 18.05 42.2195 18.014V19.49C41.2835 19.538 40.5995 19.838 40.1675 20.39C39.7355 20.942 39.5195 21.728 39.5195 22.748V24.458H41.8955V25.97H39.5195V32H37.9715V25.97H36.6935ZM43.2721 28.31C43.2721 27.758 43.3741 27.242 43.5781 26.762C43.7941 26.27 44.0821 25.844 44.4421 25.484C44.8021 25.112 45.2161 24.818 45.6841 24.602C46.1641 24.386 46.6741 24.278 47.2141 24.278C47.5741 24.278 47.9041 24.326 48.2041 24.422C48.5041 24.506 48.7621 24.614 48.9781 24.746C49.1941 24.878 49.3681 25.016 49.5001 25.16C49.6321 25.304 49.7221 25.43 49.7701 25.538L49.8421 24.476H51.3181V32H49.7701V31.046C49.7101 31.142 49.6141 31.256 49.4821 31.388C49.3501 31.52 49.1761 31.646 48.9601 31.766C48.7561 31.874 48.5101 31.97 48.2221 32.054C47.9341 32.138 47.6041 32.18 47.2321 32.18C46.6561 32.18 46.1221 32.078 45.6301 31.874C45.1501 31.658 44.7361 31.376 44.3881 31.028C44.0401 30.668 43.7641 30.254 43.5601 29.786C43.3681 29.318 43.2721 28.826 43.2721 28.31ZM44.8201 28.22C44.8201 28.568 44.8801 28.892 45.0001 29.192C45.1321 29.492 45.3061 29.75 45.5221 29.966C45.7381 30.182 45.9961 30.356 46.2961 30.488C46.5961 30.608 46.9261 30.668 47.2861 30.668C47.6461 30.668 47.9761 30.608 48.2761 30.488C48.5881 30.356 48.8521 30.182 49.0681 29.966C49.2961 29.738 49.4701 29.48 49.5901 29.192C49.7101 28.892 49.7701 28.568 49.7701 28.22C49.7701 27.872 49.7101 27.554 49.5901 27.266C49.4701 26.966 49.2961 26.708 49.0681 26.492C48.8521 26.276 48.5881 26.108 48.2761 25.988C47.9761 25.856 47.6461 25.79 47.2861 25.79C46.9261 25.79 46.5961 25.856 46.2961 25.988C45.9961 26.108 45.7381 26.276 45.5221 26.492C45.3061 26.708 45.1321 26.966 45.0001 27.266C44.8801 27.554 44.8201 27.872 44.8201 28.22ZM54.2897 24.476H55.6397C55.6637 24.848 55.6817 25.19 55.6937 25.502C55.7177 25.802 55.7417 26.102 55.7657 26.402C56.0417 25.754 56.4317 25.238 56.9357 24.854C57.4517 24.47 58.0817 24.278 58.8257 24.278C59.5817 24.278 60.1877 24.488 60.6437 24.908C61.0997 25.328 61.3397 25.868 61.3637 26.528V32H59.8157V27.23C59.7917 26.846 59.6597 26.522 59.4197 26.258C59.1797 25.982 58.8017 25.832 58.2857 25.808C57.9257 25.808 57.5957 25.874 57.2957 26.006C56.9957 26.126 56.7377 26.294 56.5217 26.51C56.3057 26.726 56.1317 26.984 55.9997 27.284C55.8797 27.584 55.8197 27.914 55.8197 28.274V32H54.2897V24.476ZM64.9059 21.164H66.4359V24.494H68.4519V25.862H66.4359V32H64.9059V25.862H63.5559V24.494H64.9059V21.164ZM69.8544 28.22C69.8544 27.68 69.9564 27.17 70.1604 26.69C70.3764 26.21 70.6644 25.796 71.0244 25.448C71.3844 25.088 71.8044 24.806 72.2844 24.602C72.7764 24.386 73.3044 24.278 73.8684 24.278C74.4324 24.278 74.9544 24.386 75.4344 24.602C75.9264 24.806 76.3464 25.088 76.6944 25.448C77.0544 25.796 77.3304 26.21 77.5224 26.69C77.7264 27.17 77.8284 27.68 77.8284 28.22C77.8284 28.76 77.7264 29.27 77.5224 29.75C77.3304 30.23 77.0544 30.65 76.6944 31.01C76.3464 31.37 75.9264 31.658 75.4344 31.874C74.9544 32.078 74.4264 32.18 73.8504 32.18C73.2984 32.18 72.7764 32.084 72.2844 31.892C71.8044 31.7 71.3844 31.43 71.0244 31.082C70.6644 30.734 70.3764 30.32 70.1604 29.84C69.9564 29.348 69.8544 28.808 69.8544 28.22ZM71.3844 28.238C71.3844 28.574 71.4444 28.892 71.5644 29.192C71.6964 29.48 71.8704 29.738 72.0864 29.966C72.3144 30.182 72.5724 30.356 72.8604 30.488C73.1604 30.608 73.4784 30.668 73.8144 30.668C74.1504 30.668 74.4684 30.608 74.7684 30.488C75.0684 30.356 75.3264 30.182 75.5424 29.966C75.7704 29.738 75.9504 29.48 76.0824 29.192C76.2144 28.892 76.2804 28.574 76.2804 28.238C76.2804 27.902 76.2144 27.584 76.0824 27.284C75.9504 26.984 75.7704 26.726 75.5424 26.51C75.3264 26.282 75.0684 26.108 74.7684 25.988C74.4684 25.856 74.1504 25.79 73.8144 25.79C73.4784 25.79 73.1604 25.856 72.8604 25.988C72.5724 26.108 72.3144 26.282 72.0864 26.51C71.8704 26.726 71.6964 26.984 71.5644 27.284C71.4444 27.584 71.3844 27.902 71.3844 28.238ZM83.6488 34.7V32.846C84.4888 32.798 85.1728 32.51 85.7008 31.982C86.2408 31.454 86.5108 30.632 86.5108 29.516V18.95H88.4908V29.57C88.4908 30.374 88.3708 31.088 88.1308 31.712C87.8908 32.336 87.5548 32.864 87.1228 33.296C86.6908 33.74 86.1748 34.076 85.5748 34.304C84.9868 34.544 84.3448 34.676 83.6488 34.7ZM98.7577 32.162H97.4617L97.2817 30.074C97.0057 30.686 96.6157 31.19 96.1117 31.586C95.6197 31.982 94.9897 32.18 94.2217 32.18C93.4537 32.18 92.8417 31.976 92.3857 31.568C91.9417 31.148 91.7077 30.602 91.6837 29.93V24.476H93.2137V29.246C93.2377 29.618 93.3697 29.936 93.6097 30.2C93.8617 30.464 94.2457 30.614 94.7617 30.65C95.1217 30.65 95.4517 30.59 95.7517 30.47C96.0517 30.338 96.3097 30.164 96.5257 29.948C96.7417 29.732 96.9097 29.474 97.0297 29.174C97.1497 28.874 97.2097 28.544 97.2097 28.184V24.476H98.7577V32.162ZM104.658 32.45C103.95 31.106 103.284 29.78 102.66 28.472C102.048 27.152 101.4 25.82 100.716 24.476H102.39C102.822 25.328 103.164 26.024 103.416 26.564C103.68 27.104 103.89 27.554 104.046 27.914C104.202 28.274 104.322 28.58 104.406 28.832C104.49 29.072 104.574 29.318 104.658 29.57C104.754 29.318 104.844 29.072 104.928 28.832C105.024 28.58 105.144 28.274 105.288 27.914C105.444 27.554 105.648 27.104 105.9 26.564C106.164 26.024 106.512 25.328 106.944 24.476H108.618C107.934 25.82 107.274 27.152 106.638 28.472C106.002 29.78 105.342 31.106 104.658 32.45ZM116.658 31.118C116.298 31.442 115.86 31.7 115.344 31.892C114.828 32.084 114.3 32.18 113.76 32.18C113.208 32.18 112.686 32.078 112.194 31.874C111.714 31.658 111.294 31.376 110.934 31.028C110.574 30.668 110.286 30.248 110.07 29.768C109.866 29.288 109.764 28.778 109.764 28.238C109.764 27.698 109.866 27.188 110.07 26.708C110.286 26.228 110.574 25.808 110.934 25.448C111.294 25.088 111.708 24.806 112.176 24.602C112.656 24.386 113.166 24.278 113.706 24.278C114.558 24.278 115.296 24.536 115.92 25.052C116.556 25.556 117.012 26.222 117.288 27.05C116.916 27.182 116.49 27.344 116.01 27.536C115.53 27.728 115.032 27.932 114.516 28.148C114 28.352 113.484 28.556 112.968 28.76C112.452 28.964 111.972 29.15 111.528 29.318C111.732 29.726 112.026 30.056 112.41 30.308C112.806 30.548 113.244 30.668 113.724 30.668C114.048 30.668 114.372 30.608 114.696 30.488C115.032 30.368 115.302 30.206 115.506 30.002L116.658 31.118ZM115.362 26.69C115.218 26.39 114.99 26.168 114.678 26.024C114.366 25.868 114.048 25.79 113.724 25.79C113.376 25.79 113.052 25.856 112.752 25.988C112.464 26.12 112.212 26.3 111.996 26.528C111.78 26.744 111.606 26.996 111.474 27.284C111.354 27.572 111.294 27.866 111.294 28.166C111.294 28.226 111.294 28.268 111.294 28.292C111.306 28.316 111.312 28.334 111.312 28.346C111.624 28.226 111.96 28.094 112.32 27.95C112.692 27.794 113.058 27.644 113.418 27.5C113.778 27.344 114.126 27.2 114.462 27.068C114.798 26.924 115.098 26.798 115.362 26.69ZM119.428 24.476H120.778C120.802 24.848 120.82 25.19 120.832 25.502C120.856 25.802 120.88 26.102 120.904 26.402C121.18 25.754 121.57 25.238 122.074 24.854C122.59 24.47 123.22 24.278 123.964 24.278C124.72 24.278 125.326 24.488 125.782 24.908C126.238 25.328 126.478 25.868 126.502 26.528V32H124.954V27.23C124.93 26.846 124.798 26.522 124.558 26.258C124.318 25.982 123.94 25.832 123.424 25.808C123.064 25.808 122.734 25.874 122.434 26.006C122.134 26.126 121.876 26.294 121.66 26.51C121.444 26.726 121.27 26.984 121.138 27.284C121.018 27.584 120.958 27.914 120.958 28.274V32H119.428V24.476ZM129.198 21.596C129.198 21.308 129.3 21.068 129.504 20.876C129.72 20.684 129.948 20.588 130.188 20.588C130.428 20.588 130.65 20.684 130.854 20.876C131.058 21.068 131.16 21.308 131.16 21.596C131.16 21.884 131.058 22.124 130.854 22.316C130.65 22.496 130.428 22.586 130.188 22.586C129.948 22.586 129.72 22.496 129.504 22.316C129.3 22.124 129.198 21.884 129.198 21.596ZM130.926 32H129.396V24.476H130.926V32ZM135.445 32H133.915V18.014H135.445V32Z" fill="#FFFBFB"/>
</svg>
