<svg width="156" height="49" viewBox="0 0 156 49" fill="none" xmlns="http://www.w3.org/2000/svg">
<path d="M145.534 0H10C4.47715 0 0 4.47715 0 10V38.45C0 43.9728 4.47715 48.45 10 48.45H145.534C151.057 48.45 155.534 43.9728 155.534 38.45V10C155.534 4.47715 151.057 0 145.534 0Z" fill="#094B4B"/>
<path d="M8.98864 24.484H10.7706C11.2506 24.484 11.6526 24.4 11.9766 24.232C12.3006 24.064 12.5526 23.86 12.7326 23.62C12.9246 23.38 13.0566 23.122 13.1286 22.846C13.2126 22.57 13.2546 22.324 13.2546 22.108C13.2546 21.88 13.2126 21.634 13.1286 21.37C13.0566 21.094 12.9246 20.842 12.7326 20.614C12.5406 20.374 12.2826 20.176 11.9586 20.02C11.6466 19.864 11.2566 19.786 10.7886 19.786H8.98864V24.484ZM7.00864 31V17.95H10.5726C11.2566 17.95 11.8806 18.04 12.4446 18.22C13.0206 18.4 13.5126 18.67 13.9206 19.03C14.3406 19.378 14.6646 19.81 14.8926 20.326C15.1206 20.83 15.2346 21.412 15.2346 22.072C15.2346 22.588 15.1566 23.104 15.0006 23.62C14.8446 24.124 14.5926 24.58 14.2446 24.988C13.8966 25.384 13.4406 25.708 12.8766 25.96C12.3126 26.212 11.6286 26.338 10.8246 26.338H8.98864V31H7.00864ZM16.2865 27.22C16.2865 26.68 16.3885 26.17 16.5925 25.69C16.8085 25.21 17.0965 24.796 17.4565 24.448C17.8165 24.088 18.2365 23.806 18.7165 23.602C19.2085 23.386 19.7365 23.278 20.3005 23.278C20.8645 23.278 21.3865 23.386 21.8665 23.602C22.3585 23.806 22.7785 24.088 23.1265 24.448C23.4865 24.796 23.7625 25.21 23.9545 25.69C24.1585 26.17 24.2605 26.68 24.2605 27.22C24.2605 27.76 24.1585 28.27 23.9545 28.75C23.7625 29.23 23.4865 29.65 23.1265 30.01C22.7785 30.37 22.3585 30.658 21.8665 30.874C21.3865 31.078 20.8585 31.18 20.2825 31.18C19.7305 31.18 19.2085 31.084 18.7165 30.892C18.2365 30.7 17.8165 30.43 17.4565 30.082C17.0965 29.734 16.8085 29.32 16.5925 28.84C16.3885 28.348 16.2865 27.808 16.2865 27.22ZM17.8165 27.238C17.8165 27.574 17.8765 27.892 17.9965 28.192C18.1285 28.48 18.3025 28.738 18.5185 28.966C18.7465 29.182 19.0045 29.356 19.2925 29.488C19.5925 29.608 19.9105 29.668 20.2465 29.668C20.5825 29.668 20.9005 29.608 21.2005 29.488C21.5005 29.356 21.7585 29.182 21.9745 28.966C22.2025 28.738 22.3825 28.48 22.5145 28.192C22.6465 27.892 22.7125 27.574 22.7125 27.238C22.7125 26.902 22.6465 26.584 22.5145 26.284C22.3825 25.984 22.2025 25.726 21.9745 25.51C21.7585 25.282 21.5005 25.108 21.2005 24.988C20.9005 24.856 20.5825 24.79 20.2465 24.79C19.9105 24.79 19.5925 24.856 19.2925 24.988C19.0045 25.108 18.7465 25.282 18.5185 25.51C18.3025 25.726 18.1285 25.984 17.9965 26.284C17.8765 26.584 17.8165 26.902 17.8165 27.238ZM33.1684 30.118C32.8084 30.442 32.3704 30.7 31.8544 30.892C31.3384 31.084 30.8104 31.18 30.2704 31.18C29.7184 31.18 29.1964 31.078 28.7044 30.874C28.2244 30.658 27.8044 30.376 27.4444 30.028C27.0844 29.668 26.7964 29.248 26.5804 28.768C26.3764 28.288 26.2744 27.778 26.2744 27.238C26.2744 26.698 26.3764 26.188 26.5804 25.708C26.7964 25.228 27.0844 24.808 27.4444 24.448C27.8044 24.088 28.2184 23.806 28.6864 23.602C29.1664 23.386 29.6764 23.278 30.2164 23.278C31.0684 23.278 31.8064 23.536 32.4304 24.052C33.0664 24.556 33.5224 25.222 33.7984 26.05C33.4264 26.182 33.0004 26.344 32.5204 26.536C32.0404 26.728 31.5424 26.932 31.0264 27.148C30.5104 27.352 29.9944 27.556 29.4784 27.76C28.9624 27.964 28.4824 28.15 28.0384 28.318C28.2424 28.726 28.5364 29.056 28.9204 29.308C29.3164 29.548 29.7544 29.668 30.2344 29.668C30.5584 29.668 30.8824 29.608 31.2064 29.488C31.5424 29.368 31.8124 29.206 32.0164 29.002L33.1684 30.118ZM31.8724 25.69C31.7284 25.39 31.5004 25.168 31.1884 25.024C30.8764 24.868 30.5584 24.79 30.2344 24.79C29.8864 24.79 29.5624 24.856 29.2624 24.988C28.9744 25.12 28.7224 25.3 28.5064 25.528C28.2904 25.744 28.1164 25.996 27.9844 26.284C27.8644 26.572 27.8044 26.866 27.8044 27.166C27.8044 27.226 27.8044 27.268 27.8044 27.292C27.8164 27.316 27.8224 27.334 27.8224 27.346C28.1344 27.226 28.4704 27.094 28.8304 26.95C29.2024 26.794 29.5684 26.644 29.9284 26.5C30.2884 26.344 30.6364 26.2 30.9724 26.068C31.3084 25.924 31.6084 25.798 31.8724 25.69ZM40.2224 24.142L39.4124 25.222C39.4004 25.21 39.3584 25.18 39.2864 25.132C39.2144 25.084 39.1184 25.036 38.9984 24.988C38.8904 24.94 38.7584 24.898 38.6024 24.862C38.4584 24.814 38.3084 24.79 38.1524 24.79C37.9484 24.79 37.7444 24.838 37.5404 24.934C37.3484 25.03 37.2524 25.21 37.2524 25.474C37.2524 25.702 37.3304 25.888 37.4864 26.032C37.6544 26.176 37.8584 26.308 38.0984 26.428C38.3384 26.536 38.5964 26.65 38.8724 26.77C39.1604 26.89 39.4244 27.04 39.6644 27.22C39.9044 27.388 40.1024 27.604 40.2584 27.868C40.4264 28.12 40.5104 28.444 40.5104 28.84C40.5104 29.512 40.2764 30.07 39.8084 30.514C39.3524 30.946 38.7224 31.162 37.9184 31.162C37.4504 31.162 36.9884 31.084 36.5324 30.928C36.0884 30.76 35.7284 30.52 35.4524 30.208C35.5364 30.124 35.6264 30.016 35.7224 29.884C35.8304 29.752 35.9324 29.626 36.0284 29.506C36.1364 29.386 36.2204 29.29 36.2804 29.218C36.3524 29.134 36.3944 29.092 36.4064 29.092C36.4064 29.104 36.4484 29.14 36.5324 29.2C36.6284 29.26 36.7484 29.326 36.8924 29.398C37.0364 29.458 37.1984 29.518 37.3784 29.578C37.5584 29.626 37.7384 29.65 37.9184 29.65C38.2064 29.65 38.4524 29.578 38.6564 29.434C38.8604 29.29 38.9624 29.098 38.9624 28.858C38.9624 28.642 38.8784 28.474 38.7104 28.354C38.5544 28.222 38.3564 28.102 38.1164 27.994C37.8764 27.886 37.6124 27.778 37.3244 27.67C37.0364 27.55 36.7724 27.4 36.5324 27.22C36.2924 27.04 36.0884 26.818 35.9204 26.554C35.7644 26.278 35.6864 25.924 35.6864 25.492C35.6864 25.084 35.7584 24.742 35.9024 24.466C36.0584 24.19 36.2504 23.968 36.4784 23.8C36.7184 23.62 36.9824 23.494 37.2704 23.422C37.5584 23.338 37.8344 23.296 38.0984 23.296C38.4464 23.296 38.8184 23.368 39.2144 23.512C39.6104 23.656 39.9464 23.866 40.2224 24.142ZM42.8476 20.596C42.8476 20.308 42.9496 20.068 43.1536 19.876C43.3696 19.684 43.5976 19.588 43.8376 19.588C44.0776 19.588 44.2996 19.684 44.5036 19.876C44.7076 20.068 44.8096 20.308 44.8096 20.596C44.8096 20.884 44.7076 21.124 44.5036 21.316C44.2996 21.496 44.0776 21.586 43.8376 21.586C43.5976 21.586 43.3696 21.496 43.1536 21.316C42.9496 21.124 42.8476 20.884 42.8476 20.596ZM44.5756 31H43.0456V23.476H44.5756V31ZM47.115 27.31C47.115 26.758 47.217 26.242 47.421 25.762C47.637 25.27 47.925 24.844 48.285 24.484C48.645 24.112 49.059 23.818 49.527 23.602C50.007 23.386 50.517 23.278 51.057 23.278C51.417 23.278 51.747 23.326 52.047 23.422C52.347 23.506 52.605 23.614 52.821 23.746C53.037 23.878 53.211 24.016 53.343 24.16C53.475 24.304 53.565 24.43 53.613 24.538L53.685 23.476H55.161V31H53.613V30.046C53.553 30.142 53.457 30.256 53.325 30.388C53.193 30.52 53.019 30.646 52.803 30.766C52.599 30.874 52.353 30.97 52.065 31.054C51.777 31.138 51.447 31.18 51.075 31.18C50.499 31.18 49.965 31.078 49.473 30.874C48.993 30.658 48.579 30.376 48.231 30.028C47.883 29.668 47.607 29.254 47.403 28.786C47.211 28.318 47.115 27.826 47.115 27.31ZM48.663 27.22C48.663 27.568 48.723 27.892 48.843 28.192C48.975 28.492 49.149 28.75 49.365 28.966C49.581 29.182 49.839 29.356 50.139 29.488C50.439 29.608 50.769 29.668 51.129 29.668C51.489 29.668 51.819 29.608 52.119 29.488C52.431 29.356 52.695 29.182 52.911 28.966C53.139 28.738 53.313 28.48 53.433 28.192C53.553 27.892 53.613 27.568 53.613 27.22C53.613 26.872 53.553 26.554 53.433 26.266C53.313 25.966 53.139 25.708 52.911 25.492C52.695 25.276 52.431 25.108 52.119 24.988C51.819 24.856 51.489 24.79 51.129 24.79C50.769 24.79 50.439 24.856 50.139 24.988C49.839 25.108 49.581 25.276 49.365 25.492C49.149 25.708 48.975 25.966 48.843 26.266C48.723 26.554 48.663 26.872 48.663 27.22ZM62.4166 24.142L61.6066 25.222C61.5946 25.21 61.5526 25.18 61.4806 25.132C61.4086 25.084 61.3126 25.036 61.1926 24.988C61.0846 24.94 60.9526 24.898 60.7966 24.862C60.6526 24.814 60.5026 24.79 60.3466 24.79C60.1426 24.79 59.9386 24.838 59.7346 24.934C59.5426 25.03 59.4466 25.21 59.4466 25.474C59.4466 25.702 59.5246 25.888 59.6806 26.032C59.8486 26.176 60.0526 26.308 60.2926 26.428C60.5326 26.536 60.7906 26.65 61.0666 26.77C61.3546 26.89 61.6186 27.04 61.8586 27.22C62.0986 27.388 62.2966 27.604 62.4526 27.868C62.6206 28.12 62.7046 28.444 62.7046 28.84C62.7046 29.512 62.4706 30.07 62.0026 30.514C61.5466 30.946 60.9166 31.162 60.1126 31.162C59.6446 31.162 59.1826 31.084 58.7266 30.928C58.2826 30.76 57.9226 30.52 57.6466 30.208C57.7306 30.124 57.8206 30.016 57.9166 29.884C58.0246 29.752 58.1266 29.626 58.2226 29.506C58.3306 29.386 58.4146 29.29 58.4746 29.218C58.5466 29.134 58.5886 29.092 58.6006 29.092C58.6006 29.104 58.6426 29.14 58.7266 29.2C58.8226 29.26 58.9426 29.326 59.0866 29.398C59.2306 29.458 59.3926 29.518 59.5726 29.578C59.7526 29.626 59.9326 29.65 60.1126 29.65C60.4006 29.65 60.6466 29.578 60.8506 29.434C61.0546 29.29 61.1566 29.098 61.1566 28.858C61.1566 28.642 61.0726 28.474 60.9046 28.354C60.7486 28.222 60.5506 28.102 60.3106 27.994C60.0706 27.886 59.8066 27.778 59.5186 27.67C59.2306 27.55 58.9666 27.4 58.7266 27.22C58.4866 27.04 58.2826 26.818 58.1146 26.554C57.9586 26.278 57.8806 25.924 57.8806 25.492C57.8806 25.084 57.9526 24.742 58.0966 24.466C58.2526 24.19 58.4446 23.968 58.6726 23.8C58.9126 23.62 59.1766 23.494 59.4646 23.422C59.7526 23.338 60.0286 23.296 60.2926 23.296C60.6406 23.296 61.0126 23.368 61.4086 23.512C61.8046 23.656 62.1406 23.866 62.4166 24.142ZM76.6602 30.118C76.3002 30.442 75.8622 30.7 75.3462 30.892C74.8302 31.084 74.3022 31.18 73.7622 31.18C73.2102 31.18 72.6882 31.078 72.1962 30.874C71.7162 30.658 71.2962 30.376 70.9362 30.028C70.5762 29.668 70.2882 29.248 70.0722 28.768C69.8682 28.288 69.7662 27.778 69.7662 27.238C69.7662 26.698 69.8682 26.188 70.0722 25.708C70.2882 25.228 70.5762 24.808 70.9362 24.448C71.2962 24.088 71.7102 23.806 72.1782 23.602C72.6582 23.386 73.1682 23.278 73.7082 23.278C74.5602 23.278 75.2982 23.536 75.9222 24.052C76.5582 24.556 77.0142 25.222 77.2902 26.05C76.9182 26.182 76.4922 26.344 76.0122 26.536C75.5322 26.728 75.0342 26.932 74.5182 27.148C74.0022 27.352 73.4862 27.556 72.9702 27.76C72.4542 27.964 71.9742 28.15 71.5302 28.318C71.7342 28.726 72.0282 29.056 72.4122 29.308C72.8082 29.548 73.2462 29.668 73.7262 29.668C74.0502 29.668 74.3742 29.608 74.6982 29.488C75.0342 29.368 75.3042 29.206 75.5082 29.002L76.6602 30.118ZM75.3642 25.69C75.2202 25.39 74.9922 25.168 74.6802 25.024C74.3682 24.868 74.0502 24.79 73.7262 24.79C73.3782 24.79 73.0542 24.856 72.7542 24.988C72.4662 25.12 72.2142 25.3 71.9982 25.528C71.7822 25.744 71.6082 25.996 71.4762 26.284C71.3562 26.572 71.2962 26.866 71.2962 27.166C71.2962 27.226 71.2962 27.268 71.2962 27.292C71.3082 27.316 71.3142 27.334 71.3142 27.346C71.6262 27.226 71.9622 27.094 72.3222 26.95C72.6942 26.794 73.0602 26.644 73.4202 26.5C73.7802 26.344 74.1282 26.2 74.4642 26.068C74.8002 25.924 75.1002 25.798 75.3642 25.69ZM94.7747 30.064C94.6307 30.172 94.4267 30.292 94.1627 30.424C93.9107 30.544 93.6107 30.658 93.2627 30.766C92.9147 30.874 92.5247 30.964 92.0927 31.036C91.6727 31.108 91.2227 31.144 90.7427 31.144C89.7227 31.144 88.8047 30.97 87.9887 30.622C87.1847 30.262 86.5007 29.782 85.9367 29.182C85.3727 28.582 84.9407 27.886 84.6407 27.094C84.3407 26.302 84.1907 25.462 84.1907 24.574C84.1907 23.59 84.3647 22.684 84.7127 21.856C85.0727 21.028 85.5587 20.314 86.1707 19.714C86.7827 19.114 87.4967 18.646 88.3127 18.31C89.1407 17.974 90.0167 17.806 90.9407 17.806C91.2887 17.806 91.6427 17.83 92.0027 17.878C92.3627 17.926 92.6987 17.992 93.0107 18.076C93.3347 18.16 93.6167 18.262 93.8567 18.382C94.1087 18.49 94.3007 18.604 94.4327 18.724C94.3367 18.868 94.2587 18.988 94.1987 19.084C94.1507 19.18 94.0967 19.282 94.0367 19.39C93.9767 19.486 93.9107 19.6 93.8387 19.732C93.7667 19.864 93.6707 20.038 93.5507 20.254C93.3947 20.146 93.2087 20.056 92.9927 19.984C92.7887 19.912 92.5727 19.852 92.3447 19.804C92.1167 19.756 91.8827 19.72 91.6427 19.696C91.4147 19.672 91.2047 19.66 91.0127 19.66C90.3167 19.66 89.6687 19.792 89.0687 20.056C88.4807 20.308 87.9707 20.656 87.5387 21.1C87.1067 21.532 86.7647 22.036 86.5127 22.612C86.2727 23.188 86.1527 23.788 86.1527 24.412C86.1527 25.024 86.2667 25.612 86.4947 26.176C86.7347 26.74 87.0587 27.244 87.4667 27.688C87.8867 28.132 88.3847 28.486 88.9607 28.75C89.5487 29.014 90.1907 29.146 90.8867 29.146C91.2587 29.146 91.6187 29.11 91.9667 29.038C92.3147 28.966 92.6267 28.882 92.9027 28.786C93.1907 28.69 93.4247 28.594 93.6047 28.498C93.7967 28.402 93.9107 28.33 93.9467 28.282L94.7747 30.064ZM100.999 25.258C100.663 25.258 100.339 25.306 100.027 25.402C99.7153 25.486 99.4333 25.618 99.1813 25.798C98.9413 25.978 98.7493 26.206 98.6053 26.482C98.4613 26.746 98.3893 27.052 98.3893 27.4V31H96.8593V23.476H98.2093C98.2333 23.848 98.2513 24.19 98.2633 24.502C98.2873 24.802 98.3113 25.102 98.3353 25.402C98.4913 25.078 98.6953 24.784 98.9473 24.52C99.1993 24.256 99.4693 24.034 99.7573 23.854C100.045 23.674 100.327 23.536 100.603 23.44C100.879 23.332 101.125 23.278 101.341 23.278L100.999 25.258ZM102.687 27.22C102.687 26.68 102.789 26.17 102.993 25.69C103.209 25.21 103.497 24.796 103.857 24.448C104.217 24.088 104.637 23.806 105.117 23.602C105.609 23.386 106.137 23.278 106.701 23.278C107.265 23.278 107.787 23.386 108.267 23.602C108.759 23.806 109.179 24.088 109.527 24.448C109.887 24.796 110.163 25.21 110.355 25.69C110.559 26.17 110.661 26.68 110.661 27.22C110.661 27.76 110.559 28.27 110.355 28.75C110.163 29.23 109.887 29.65 109.527 30.01C109.179 30.37 108.759 30.658 108.267 30.874C107.787 31.078 107.259 31.18 106.683 31.18C106.131 31.18 105.609 31.084 105.117 30.892C104.637 30.7 104.217 30.43 103.857 30.082C103.497 29.734 103.209 29.32 102.993 28.84C102.789 28.348 102.687 27.808 102.687 27.22ZM104.217 27.238C104.217 27.574 104.277 27.892 104.397 28.192C104.529 28.48 104.703 28.738 104.919 28.966C105.147 29.182 105.405 29.356 105.693 29.488C105.993 29.608 106.311 29.668 106.647 29.668C106.983 29.668 107.301 29.608 107.601 29.488C107.901 29.356 108.159 29.182 108.375 28.966C108.603 28.738 108.783 28.48 108.915 28.192C109.047 27.892 109.113 27.574 109.113 27.238C109.113 26.902 109.047 26.584 108.915 26.284C108.783 25.984 108.603 25.726 108.375 25.51C108.159 25.282 107.901 25.108 107.601 24.988C107.301 24.856 106.983 24.79 106.647 24.79C106.311 24.79 105.993 24.856 105.693 24.988C105.405 25.108 105.147 25.282 104.919 25.51C104.703 25.726 104.529 25.984 104.397 26.284C104.277 26.584 104.217 26.902 104.217 27.238ZM106.683 18.958C107.043 19.51 107.403 20.062 107.763 20.614C108.135 21.154 108.507 21.7 108.879 22.252H107.727C107.679 22.18 107.607 22.084 107.511 21.964C107.415 21.832 107.313 21.7 107.205 21.568C107.097 21.424 106.995 21.286 106.899 21.154C106.803 21.022 106.731 20.92 106.683 20.848C106.635 20.92 106.563 21.022 106.467 21.154C106.371 21.286 106.269 21.424 106.161 21.568C106.053 21.7 105.951 21.832 105.855 21.964C105.771 22.084 105.705 22.18 105.657 22.252H104.487C104.859 21.7 105.225 21.154 105.585 20.614C105.957 20.062 106.323 19.51 106.683 18.958ZM113.196 23.476H114.546C114.57 23.848 114.588 24.19 114.6 24.502C114.624 24.802 114.648 25.102 114.672 25.402C114.948 24.754 115.338 24.238 115.842 23.854C116.358 23.47 116.988 23.278 117.732 23.278C118.488 23.278 119.094 23.488 119.55 23.908C120.006 24.328 120.246 24.868 120.27 25.528V31H118.722V26.23C118.698 25.846 118.566 25.522 118.326 25.258C118.086 24.982 117.708 24.832 117.192 24.808C116.832 24.808 116.502 24.874 116.202 25.006C115.902 25.126 115.644 25.294 115.428 25.51C115.212 25.726 115.038 25.984 114.906 26.284C114.786 26.584 114.726 26.914 114.726 27.274V31H113.196V23.476ZM123.057 20.596C123.057 20.308 123.159 20.068 123.363 19.876C123.579 19.684 123.807 19.588 124.047 19.588C124.287 19.588 124.509 19.684 124.713 19.876C124.917 20.068 125.019 20.308 125.019 20.596C125.019 20.884 124.917 21.124 124.713 21.316C124.509 21.496 124.287 21.586 124.047 21.586C123.807 21.586 123.579 21.496 123.363 21.316C123.159 21.124 123.057 20.884 123.057 20.596ZM124.785 31H123.255V23.476H124.785V31ZM132.886 29.146C133.054 29.35 133.21 29.548 133.354 29.74C133.51 29.92 133.666 30.112 133.822 30.316C133.486 30.58 133.108 30.79 132.688 30.946C132.268 31.102 131.812 31.18 131.32 31.18C130.768 31.18 130.246 31.078 129.754 30.874C129.274 30.658 128.854 30.37 128.494 30.01C128.134 29.65 127.846 29.23 127.63 28.75C127.426 28.27 127.324 27.76 127.324 27.22C127.324 26.68 127.426 26.17 127.63 25.69C127.846 25.21 128.134 24.796 128.494 24.448C128.854 24.088 129.274 23.806 129.754 23.602C130.246 23.386 130.768 23.278 131.32 23.278C131.824 23.278 132.286 23.356 132.706 23.512C133.138 23.668 133.528 23.878 133.876 24.142L132.886 25.312C132.682 25.144 132.448 25.018 132.184 24.934C131.92 24.838 131.632 24.79 131.32 24.79C130.96 24.79 130.63 24.856 130.33 24.988C130.03 25.108 129.766 25.276 129.538 25.492C129.322 25.708 129.154 25.966 129.034 26.266C128.914 26.554 128.854 26.872 128.854 27.22C128.854 27.568 128.914 27.892 129.034 28.192C129.154 28.48 129.322 28.738 129.538 28.966C129.766 29.182 130.03 29.356 130.33 29.488C130.63 29.608 130.96 29.668 131.32 29.668C131.632 29.668 131.92 29.626 132.184 29.542C132.448 29.446 132.682 29.314 132.886 29.146ZM135.449 27.31C135.449 26.758 135.551 26.242 135.755 25.762C135.971 25.27 136.259 24.844 136.619 24.484C136.979 24.112 137.393 23.818 137.861 23.602C138.341 23.386 138.851 23.278 139.391 23.278C139.751 23.278 140.081 23.326 140.381 23.422C140.681 23.506 140.939 23.614 141.155 23.746C141.371 23.878 141.545 24.016 141.677 24.16C141.809 24.304 141.899 24.43 141.947 24.538L142.019 23.476H143.495V31H141.947V30.046C141.887 30.142 141.791 30.256 141.659 30.388C141.527 30.52 141.353 30.646 141.137 30.766C140.933 30.874 140.687 30.97 140.399 31.054C140.111 31.138 139.781 31.18 139.409 31.18C138.833 31.18 138.299 31.078 137.807 30.874C137.327 30.658 136.913 30.376 136.565 30.028C136.217 29.668 135.941 29.254 135.737 28.786C135.545 28.318 135.449 27.826 135.449 27.31ZM136.997 27.22C136.997 27.568 137.057 27.892 137.177 28.192C137.309 28.492 137.483 28.75 137.699 28.966C137.915 29.182 138.173 29.356 138.473 29.488C138.773 29.608 139.103 29.668 139.463 29.668C139.823 29.668 140.153 29.608 140.453 29.488C140.765 29.356 141.029 29.182 141.245 28.966C141.473 28.738 141.647 28.48 141.767 28.192C141.887 27.892 141.947 27.568 141.947 27.22C141.947 26.872 141.887 26.554 141.767 26.266C141.647 25.966 141.473 25.708 141.245 25.492C141.029 25.276 140.765 25.108 140.453 24.988C140.153 24.856 139.823 24.79 139.463 24.79C139.103 24.79 138.773 24.856 138.473 24.988C138.173 25.108 137.915 25.276 137.699 25.492C137.483 25.708 137.309 25.966 137.177 26.266C137.057 26.554 136.997 26.872 136.997 27.22ZM150.75 24.142L149.94 25.222C149.928 25.21 149.886 25.18 149.814 25.132C149.742 25.084 149.646 25.036 149.526 24.988C149.418 24.94 149.286 24.898 149.13 24.862C148.986 24.814 148.836 24.79 148.68 24.79C148.476 24.79 148.272 24.838 148.068 24.934C147.876 25.03 147.78 25.21 147.78 25.474C147.78 25.702 147.858 25.888 148.014 26.032C148.182 26.176 148.386 26.308 148.626 26.428C148.866 26.536 149.124 26.65 149.4 26.77C149.688 26.89 149.952 27.04 150.192 27.22C150.432 27.388 150.63 27.604 150.786 27.868C150.954 28.12 151.038 28.444 151.038 28.84C151.038 29.512 150.804 30.07 150.336 30.514C149.88 30.946 149.25 31.162 148.446 31.162C147.978 31.162 147.516 31.084 147.06 30.928C146.616 30.76 146.256 30.52 145.98 30.208C146.064 30.124 146.154 30.016 146.25 29.884C146.358 29.752 146.46 29.626 146.556 29.506C146.664 29.386 146.748 29.29 146.808 29.218C146.88 29.134 146.922 29.092 146.934 29.092C146.934 29.104 146.976 29.14 147.06 29.2C147.156 29.26 147.276 29.326 147.42 29.398C147.564 29.458 147.726 29.518 147.906 29.578C148.086 29.626 148.266 29.65 148.446 29.65C148.734 29.65 148.98 29.578 149.184 29.434C149.388 29.29 149.49 29.098 149.49 28.858C149.49 28.642 149.406 28.474 149.238 28.354C149.082 28.222 148.884 28.102 148.644 27.994C148.404 27.886 148.14 27.778 147.852 27.67C147.564 27.55 147.3 27.4 147.06 27.22C146.82 27.04 146.616 26.818 146.448 26.554C146.292 26.278 146.214 25.924 146.214 25.492C146.214 25.084 146.286 24.742 146.43 24.466C146.586 24.19 146.778 23.968 147.006 23.8C147.246 23.62 147.51 23.494 147.798 23.422C148.086 23.338 148.362 23.296 148.626 23.296C148.974 23.296 149.346 23.368 149.742 23.512C150.138 23.656 150.474 23.866 150.75 24.142Z" fill="#FFFBFB"/>
</svg>
