<svg width="156" height="49" viewBox="0 0 156 49" fill="none" xmlns="http://www.w3.org/2000/svg">
<path d="M145.534 0H10C4.47715 0 0 4.47715 0 10V38.45C0 43.9728 4.47715 48.45 10 48.45H145.534C151.057 48.45 155.534 43.9728 155.534 38.45V10C155.534 4.47715 151.057 0 145.534 0Z" fill="#094B4B"/>
<path d="M40.9034 31V17.95H44.4674C45.1514 17.95 45.7754 18.04 46.3394 18.22C46.9154 18.4 47.4074 18.67 47.8154 19.03C48.2354 19.378 48.5594 19.81 48.7874 20.326C49.0154 20.83 49.1294 21.412 49.1294 22.072C49.1294 22.432 49.0934 22.792 49.0214 23.152C48.9494 23.5 48.8294 23.842 48.6614 24.178C48.5054 24.502 48.3014 24.808 48.0494 25.096C47.7974 25.372 47.4914 25.606 47.1314 25.798C47.6114 26.554 48.1334 27.394 48.6974 28.318C49.2614 29.23 49.8314 30.124 50.4074 31H48.0494C47.8094 30.628 47.5574 30.238 47.2934 29.83C47.0414 29.422 46.7834 29.02 46.5194 28.624C46.2674 28.216 46.0154 27.82 45.7634 27.436C45.5234 27.04 45.2954 26.674 45.0794 26.338H44.7194H42.8834V31H40.9034ZM42.8834 24.484H44.6654C45.1454 24.484 45.5474 24.406 45.8714 24.25C46.1954 24.082 46.4474 23.878 46.6274 23.638C46.8194 23.398 46.9514 23.14 47.0234 22.864C47.1074 22.588 47.1494 22.336 47.1494 22.108C47.1494 21.88 47.1074 21.634 47.0234 21.37C46.9514 21.094 46.8194 20.842 46.6274 20.614C46.4354 20.374 46.1774 20.176 45.8534 20.02C45.5414 19.864 45.1514 19.786 44.6834 19.786H42.8834V24.484ZM51.2866 27.22C51.2866 26.68 51.3886 26.17 51.5926 25.69C51.8086 25.21 52.0966 24.796 52.4566 24.448C52.8166 24.088 53.2366 23.806 53.7166 23.602C54.2086 23.386 54.7366 23.278 55.3006 23.278C55.8646 23.278 56.3866 23.386 56.8666 23.602C57.3586 23.806 57.7786 24.088 58.1266 24.448C58.4866 24.796 58.7626 25.21 58.9546 25.69C59.1586 26.17 59.2606 26.68 59.2606 27.22C59.2606 27.76 59.1586 28.27 58.9546 28.75C58.7626 29.23 58.4866 29.65 58.1266 30.01C57.7786 30.37 57.3586 30.658 56.8666 30.874C56.3866 31.078 55.8586 31.18 55.2826 31.18C54.7306 31.18 54.2086 31.084 53.7166 30.892C53.2366 30.7 52.8166 30.43 52.4566 30.082C52.0966 29.734 51.8086 29.32 51.5926 28.84C51.3886 28.348 51.2866 27.808 51.2866 27.22ZM52.8166 27.238C52.8166 27.574 52.8766 27.892 52.9966 28.192C53.1286 28.48 53.3026 28.738 53.5186 28.966C53.7466 29.182 54.0046 29.356 54.2926 29.488C54.5926 29.608 54.9106 29.668 55.2466 29.668C55.5826 29.668 55.9006 29.608 56.2006 29.488C56.5006 29.356 56.7586 29.182 56.9746 28.966C57.2026 28.738 57.3826 28.48 57.5146 28.192C57.6466 27.892 57.7126 27.574 57.7126 27.238C57.7126 26.902 57.6466 26.584 57.5146 26.284C57.3826 25.984 57.2026 25.726 56.9746 25.51C56.7586 25.282 56.5006 25.108 56.2006 24.988C55.9006 24.856 55.5826 24.79 55.2466 24.79C54.9106 24.79 54.5926 24.856 54.2926 24.988C54.0046 25.108 53.7466 25.282 53.5186 25.51C53.3026 25.726 53.1286 25.984 52.9966 26.284C52.8766 26.584 52.8166 26.902 52.8166 27.238ZM61.7065 23.476H63.0565C63.0805 23.848 63.0985 24.19 63.1105 24.502C63.1345 24.802 63.1585 25.102 63.1825 25.402C63.4585 24.754 63.8185 24.244 64.2625 23.872C64.7185 23.488 65.3245 23.29 66.0805 23.278C66.8125 23.278 67.4005 23.464 67.8445 23.836C68.2885 24.208 68.5465 24.694 68.6185 25.294C68.9185 24.682 69.2845 24.196 69.7165 23.836C70.1605 23.476 70.7545 23.29 71.4985 23.278C72.2785 23.278 72.8905 23.488 73.3345 23.908C73.7905 24.328 74.0305 24.868 74.0545 25.528V31H72.5065V26.23C72.4825 25.846 72.3505 25.522 72.1105 25.258C71.8825 24.982 71.5045 24.832 70.9765 24.808C70.2565 24.808 69.6925 25.042 69.2845 25.51C68.8765 25.966 68.6605 26.554 68.6365 27.274V31H67.1065V26.23C67.0825 25.846 66.9445 25.522 66.6925 25.258C66.4525 24.982 66.0805 24.832 65.5765 24.808C65.2165 24.808 64.8925 24.874 64.6045 25.006C64.3165 25.126 64.0705 25.294 63.8665 25.51C63.6625 25.726 63.5065 25.984 63.3985 26.284C63.2905 26.584 63.2365 26.914 63.2365 27.274V31H61.7065V23.476ZM76.4262 27.31C76.4262 26.758 76.5282 26.242 76.7322 25.762C76.9482 25.27 77.2362 24.844 77.5962 24.484C77.9562 24.112 78.3702 23.818 78.8382 23.602C79.3182 23.386 79.8282 23.278 80.3682 23.278C80.7282 23.278 81.0582 23.326 81.3582 23.422C81.6582 23.506 81.9162 23.614 82.1322 23.746C82.3482 23.878 82.5222 24.016 82.6542 24.16C82.7862 24.304 82.8762 24.43 82.9242 24.538L82.9962 23.476H84.4722V31H82.9242V30.046C82.8642 30.142 82.7682 30.256 82.6362 30.388C82.5042 30.52 82.3302 30.646 82.1142 30.766C81.9102 30.874 81.6642 30.97 81.3762 31.054C81.0882 31.138 80.7582 31.18 80.3862 31.18C79.8102 31.18 79.2762 31.078 78.7842 30.874C78.3042 30.658 77.8902 30.376 77.5422 30.028C77.1942 29.668 76.9182 29.254 76.7142 28.786C76.5222 28.318 76.4262 27.826 76.4262 27.31ZM77.9742 27.22C77.9742 27.568 78.0342 27.892 78.1542 28.192C78.2862 28.492 78.4602 28.75 78.6762 28.966C78.8922 29.182 79.1502 29.356 79.4502 29.488C79.7502 29.608 80.0802 29.668 80.4402 29.668C80.8002 29.668 81.1302 29.608 81.4302 29.488C81.7422 29.356 82.0062 29.182 82.2222 28.966C82.4502 28.738 82.6242 28.48 82.7442 28.192C82.8642 27.892 82.9242 27.568 82.9242 27.22C82.9242 26.872 82.8642 26.554 82.7442 26.266C82.6242 25.966 82.4502 25.708 82.2222 25.492C82.0062 25.276 81.7422 25.108 81.4302 24.988C81.1302 24.856 80.8002 24.79 80.4402 24.79C80.0802 24.79 79.7502 24.856 79.4502 24.988C79.1502 25.108 78.8922 25.276 78.6762 25.492C78.4602 25.708 78.2862 25.966 78.1542 26.266C78.0342 26.554 77.9742 26.872 77.9742 27.22ZM87.4437 23.476H88.7937C88.8177 23.848 88.8357 24.19 88.8477 24.502C88.8717 24.802 88.8957 25.102 88.9197 25.402C89.1957 24.754 89.5857 24.238 90.0897 23.854C90.6057 23.47 91.2357 23.278 91.9797 23.278C92.7357 23.278 93.3417 23.488 93.7977 23.908C94.2537 24.328 94.4937 24.868 94.5177 25.528V31H92.9697V26.23C92.9457 25.846 92.8137 25.522 92.5737 25.258C92.3337 24.982 91.9557 24.832 91.4397 24.808C91.0797 24.808 90.7497 24.874 90.4497 25.006C90.1497 25.126 89.8917 25.294 89.6757 25.51C89.4597 25.726 89.2857 25.984 89.1537 26.284C89.0337 26.584 88.9737 26.914 88.9737 27.274V31H87.4437V23.476ZM102.452 29.146C102.62 29.35 102.776 29.548 102.92 29.74C103.076 29.92 103.232 30.112 103.388 30.316C103.052 30.58 102.674 30.79 102.254 30.946C101.834 31.102 101.378 31.18 100.886 31.18C100.334 31.18 99.8119 31.078 99.3199 30.874C98.8399 30.658 98.4199 30.37 98.0599 30.01C97.6999 29.65 97.4119 29.23 97.1959 28.75C96.9919 28.27 96.8899 27.76 96.8899 27.22C96.8899 26.68 96.9919 26.17 97.1959 25.69C97.4119 25.21 97.6999 24.796 98.0599 24.448C98.4199 24.088 98.8399 23.806 99.3199 23.602C99.8119 23.386 100.334 23.278 100.886 23.278C101.39 23.278 101.852 23.356 102.272 23.512C102.704 23.668 103.094 23.878 103.442 24.142L102.452 25.312C102.248 25.144 102.014 25.018 101.75 24.934C101.486 24.838 101.198 24.79 100.886 24.79C100.526 24.79 100.196 24.856 99.8959 24.988C99.5959 25.108 99.3319 25.276 99.1039 25.492C98.8879 25.708 98.7199 25.966 98.5999 26.266C98.4799 26.554 98.4199 26.872 98.4199 27.22C98.4199 27.568 98.4799 27.892 98.5999 28.192C98.7199 28.48 98.8879 28.738 99.1039 28.966C99.3319 29.182 99.5959 29.356 99.8959 29.488C100.196 29.608 100.526 29.668 100.886 29.668C101.198 29.668 101.486 29.626 101.75 29.542C102.014 29.446 102.248 29.314 102.452 29.146ZM111.819 30.118C111.459 30.442 111.021 30.7 110.505 30.892C109.989 31.084 109.461 31.18 108.921 31.18C108.369 31.18 107.847 31.078 107.355 30.874C106.875 30.658 106.455 30.376 106.095 30.028C105.735 29.668 105.447 29.248 105.231 28.768C105.027 28.288 104.925 27.778 104.925 27.238C104.925 26.698 105.027 26.188 105.231 25.708C105.447 25.228 105.735 24.808 106.095 24.448C106.455 24.088 106.869 23.806 107.337 23.602C107.817 23.386 108.327 23.278 108.867 23.278C109.719 23.278 110.457 23.536 111.081 24.052C111.717 24.556 112.173 25.222 112.449 26.05C112.077 26.182 111.651 26.344 111.171 26.536C110.691 26.728 110.193 26.932 109.677 27.148C109.161 27.352 108.645 27.556 108.129 27.76C107.613 27.964 107.133 28.15 106.689 28.318C106.893 28.726 107.187 29.056 107.571 29.308C107.967 29.548 108.405 29.668 108.885 29.668C109.209 29.668 109.533 29.608 109.857 29.488C110.193 29.368 110.463 29.206 110.667 29.002L111.819 30.118ZM110.523 25.69C110.379 25.39 110.151 25.168 109.839 25.024C109.527 24.868 109.209 24.79 108.885 24.79C108.537 24.79 108.213 24.856 107.913 24.988C107.625 25.12 107.373 25.3 107.157 25.528C106.941 25.744 106.767 25.996 106.635 26.284C106.515 26.572 106.455 26.866 106.455 27.166C106.455 27.226 106.455 27.268 106.455 27.292C106.467 27.316 106.473 27.334 106.473 27.346C106.785 27.226 107.121 27.094 107.481 26.95C107.853 26.794 108.219 26.644 108.579 26.5C108.939 26.344 109.287 26.2 109.623 26.068C109.959 25.924 110.259 25.798 110.523 25.69Z" fill="#FFFBFB"/>
</svg>
